NewsreaderText-LightItalic.ufo
<glyph name="exclam" format="2">
	<unicode hex="0021"/>
	<advance width="492.56"/>
	<outline>
		<contour>
			<point x="575.5333333333" y="1318" type="line" smooth="yes"/>
			<point x="583.6533333333" y="1343.6133333333"/>
			<point x="564.92" y="1351.12"/>
			<point x="524.84" y="1351.12" type="curve" smooth="yes"/>
			<point x="486.1333333333" y="1351.12"/>
			<point x="470.4" y="1343.9866666667"/>
			<point x="463.0266666667" y="1319.12" type="curve" smooth="yes"/>
			<point x="441.72" y="1244.24" type="line" smooth="yes"/>
			<point x="420.8933333333" y="1174.4133333333"/>
			<point x="309.36" y="728.5733333333"/>
			<point x="215.9866666667" y="396" type="curve"/>
			<point x="257.32" y="396" type="line"/>
			<point x="367.04" y="728.5733333333"/>
			<point x="530.1733333333" y="1176.2933333333"/>
			<point x="551.6133333333" y="1244.24" type="curve" smooth="yes"/>
		</contour>
		<contour>
			<point x="156.4533333333" y="174.4933333333" type="curve" smooth="yes"/>
			<point x="92.3733333333" y="174.4933333333"/>
			<point x="45.6533333333" y="123.0266666667"/>
			<point x="45.6533333333" y="61.56" type="curve" smooth="yes"/>
			<point x="45.6533333333" y="18.0933333333"/>
			<point x="76.12" y="-14.6266666667"/>
			<point x="123.8266666667" y="-14.6266666667" type="curve" smooth="yes"/>
			<point x="187.9066666667" y="-14.6266666667"/>
			<point x="234.6266666667" y="36.84"/>
			<point x="234.6266666667" y="98.3066666667" type="curve" smooth="yes"/>
			<point x="234.6266666667" y="141.7733333333"/>
			<point x="204.16" y="174.4933333333"/>
		</contour>
	</outline>
</glyph>
<glyph name="ampersand" format="2">
	<unicode hex="0026"/>
	<advance width="1302.5466666667"/>
	<outline>
		<contour>
			<point x="900.7733333333" y="195.3066666667" type="line"/>
			<point x="1009.16" y="312.56"/>
			<point x="1119.44" y="490.72"/>
			<point x="1219.6" y="749.9333333333" type="curve"/>
			<point x="1374.5733333333" y="784.1466666667" type="line"/>
			<point x="1383.0666666667" y="813" type="line"/>
			<point x="1004.52" y="813" type="line"/>
			<point x="995.6533333333" y="784.1466666667" type="line"/>
			<point x="1140.92" y="749.9333333333" type="line"/>
			<point x="1065.8933333333" y="499.7066666667"/>
			<point x="971.2266666667" y="334.4"/>
			<point x="872.44" y="229.88" type="curve"/>
			<point x="844.96" y="206.04" type="line"/>
			<point x="716.68" y="84.1466666667"/>
			<point x="583.7866666667" y="55.6533333333"/>
			<point x="472.92" y="55.6533333333" type="curve" smooth="yes"/>
			<point x="294.4133333333" y="55.6533333333"/>
			<point x="193.64" y="153.4133333333"/>
			<point x="193.64" y="313.7333333333" type="curve" smooth="yes"/>
			<point x="193.64" y="469.52"/>
			<point x="271.8" y="604.7333333333"/>
			<point x="555.92" y="720.64" type="curve"/>
			<point x="608.16" y="738.8933333333" type="line"/>
			<point x="916.68" y="874.5333333333"/>
			<point x="1016.1333333333" y="997.8133333333"/>
			<point x="1016.1333333333" y="1146.64" type="curve" smooth="yes"/>
			<point x="1016.1333333333" y="1266.4933333333"/>
			<point x="933.1466666667" y="1360"/>
			<point x="768.92" y="1360" type="curve" smooth="yes"/>
			<point x="564.0666666667" y="1360"/>
			<point x="428.3866666667" y="1226.76"/>
			<point x="428.3866666667" y="1031.6533333333" type="curve" smooth="yes"/>
			<point x="428.3866666667" y="952.6666666667"/>
			<point x="452.6266666667" y="860.0533333333"/>
			<point x="520.52" y="738" type="curve" smooth="yes"/>
			<point x="933.32" y="0" type="line"/>
			<point x="1176.3866666667" y="0" type="line"/>
			<point x="1183.76" y="27.6" type="line"/>
			<point x="1000.2266666667" y="69.68" type="line"/>
			<point x="583.0533333333" y="810.32" type="line" smooth="yes"/>
			<point x="530.52" y="904.52"/>
			<point x="509.7733333333" y="982.52"/>
			<point x="509.7733333333" y="1065.8" type="curve" smooth="yes"/>
			<point x="509.7733333333" y="1209.48"/>
			<point x="607.3333333333" y="1313.5733333333"/>
			<point x="766.0533333333" y="1313.5733333333" type="curve" smooth="yes"/>
			<point x="874.2133333333" y="1313.5733333333"/>
			<point x="931.1066666667" y="1248.4266666667"/>
			<point x="931.1066666667" y="1154.1333333333" type="curve" smooth="yes"/>
			<point x="931.1066666667" y="1019.52"/>
			<point x="856.28" y="894.2533333333"/>
			<point x="592.68" y="778.8266666667" type="curve"/>
			<point x="546.2133333333" y="759.0933333333" type="line"/>
			<point x="188.48" y="628.32"/>
			<point x="98.12" y="467.6933333333"/>
			<point x="98.12" y="294.3466666667" type="curve" smooth="yes"/>
			<point x="98.12" y="108.7333333333"/>
			<point x="213.48" y="-19.6266666667"/>
			<point x="436.6933333333" y="-19.6266666667" type="curve" smooth="yes"/>
			<point x="575.4266666667" y="-19.6266666667"/>
			<point x="724.6666666667" y="23.4666666667"/>
			<point x="872.1733333333" y="169.72" type="curve"/>
		</contour>
	</outline>
</glyph>
<glyph name="quotesingle" format="2">
	<unicode hex="0027"/>
	<advance width="324.2533333333"/>
	<outline>
		<contour>
			<point x="278.64" y="903.9866666667" type="line"/>
			<point x="322.56" y="903.9866666667" type="line"/>
			<point x="483.3733333333" y="1297.0133333333" type="line"/>
			<point x="496.4933333333" y="1340" type="line"/>
			<point x="374.64" y="1340" type="line"/>
			<point x="360.8933333333" y="1297.0133333333" type="line"/>
		</contour>
	</outline>
</glyph>
<glyph name="parenleft" format="2">
	<unicode hex="0028"/>
	<advance width="507.8266666667"/>
	<outline>
		<contour>
			<point x="741.8266666667" y="1391.2666666667" type="curve"/>
			<point x="714.72" y="1419" type="line"/>
			<point x="183.7466666667" y="910.4"/>
			<point x="90.5066666667" y="591.8266666667"/>
			<point x="90.5066666667" y="267.7466666667" type="curve" smooth="yes"/>
			<point x="90.5066666667" y="118.3866666667"/>
			<point x="123" y="-53.9866666667"/>
			<point x="198.6" y="-275" type="curve"/>
			<point x="237.2" y="-261.76" type="line"/>
			<point x="194.8133333333" y="-110.3466666667"/>
			<point x="173.8" y="30.5733333333"/>
			<point x="173.8" y="165" type="curve" smooth="yes"/>
			<point x="173.8" y="598.2533333333"/>
			<point x="340.5733333333" y="971.1866666667"/>
		</contour>
	</outline>
</glyph>
<glyph name="parenright" format="2">
	<unicode hex="0029"/>
	<advance width="507.8266666667"/>
	<outline>
		<contour>
			<point x="-145.3733333333" y="-247.2666666667" type="curve"/>
			<point x="-118.2666666667" y="-275" type="line"/>
			<point x="412.7066666667" y="233.6"/>
			<point x="505.9466666667" y="552.1733333333"/>
			<point x="505.9466666667" y="876.2533333333" type="curve" smooth="yes"/>
			<point x="505.9466666667" y="1025.6133333333"/>
			<point x="473.4533333333" y="1197.9866666667"/>
			<point x="397.8533333333" y="1419" type="curve"/>
			<point x="359.2533333333" y="1405.76" type="line"/>
			<point x="401.64" y="1254.3466666667"/>
			<point x="422.6533333333" y="1113.4266666667"/>
			<point x="422.6533333333" y="979" type="curve" smooth="yes"/>
			<point x="422.6533333333" y="545.7466666667"/>
			<point x="255.88" y="172.8133333333"/>
		</contour>
	</outline>
</glyph>
<glyph name="asterisk" format="2">
	<unicode hex="002A"/>
	<advance width="786.8266666667"/>
	<outline>
		<contour>
			<point x="711.6266666667" y="766.5066666667" type="line"/>
			<point x="634.8666666667" y="1007.2266666667" type="line"/>
			<point x="885.72" y="1042.0666666667" type="line"/>
			<point x="882.3466666667" y="1084.0266666667" type="line"/>
			<point x="629" y="1085.76" type="line"/>
			<point x="673.4" y="1335.2266666667" type="line"/>
			<point x="632.8133333333" y="1345.72" type="line"/>
			<point x="552.5866666667" y="1105.24" type="line"/>
			<point x="329.6266666667" y="1224.2533333333" type="line"/>
			<point x="306.7733333333" y="1188.7866666667" type="line"/>
			<point x="510.76" y="1038.6933333333" type="line"/>
			<point x="328.5066666667" y="863.36" type="line"/>
			<point x="355.1066666667" y="830.64" type="line"/>
			<point x="561.8266666667" y="977.3866666667" type="line"/>
			<point x="671.7866666667" y="749.7733333333" type="line"/>
		</contour>
	</outline>
</glyph>
<glyph name="plus" format="2">
  <advance width="1000.0"/>
  <unicode hex="002B"/>
  <outline>
    <contour>
      <point x="362.7866666666667" y="79.0" type="line"/>
      <point x="424.46666666666664" y="79.0" type="line"/>
      <point x="642.4666666666667" y="793.0" type="line"/>
      <point x="580.7866666666666" y="793.0" type="line"/>
    </contour>
    <contour>
      <point x="154.24" y="462.96" type="line"/>
      <point x="135.76" y="404.02666666666664" type="line"/>
      <point x="849.76" y="404.02666666666664" type="line"/>
      <point x="868.24" y="462.96" type="line"/>
    </contour>
  </outline>
</glyph>
<glyph name="comma" format="2">
	<unicode hex="002C"/>
	<advance width="366.5333333333"/>
	<outline>
		<contour>
			<point x="-149.16" y="-277.6933333333" type="curve"/>
			<point x="-129.3066666667" y="-313.4" type="line"/>
			<point x="111.1733333333" y="-163.8533333333"/>
			<point x="190.1733333333" y="-28.9866666667"/>
			<point x="190.1733333333" y="82.44" type="curve" smooth="yes"/>
			<point x="190.1733333333" y="142.1466666667"/>
			<point x="155.7066666667" y="174.12"/>
			<point x="109.12" y="174.12" type="curve" smooth="yes"/>
			<point x="46.5466666667" y="174.12"/>
			<point x="7.7066666667" y="128.64"/>
			<point x="7.7066666667" y="82.2133333333" type="curve" smooth="yes"/>
			<point x="7.7066666667" y="51.6"/>
			<point x="74.6533333333" y="40"/>
			<point x="74.6533333333" y="-21.6" type="curve" smooth="yes"/>
			<point x="74.6533333333" y="-84.5866666667"/>
			<point x="26.2933333333" y="-168.2"/>
		</contour>
	</outline>
</glyph>
<glyph name="hyphen" format="2">
	<unicode hex="002D"/>
	<advance width="611.2266666667"/>
	<outline>
		<contour>
			<point x="136.8533333333" y="481.7066666667" type="line"/>
			<point x="109.2533333333" y="390.2933333333" type="line"/>
			<point x="480" y="390.2933333333" type="line"/>
			<point x="507.6" y="481.7066666667" type="line"/>
		</contour>
	</outline>
</glyph>
<glyph name="period" format="2">
  <advance width="389"/>
  <unicode hex="002E"/>
  <outline>
    <contour>
      <point x="128.8" y="174.49333333333334" type="curve" smooth="yes"/>
      <point x="64.72" y="174.49333333333334"/>
      <point x="18.0" y="123.02666666666667"/>
      <point x="18.0" y="61.56" type="curve" smooth="yes"/>
      <point x="18.0" y="18.093333333333334"/>
      <point x="48.46666666666667" y="-14.626666666666667"/>
      <point x="96.17333333333333" y="-14.626666666666667" type="curve" smooth="yes"/>
      <point x="160.25333333333333" y="-14.626666666666667"/>
      <point x="206.97333333333333" y="36.84"/>
      <point x="206.97333333333333" y="98.30666666666667" type="curve" smooth="yes"/>
      <point x="206.97333333333333" y="141.77333333333334"/>
      <point x="176.50666666666666" y="174.49333333333334"/>
    </contour>
  </outline>
</glyph>
<glyph name="slash" format="2">
	<unicode hex="002F"/>
	<advance width="783.32"/>
	<outline>
		<contour>
			<point x="-43.9866666667" y="0" type="line"/>
			<point x="37.92" y="0" type="line"/>
			<point x="975.56" y="1340" type="line"/>
			<point x="893.28" y="1340" type="line"/>
		</contour>
	</outline>
</glyph>
<glyph name="zero" format="2">
	<unicode hex="0030"/>
	<advance width="1100"/>
	<outline>
		<contour>
			<point x="235.28" y="374.04" type="curve" smooth="yes"/>
			<point x="235.28" y="746.6266666667"/>
			<point x="465.24" y="1308.8133333333"/>
			<point x="792.92" y="1308.8133333333" type="curve" smooth="yes"/>
			<point x="936.0666666667" y="1308.8133333333"/>
			<point x="1013.9733333333" y="1203.3066666667"/>
			<point x="1013.9733333333" y="966.3333333333" type="curve" smooth="yes"/>
			<point x="1013.9733333333" y="593.7466666667"/>
			<point x="784.0133333333" y="31.56"/>
			<point x="456.3333333333" y="31.56" type="curve" smooth="yes"/>
			<point x="313.1866666667" y="31.56"/>
			<point x="235.28" y="137.0666666667"/>
		</contour>
		<contour>
			<point x="797.04" y="1360" type="curve" smooth="yes"/>
			<point x="405.2666666667" y="1359.6266666667"/>
			<point x="134.0266666667" y="808.4"/>
			<point x="134.0266666667" y="392.16" type="curve" smooth="yes"/>
			<point x="134.0266666667" y="126.9866666667"/>
			<point x="250.2266666667" y="-20"/>
			<point x="452.2133333333" y="-20" type="curve" smooth="yes"/>
			<point x="843.9866666667" y="-20"/>
			<point x="1115.2266666667" y="531.9733333333"/>
			<point x="1115.2266666667" y="948.2133333333" type="curve" smooth="yes"/>
			<point x="1115.2266666667" y="1213.3866666667"/>
			<point x="999.0266666667" y="1360"/>
		</contour>
	</outline>
</glyph>
<glyph name="colon" format="2">
	<unicode hex="003A"/>
	<advance width="445.4933333333"/>
	<outline>
		<contour>
			<point x="136.1733333333" y="174.4933333333" type="curve" smooth="yes"/>
			<point x="72.0933333333" y="174.4933333333"/>
			<point x="25.3733333333" y="123.0266666667"/>
			<point x="25.3733333333" y="61.56" type="curve" smooth="yes"/>
			<point x="25.3733333333" y="18.0933333333"/>
			<point x="55.84" y="-14.6266666667"/>
			<point x="103.5466666667" y="-14.6266666667" type="curve" smooth="yes"/>
			<point x="167.6266666667" y="-14.6266666667"/>
			<point x="214.3466666667" y="36.84"/>
			<point x="214.3466666667" y="98.3066666667" type="curve" smooth="yes"/>
			<point x="214.3466666667" y="141.7733333333"/>
			<point x="183.88" y="174.4933333333"/>
		</contour>
		<contour>
			<point x="340.2" y="863" type="curve" smooth="yes"/>
			<point x="276.12" y="863"/>
			<point x="229.4" y="811.5333333333"/>
			<point x="229.4" y="750.0666666667" type="curve" smooth="yes"/>
			<point x="229.4" y="706.6"/>
			<point x="259.8666666667" y="673.88"/>
			<point x="307.5733333333" y="673.88" type="curve" smooth="yes"/>
			<point x="371.6533333333" y="673.88"/>
			<point x="418.3733333333" y="725.3466666667"/>
			<point x="418.3733333333" y="786.8133333333" type="curve" smooth="yes"/>
			<point x="418.3733333333" y="830.28"/>
			<point x="387.9066666667" y="863"/>
		</contour>
	</outline>
</glyph>
<glyph name="semicolon" format="2">
	<unicode hex="003B"/>
	<advance width="477.6533333333"/>
	<outline>
		<contour>
			<point x="-108.84" y="-277.6933333333" type="curve"/>
			<point x="-88.9866666667" y="-313.4" type="line"/>
			<point x="151.4933333333" y="-163.8533333333"/>
			<point x="230.4933333333" y="-28.9866666667"/>
			<point x="230.4933333333" y="82.44" type="curve" smooth="yes"/>
			<point x="230.4933333333" y="142.1466666667"/>
			<point x="196.0266666667" y="174.12"/>
			<point x="149.44" y="174.12" type="curve" smooth="yes"/>
			<point x="86.8666666667" y="174.12"/>
			<point x="48.0266666667" y="128.64"/>
			<point x="48.0266666667" y="82.2133333333" type="curve" smooth="yes"/>
			<point x="48.0266666667" y="51.6"/>
			<point x="114.9733333333" y="40"/>
			<point x="114.9733333333" y="-21.6" type="curve" smooth="yes"/>
			<point x="114.9733333333" y="-84.5866666667"/>
			<point x="66.6133333333" y="-168.2"/>
		</contour>
		<contour>
			<point x="361.9866666667" y="863" type="curve" smooth="yes"/>
			<point x="297.9066666667" y="863"/>
			<point x="251.1866666667" y="811.5333333333"/>
			<point x="251.1866666667" y="750.0666666667" type="curve" smooth="yes"/>
			<point x="251.1866666667" y="706.6"/>
			<point x="281.6533333333" y="673.88"/>
			<point x="329.36" y="673.88" type="curve" smooth="yes"/>
			<point x="393.44" y="673.88"/>
			<point x="440.16" y="725.3466666667"/>
			<point x="440.16" y="786.8133333333" type="curve" smooth="yes"/>
			<point x="440.16" y="830.28"/>
			<point x="409.6933333333" y="863"/>
		</contour>
	</outline>
</glyph>
<glyph name="less" format="2">
	<unicode hex="003C"/>
	<advance width="1000"/>
	<outline>
		<contour>
			<point x="107.9333333333" y="419.6266666667" type="line"/>
			<point x="1064.28" y="817.4533333333" type="line"/>
			<point x="1086.88" y="892" type="line"/>
			<point x="55.12" y="460.4666666667" type="line"/>
			<point x="40.0133333333" y="410.28" type="line"/>
			<point x="808.88" y="-20" type="line"/>
			<point x="827.36" y="42.3066666667" type="line"/>
			<point x="113.9333333333" y="438.2533333333" type="line"/>
		</contour>
	</outline>
</glyph>
<glyph name="greater" format="2">
	<unicode hex="003E"/>
	<advance width="1000"/>
	<outline>
		<contour>
			<point x="897.9466666667" y="452.7466666667" type="line"/>
			<point x="-58.4" y="54.92" type="line"/>
			<point x="-81" y="-20" type="line"/>
			<point x="950.76" y="411.5333333333" type="line"/>
			<point x="965.8666666667" y="461.72" type="line"/>
			<point x="197" y="892" type="line"/>
			<point x="178.52" y="830.0666666667" type="line"/>
			<point x="891.9466666667" y="434.12" type="line"/>
		</contour>
	</outline>
</glyph>
<glyph name="question" format="2">
	<unicode hex="003F"/>
	<advance width="845.88"/>
	<outline>
		<contour>
			<point x="261.6666666667" y="174.4933333333" type="curve" smooth="yes"/>
			<point x="197.5866666667" y="174.4933333333"/>
			<point x="150.8666666667" y="123.0266666667"/>
			<point x="150.8666666667" y="61.56" type="curve" smooth="yes"/>
			<point x="150.8666666667" y="18.0933333333"/>
			<point x="181.3333333333" y="-14.6266666667"/>
			<point x="229.04" y="-14.6266666667" type="curve" smooth="yes"/>
			<point x="293.12" y="-14.6266666667"/>
			<point x="339.84" y="36.84"/>
			<point x="339.84" y="98.3066666667" type="curve" smooth="yes"/>
			<point x="339.84" y="141.7733333333"/>
			<point x="309.3733333333" y="174.4933333333"/>
		</contour>
		<contour>
			<point x="501.3066666667" y="1360" type="curve" smooth="yes"/>
			<point x="354.24" y="1360"/>
			<point x="318.7733333333" y="1322.0266666667"/>
			<point x="318.7733333333" y="1275.6933333333" type="curve" smooth="yes"/>
			<point x="318.7733333333" y="1245.72"/>
			<point x="339.5066666667" y="1223.36"/>
			<point x="378.8666666667" y="1223.36" type="curve" smooth="yes"/>
			<point x="440.5866666667" y="1223.36"/>
			<point x="469.72" y="1284.8266666667"/>
			<point x="595.2933333333" y="1284.8266666667" type="curve" smooth="yes"/>
			<point x="715.44" y="1284.8266666667"/>
			<point x="832.4266666667" y="1162.92"/>
			<point x="832.4266666667" y="998.8266666667" type="curve" smooth="yes"/>
			<point x="832.4266666667" y="810.72"/>
			<point x="721.5866666667" y="704.16"/>
			<point x="381.0133333333" y="731.44" type="curve"/>
			<point x="312.44" y="396" type="line"/>
			<point x="344.04" y="396" type="line"/>
			<point x="454.0533333333" y="716.44" type="line"/>
			<point x="385.7466666667" y="641.04" type="line"/>
			<point x="775.2666666667" y="613.5066666667"/>
			<point x="893.6266666667" y="758.5066666667"/>
			<point x="893.6266666667" y="973.6" type="curve" smooth="yes"/>
			<point x="893.6266666667" y="1191.24"/>
			<point x="711.4533333333" y="1360"/>
		</contour>
	</outline>
</glyph>
<glyph name="at" format="2">
	<unicode hex="0040"/>
	<advance width="1803.0133333333"/>
	<outline>
		<contour>
			<point x="1304.48" y="248.3333333333" type="curve" smooth="yes"/>
			<point x="1231.16" y="248.3333333333"/>
			<point x="1182.1066666667" y="283.3733333333"/>
			<point x="1182.1066666667" y="373.0666666667" type="curve" smooth="yes"/>
			<point x="1182.1066666667" y="420.5733333333"/>
			<point x="1194.2266666667" y="484.6933333333"/>
			<point x="1222.0933333333" y="567.7866666667" type="curve" smooth="yes"/>
			<point x="1365.4666666667" y="999" type="line"/>
			<point x="1266.0933333333" y="999" type="line"/>
			<point x="1240.4666666667" y="922.88" type="line"/>
			<point x="1181.9066666667" y="743.84" type="line" smooth="yes"/>
			<point x="1076.8" y="425.9066666667"/>
			<point x="876.5866666667" y="272.28"/>
			<point x="786.8266666667" y="272.28" type="curve" smooth="yes"/>
			<point x="722.6533333333" y="272.28"/>
			<point x="691.0266666667" y="314.44"/>
			<point x="691.0266666667" y="391.2533333333" type="curve" smooth="yes"/>
			<point x="691.0266666667" y="599.16"/>
			<point x="895.32" y="965.4533333333"/>
			<point x="1104.36" y="965.4533333333" type="curve" smooth="yes"/>
			<point x="1157.88" y="965.4533333333"/>
			<point x="1200.5466666667" y="943.9733333333"/>
			<point x="1234.1066666667" y="892.04" type="curve"/>
			<point x="1257.44" y="922.36" type="line"/>
			<point x="1214.56" y="980.7733333333"/>
			<point x="1167.04" y="1010.7733333333"/>
			<point x="1093.9066666667" y="1010.7733333333" type="curve" smooth="yes"/>
			<point x="832.88" y="1010.7733333333"/>
			<point x="579.4266666667" y="633.4533333333"/>
			<point x="579.4266666667" y="385.52" type="curve" smooth="yes"/>
			<point x="579.4266666667" y="268.4266666667"/>
			<point x="631" y="199.2533333333"/>
			<point x="743.7733333333" y="199.2533333333" type="curve" smooth="yes"/>
			<point x="839.1466666667" y="199.2533333333"/>
			<point x="960.0666666667" y="275.8533333333"/>
			<point x="1139.0533333333" y="558.8933333333" type="curve"/>
			<point x="1123.96" y="558.8933333333" type="line"/>
			<point x="1106.3333333333" y="491.88" type="line" smooth="yes"/>
			<point x="1095.3466666667" y="450.1733333333"/>
			<point x="1089.1066666667" y="411.8266666667"/>
			<point x="1089.1066666667" y="379.3466666667" type="curve" smooth="yes"/>
			<point x="1089.1066666667" y="268.1866666667"/>
			<point x="1155.1333333333" y="202.3866666667"/>
			<point x="1294.7333333333" y="202.3866666667" type="curve" smooth="yes"/>
			<point x="1563.24" y="202.3866666667"/>
			<point x="1805.8533333333" y="472.7066666667"/>
			<point x="1805.8533333333" y="845.0666666667" type="curve" smooth="yes"/>
			<point x="1805.8533333333" y="1172.12"/>
			<point x="1572.2" y="1418.6266666667"/>
			<point x="1152.12" y="1418.6266666667" type="curve" smooth="yes"/>
			<point x="550.7333333333" y="1418.6266666667"/>
			<point x="116.7733333333" y="934.4133333333"/>
			<point x="116.7733333333" y="389.52" type="curve" smooth="yes"/>
			<point x="116.7733333333" y="-20.8933333333"/>
			<point x="400.88" y="-255.3733333333"/>
			<point x="829.6666666667" y="-255.3733333333" type="curve" smooth="yes"/>
			<point x="1077.8266666667" y="-255.3733333333"/>
			<point x="1296.7733333333" y="-179.5066666667"/>
			<point x="1488.16" y="-61.8666666667" type="curve"/>
			<point x="1465.9333333333" y="-21.9066666667" type="line"/>
			<point x="1262.1466666667" y="-144.6666666667"/>
			<point x="1047.3733333333" y="-198.0533333333"/>
			<point x="845.9733333333" y="-198.0533333333" type="curve" smooth="yes"/>
			<point x="448.0666666667" y="-198.0533333333"/>
			<point x="216.1466666667" y="28.1733333333"/>
			<point x="216.1466666667" y="395.5066666667" type="curve" smooth="yes"/>
			<point x="216.1466666667" y="910.1333333333"/>
			<point x="583.88" y="1364.0533333333"/>
			<point x="1146.52" y="1364.0533333333" type="curve" smooth="yes"/>
			<point x="1528.3066666667" y="1364.0533333333"/>
			<point x="1721.48" y="1116.6933333333"/>
			<point x="1721.48" y="821.32" type="curve" smooth="yes"/>
			<point x="1721.48" y="484.5733333333"/>
			<point x="1525.64" y="248.3333333333"/>
		</contour>
	</outline>
</glyph>
<glyph name="A" format="2">
	<unicode hex="0041"/>
	<advance width="1299.0933333333"/>
	<outline>
		<contour>
			<point x="393.32" y="536.3333333333" type="line"/>
			<point x="968.0533333333" y="536.3333333333" type="line"/>
			<point x="987.28" y="593.2666666667" type="line"/>
			<point x="413.1733333333" y="593.2666666667" type="line"/>
		</contour>
		<contour>
			<point x="1053.9066666667" y="63.0666666667" type="line"/>
			<point x="944.2133333333" y="1360" type="line"/>
			<point x="914.88" y="1360" type="line"/>
			<point x="50.1466666667" y="62.32" type="line"/>
			<point x="-117.6133333333" y="27.9733333333" type="line"/>
			<point x="-125.48" y="0" type="line"/>
			<point x="263.72" y="0" type="line"/>
			<point x="272.2133333333" y="27.9733333333" type="line"/>
			<point x="122.0533333333" y="62.32" type="line"/>
			<point x="900.2666666667" y="1238.8666666667" type="line"/>
			<point x="859.8266666667" y="1238.8666666667" type="line"/>
			<point x="953.2933333333" y="62.32" type="line"/>
			<point x="780.0666666667" y="27.9733333333" type="line"/>
			<point x="771.5733333333" y="0" type="line"/>
			<point x="1190.9733333333" y="0" type="line"/>
			<point x="1199.4666666667" y="27.9733333333" type="line"/>
		</contour>
	</outline>
	<anchor name="UCtop" x="905.08" y="1340"/>
	<anchor name="bottom" x="536.8133333333" y="0"/>
	<anchor name="right" x="1085.0133333333" y="0"/>
</glyph>
<glyph name="B" format="2">
	<unicode hex="0042"/>
	<advance width="1142.8133333333"/>
	<outline>
		<contour>
			<point x="561.2" y="1280.8266666667" type="line"/>
			<point x="777.9333333333" y="1280.8266666667" type="line" smooth="yes"/>
			<point x="963.6533333333" y="1280.8266666667"/>
			<point x="1048.5466666667" y="1209.0533333333"/>
			<point x="1048.5466666667" y="1079.2666666667" type="curve" smooth="yes"/>
			<point x="1048.5466666667" y="884.9866666667"/>
			<point x="908.04" y="741.84"/>
			<point x="651.6533333333" y="741.84" type="curve" smooth="yes"/>
			<point x="398.4133333333" y="741.84" type="line"/>
			<point x="377.1866666667" y="682.6666666667" type="line"/>
			<point x="625.5466666667" y="682.6666666667" type="line" smooth="yes"/>
			<point x="850.1733333333" y="682.6666666667"/>
			<point x="933.9466666667" y="590.2533333333"/>
			<point x="933.9466666667" y="452.5866666667" type="curve" smooth="yes"/>
			<point x="933.9466666667" y="209.6666666667"/>
			<point x="772.44" y="59.1733333333"/>
			<point x="437.6666666667" y="59.1733333333" type="curve" smooth="yes"/>
			<point x="189.52" y="59.1733333333" type="line"/>
			<point x="169.92" y="0" type="line"/>
			<point x="471.5333333333" y="0" type="line" smooth="yes"/>
			<point x="852.16" y="0"/>
			<point x="1041.2933333333" y="197.7866666667"/>
			<point x="1041.2933333333" y="448.2266666667" type="curve" smooth="yes"/>
			<point x="1041.2933333333" y="590.7973818182"/>
			<point x="952.0545194168" y="697.3028211975"/>
			<point x="765.08" y="719.36" type="curve"/>
			<point x="768.3066666667" y="707.4933333333" type="line"/>
			<point x="1022.1919737741" y="743.3240565851"/>
			<point x="1148.1733333333" y="902.2143589744"/>
			<point x="1148.1733333333" y="1083.5066666667" type="curve" smooth="yes"/>
			<point x="1148.1733333333" y="1221"/>
			<point x="1058.1866666667" y="1340"/>
			<point x="810.16" y="1340" type="curve" smooth="yes"/>
			<point x="578.92" y="1340" type="line"/>
		</contour>
		<contour>
			<point x="498.3866666667" y="1274.6933333333" type="line"/>
			<point x="128.0933333333" y="65.3066666667" type="line"/>
			<point x="-39.16" y="28.3466666667" type="line"/>
			<point x="-47.4" y="0" type="line"/>
			<point x="210.1066666667" y="0" type="line"/>
			<point x="620.1066666667" y="1340" type="line"/>
			<point x="356.96" y="1340" type="line"/>
			<point x="348.72" y="1311.6533333333" type="line"/>
		</contour>
	</outline>
	<anchor name="UCtop" x="793.12" y="1340"/>
	<anchor name="bottom" x="475.4533333333" y="0"/>
</glyph>
<glyph name="C" format="2">
	<unicode hex="0043"/>
	<advance width="1306.68"/>
	<outline>
		<contour>
			<point x="1045.5066666667" y="109.1066666667" type="line"/>
			<point x="942" y="53.44"/>
			<point x="822.0533333333" y="35.8"/>
			<point x="711.6533333333" y="35.8" type="curve" smooth="yes"/>
			<point x="446.92" y="35.8"/>
			<point x="273.3733333333" y="197.56"/>
			<point x="273.3733333333" y="518.4666666667" type="curve" smooth="yes"/>
			<point x="273.3733333333" y="948.7733333333"/>
			<point x="560.28" y="1300.0666666667"/>
			<point x="1000.4933333333" y="1300.0666666667" type="curve" smooth="yes"/>
			<point x="1125.24" y="1300.0666666667"/>
			<point x="1223.2933333333" y="1273.68"/>
			<point x="1319.5333333333" y="1196.6533333333" type="curve"/>
			<point x="1260.5066666667" y="1260.08" type="line"/>
			<point x="1312.8666666667" y="948.5333333333" type="line"/>
			<point x="1344.2133333333" y="948.5333333333" type="line"/>
			<point x="1398.2533333333" y="1390.48" type="line"/>
			<point x="1387.52" y="1390.48" type="line"/>
			<point x="1283.2533333333" y="1311.24" type="line"/>
			<point x="1342.2533333333" y="1306.7333333333" type="line"/>
			<point x="1240.12" y="1345.6133333333"/>
			<point x="1150.7733333333" y="1360"/>
			<point x="1038.6266666667" y="1360" type="curve" smooth="yes"/>
			<point x="539.4933333333" y="1360"/>
			<point x="160.76" y="994.9866666667"/>
			<point x="160.76" y="500.7466666667" type="curve" smooth="yes"/>
			<point x="160.76" y="168.0933333333"/>
			<point x="367.76" y="-20"/>
			<point x="714.5466666667" y="-20" type="curve" smooth="yes"/>
			<point x="834.76" y="-20"/>
			<point x="991.9866666667" y="5.6133333333"/>
			<point x="1103.5066666667" y="46.48" type="curve"/>
			<point x="1217.92" y="320.7866666667" type="line"/>
			<point x="1184.7066666667" y="320.7866666667" type="line"/>
			<point x="979.08" y="57.44" type="line"/>
		</contour>
	</outline>
	<anchor name="UCtop" x="988.16" y="1340"/>
	<anchor name="bottom" x="674.3866666667" y="0"/>
	<anchor name="right" x="1180.52" y="0"/>
</glyph>
<glyph name="D" format="2">
	<unicode hex="0044"/>
	<advance width="1402.3466666667"/>
	<outline>
		<contour>
			<point x="449.0933333333" y="59.1733333333" type="curve" smooth="yes"/>
			<point x="151" y="59.1733333333" type="line"/>
			<point x="142.0533333333" y="0" type="line"/>
			<point x="470.7733333333" y="0" type="line" smooth="yes"/>
			<point x="1059.9733333333" y="0"/>
			<point x="1388.0933333333" y="364"/>
			<point x="1388.0933333333" y="835.04" type="curve" smooth="yes"/>
			<point x="1388.0933333333" y="1156.7333333333"/>
			<point x="1193.5866666667" y="1340"/>
			<point x="782.6133333333" y="1340" type="curve" smooth="yes"/>
			<point x="552.0533333333" y="1340" type="line"/>
			<point x="521.1733333333" y="1280.8266666667" type="line"/>
			<point x="736.88" y="1280.8266666667" type="line" smooth="yes"/>
			<point x="1107.3333333333" y="1280.8266666667"/>
			<point x="1276.12" y="1130.8266666667"/>
			<point x="1276.12" y="827.1333333333" type="curve" smooth="yes"/>
			<point x="1276.12" y="427.1466666667"/>
			<point x="1034.7466666667" y="59.1733333333"/>
		</contour>
		<contour>
			<point x="498.76" y="1277.68" type="line"/>
			<point x="128.0933333333" y="63.44" type="line"/>
			<point x="-37.6666666667" y="27.9733333333" type="line"/>
			<point x="-45.9066666667" y="0" type="line"/>
			<point x="210.8533333333" y="0" type="line"/>
			<point x="619.36" y="1340" type="line"/>
			<point x="355.4666666667" y="1340" type="line"/>
			<point x="347.2266666667" y="1312.0266666667" type="line"/>
		</contour>
	</outline>
	<anchor name="UCtop" x="956.5466666667" y="1340"/>
	<anchor name="bottom" x="552.48" y="0"/>
</glyph>
<glyph name="E" format="2">
	<unicode hex="0045"/>
	<advance width="1175.16"/>
	<outline>
		<contour>
			<point x="498.76" y="1277.68" type="line"/>
			<point x="128.0933333333" y="63.44" type="line"/>
			<point x="-37.6666666667" y="27.9733333333" type="line"/>
			<point x="-45.9066666667" y="0" type="line"/>
			<point x="210.8533333333" y="0" type="line"/>
			<point x="619.36" y="1340" type="line"/>
			<point x="355.4666666667" y="1340" type="line"/>
			<point x="347.2266666667" y="1312.0266666667" type="line"/>
		</contour>
		<contour>
			<point x="1151.7733333333" y="1297.32" type="line"/>
			<point x="1190.48" y="986.4533333333" type="line"/>
			<point x="1222.8133333333" y="987.08" type="line"/>
			<point x="1280.5333333333" y="1381.48" type="line"/>
			<point x="1269.2933333333" y="1381.48" type="line"/>
			<point x="1176.4933333333" y="1340" type="line"/>
			<point x="540.7733333333" y="1340" type="line"/>
			<point x="521.1733333333" y="1280.8266666667" type="line"/>
			<point x="1194.6533333333" y="1280.8266666667" type="line"/>
		</contour>
		<contour>
			<point x="884.28" y="-50.8533333333" type="line"/>
			<point x="894.8933333333" y="-50.8533333333" type="line"/>
			<point x="1101.4133333333" y="346.2133333333" type="line"/>
			<point x="1076.44" y="360.9466666667" type="line"/>
			<point x="792.3466666667" y="36.04" type="line"/>
			<point x="866.96" y="59.1733333333" type="line"/>
			<point x="150.3733333333" y="59.1733333333" type="line"/>
			<point x="130.7733333333" y="0" type="line"/>
			<point x="810.84" y="0" type="line"/>
		</contour>
		<contour>
			<point x="806.8933333333" y="436.6133333333" type="line"/>
			<point x="879.3733333333" y="701.7466666667" type="line"/>
			<point x="969.4" y="967.5066666667" type="line"/>
			<point x="927.8533333333" y="967.5066666667" type="line"/>
			<point x="817.2933333333" y="737.2266666667" type="line"/>
			<point x="385.0933333333" y="729.7066666667" type="line"/>
			<point x="367.24" y="673.7866666667" type="line"/>
			<point x="796.9333333333" y="668.1466666667" type="line"/>
			<point x="765.3466666667" y="436.6133333333" type="line"/>
		</contour>
	</outline>
	<anchor name="UCtop" x="835.6133333333" y="1340"/>
	<anchor name="right" x="845.12" y="0"/>
	<anchor name="bottom" x="514.4533333333" y="0"/>
</glyph>
<glyph name="F" format="2">
  <advance width="1054.8533333333332"/>
  <unicode hex="0046"/>
  <anchor x="817.1066666666667" y="1340.0" name="UCtop"/>
  <anchor x="163.28" y="0.0" name="bottom"/>
  <outline>
    <contour>
      <point x="960.6133333333333" y="937.5066666666667" type="line"/>
      <point x="919.0666666666667" y="937.5066666666667" type="line"/>
      <point x="808.5066666666667" y="707.2266666666667" type="line"/>
      <point x="380.06666666666666" y="699.7066666666667" type="line"/>
      <point x="362.2133333333333" y="643.7866666666666" type="line"/>
      <point x="788.1466666666666" y="638.1466666666666" type="line"/>
      <point x="756.56" y="406.61333333333334" type="line"/>
      <point x="798.1066666666667" y="406.61333333333334" type="line"/>
      <point x="870.5866666666667" y="671.7466666666667" type="line"/>
    </contour>
    <contour>
      <point x="1176.2533333333333" y="987.08" type="line"/>
      <point x="1233.9733333333334" y="1381.48" type="line"/>
      <point x="1222.7333333333333" y="1381.48" type="line"/>
      <point x="1129.9333333333334" y="1340.0" type="line"/>
      <point x="540.7733333333333" y="1340.0" type="line"/>
      <point x="521.1733333333333" y="1280.8266666666666" type="line"/>
      <point x="1148.0933333333332" y="1280.8266666666666" type="line"/>
      <point x="1105.2133333333334" y="1297.32" type="line"/>
      <point x="1143.92" y="986.4533333333334" type="line"/>
    </contour>
    <contour>
      <point x="229.58666666666667" y="62.32" type="line"/>
      <point x="619.36" y="1340.0" type="line"/>
      <point x="355.46666666666664" y="1340.0" type="line"/>
      <point x="347.2266666666667" y="1312.0266666666666" type="line"/>
      <point x="498.76" y="1277.68" type="line"/>
      <point x="128.09333333333333" y="63.44" type="line"/>
      <point x="-37.66666666666667" y="27.973333333333333" type="line"/>
      <point x="-45.906666666666666" y="0.0" type="line"/>
      <point x="372.88" y="0.0" type="line"/>
      <point x="381.12" y="27.973333333333333" type="line"/>
    </contour>
  </outline>
</glyph>
<glyph name="G" format="2">
  <advance width="1387.64"/>
  <unicode hex="0047"/>
  <anchor x="967.04" y="1340.0" name="UCtop"/>
  <anchor x="665.5866666666667" y="0.0" name="bottom"/>
  <outline>
    <contour>
      <point x="710.9066666666666" y="35.8" type="curve" smooth="yes"/>
      <point x="446.17333333333335" y="35.8"/>
      <point x="272.62666666666667" y="197.56"/>
      <point x="272.62666666666667" y="518.4666666666667" type="curve" smooth="yes"/>
      <point x="272.62666666666667" y="948.7733333333333"/>
      <point x="560.3866666666667" y="1300.0666666666666"/>
      <point x="1002.0666666666667" y="1300.0666666666666" type="curve" smooth="yes"/>
      <point x="1124.3066666666666" y="1300.0666666666666"/>
      <point x="1219.8533333333332" y="1273.0533333333333"/>
      <point x="1314.84" y="1196.6533333333334" type="curve"/>
      <point x="1255.8133333333333" y="1260.08" type="line"/>
      <point x="1308.1733333333334" y="948.5333333333333" type="line"/>
      <point x="1339.52" y="948.5333333333333" type="line"/>
      <point x="1393.56" y="1390.48" type="line"/>
      <point x="1382.8266666666666" y="1390.48" type="line"/>
      <point x="1278.56" y="1311.24" type="line"/>
      <point x="1337.56" y="1306.7333333333333" type="line"/>
      <point x="1237.3066666666666" y="1344.9866666666667"/>
      <point x="1149.84" y="1360.0"/>
      <point x="1040.2" y="1360.0" type="curve" smooth="yes"/>
      <point x="539.9733333333334" y="1360.0"/>
      <point x="160.01333333333332" y="994.9866666666667"/>
      <point x="160.01333333333332" y="500.74666666666667" type="curve" smooth="yes"/>
      <point x="160.01333333333332" y="168.09333333333333"/>
      <point x="367.0133333333333" y="-20.0"/>
      <point x="713.8" y="-20.0" type="curve" smooth="yes"/>
      <point x="869.44" y="-20.0"/>
      <point x="1021.8" y="11.386666666666667"/>
      <point x="1153.68" y="66.0" type="curve"/>
      <point x="1154.9333333333334" y="68.50666666666666" type="line"/>
      <point x="1134.9733333333334" y="131.25333333333333" type="line"/>
      <point x="1257.6533333333334" y="535.56" type="line"/>
      <point x="1388.0133333333333" y="571.0266666666666" type="line"/>
      <point x="1397.5066666666667" y="599.0" type="line"/>
      <point x="978.72" y="599.0" type="line"/>
      <point x="969.2266666666667" y="571.0266666666666" type="line"/>
      <point x="1156.16" y="536.68" type="line"/>
      <point x="1008.64" y="53.24" type="line"/>
      <point x="1074.28" y="131.88" type="line"/>
      <point x="976.0" y="66.13333333333333"/>
      <point x="827.28" y="35.8"/>
    </contour>
  </outline>
</glyph>
<glyph name="H" format="2">
	<unicode hex="0048"/>
	<advance width="1439.32"/>
	<outline>
		<contour>
			<point x="339.56" y="657.1733333333" type="line"/>
			<point x="1238.92" y="657.1733333333" type="line"/>
			<point x="1257.7733333333" y="716.3466666667" type="line"/>
			<point x="358.4133333333" y="716.3466666667" type="line"/>
		</contour>
		<contour>
			<point x="498.76" y="1277.68" type="line"/>
			<point x="128.0933333333" y="63.44" type="line"/>
			<point x="-37.6666666667" y="27.9733333333" type="line"/>
			<point x="-45.9066666667" y="0" type="line"/>
			<point x="372.88" y="0" type="line"/>
			<point x="381.12" y="27.9733333333" type="line"/>
			<point x="229.5866666667" y="62.32" type="line"/>
			<point x="600.2533333333" y="1276.56" type="line"/>
			<point x="766.0133333333" y="1312.0266666667" type="line"/>
			<point x="774.2533333333" y="1340" type="line"/>
			<point x="355.4666666667" y="1340" type="line"/>
			<point x="347.2266666667" y="1312.0266666667" type="line"/>
		</contour>
		<contour>
			<point x="1358.6133333333" y="1277.68" type="line"/>
			<point x="987.9466666667" y="63.44" type="line"/>
			<point x="822.1866666667" y="27.9733333333" type="line"/>
			<point x="813.9466666667" y="0" type="line"/>
			<point x="1232.7333333333" y="0" type="line"/>
			<point x="1240.9733333333" y="27.9733333333" type="line"/>
			<point x="1089.44" y="62.32" type="line"/>
			<point x="1460.1066666667" y="1276.56" type="line"/>
			<point x="1625.8666666667" y="1312.0266666667" type="line"/>
			<point x="1634.1066666667" y="1340" type="line"/>
			<point x="1215.32" y="1340" type="line"/>
			<point x="1207.08" y="1312.0266666667" type="line"/>
		</contour>
	</outline>
	<anchor name="UCtop" x="974.9466666667" y="1340"/>
	<anchor name="bottom" x="592.08" y="0"/>
</glyph>
<glyph name="I" format="2">
	<unicode hex="0049"/>
	<advance width="579.4666666667"/>
	<outline>
		<contour>
			<point x="498.76" y="1277.68" type="line"/>
			<point x="128.0933333333" y="63.44" type="line"/>
			<point x="-37.6666666667" y="27.9733333333" type="line"/>
			<point x="-45.9066666667" y="0" type="line"/>
			<point x="372.88" y="0" type="line"/>
			<point x="381.12" y="27.9733333333" type="line"/>
			<point x="229.5866666667" y="62.32" type="line"/>
			<point x="600.2533333333" y="1276.56" type="line"/>
			<point x="766.0133333333" y="1312.0266666667" type="line"/>
			<point x="774.2533333333" y="1340" type="line"/>
			<point x="355.4666666667" y="1340" type="line"/>
			<point x="347.2266666667" y="1312.0266666667" type="line"/>
		</contour>
	</outline>
	<anchor name="UCtop" x="559.44" y="1340"/>
	<anchor name="right" x="258.5466666667" y="0"/>
	<anchor name="bottom" x="158.28" y="0"/>
</glyph>
<glyph name="J" format="2">
	<unicode hex="004A"/>
	<advance width="687.1866666667"/>
	<outline>
		<contour>
			<point x="468.3066666667" y="394.36" type="curve" smooth="yes"/>
			<point x="737.96" y="1276.56" type="line"/>
			<point x="903.72" y="1312.0266666667" type="line"/>
			<point x="911.96" y="1340" type="line"/>
			<point x="493.1733333333" y="1340" type="line"/>
			<point x="484.9333333333" y="1312.0266666667" type="line"/>
			<point x="636.4666666667" y="1277.68" type="line"/>
			<point x="337.3333333333" y="296.8" type="line" smooth="yes"/>
			<point x="284.9466666667" y="125.76"/>
			<point x="197.6933333333" y="52.9466666667"/>
			<point x="115.7066666667" y="52.9466666667" type="curve" smooth="yes"/>
			<point x="43.0279095981" y="52.9466666667"/>
			<point x="6.8933333333" y="113.7466666667"/>
			<point x="-27.32" y="113.7466666667" type="curve" smooth="yes"/>
			<point x="-65.2666666667" y="113.7466666667"/>
			<point x="-88.3733333333" y="88.9066666667"/>
			<point x="-88.3733333333" y="54.5466666667" type="curve" smooth="yes"/>
			<point x="-88.3733333333" y="11.9733333333"/>
			<point x="-46.8133333333" y="-17.4933333333"/>
			<point x="22.12" y="-17.4933333333" type="curve" smooth="yes"/>
			<point x="213.3866666667" y="-17.4933333333"/>
			<point x="386.0533333333" y="126.1066666667"/>
		</contour>
	</outline>
	<anchor name="UCtop" x="688.04" y="1340"/>
	<anchor name="bottom" x="200.0133333333" y="0"/>
</glyph>
<glyph name="K" format="2">
	<unicode hex="004B"/>
	<advance width="1286.7066666667"/>
	<outline>
		<contour>
			<point x="1038.6666666667" y="62.08" type="line"/>
			<point x="613.3866666667" y="746.2266666667" type="line"/>
			<point x="593.1866666667" y="684.1466666667" type="line"/>
			<point x="1321.7066666667" y="1276.0533333333" type="line"/>
			<point x="1484.2133333333" y="1312.0266666667" type="line"/>
			<point x="1492.08" y="1340" type="line"/>
			<point x="1100.12" y="1340" type="line"/>
			<point x="1092.2533333333" y="1312.0266666667" type="line"/>
			<point x="1239.16" y="1277.92" type="line"/>
			<point x="564.3466666667" y="727.3466666667" type="line"/>
			<point x="400.4" y="727.3466666667" type="line"/>
			<point x="381.1733333333" y="668.92" type="line"/>
			<point x="550.12" y="668.92" type="line"/>
			<point x="922.32" y="63.2" type="line"/>
			<point x="766.1733333333" y="27.9733333333" type="line"/>
			<point x="757.68" y="0" type="line"/>
			<point x="1176.96" y="0" type="line"/>
			<point x="1184.8266666667" y="27.9733333333" type="line"/>
		</contour>
		<contour>
			<point x="498.76" y="1277.68" type="line"/>
			<point x="128.0933333333" y="63.44" type="line"/>
			<point x="-37.6666666667" y="27.9733333333" type="line"/>
			<point x="-45.9066666667" y="0" type="line"/>
			<point x="372.88" y="0" type="line"/>
			<point x="381.12" y="27.9733333333" type="line"/>
			<point x="229.5866666667" y="62.32" type="line"/>
			<point x="600.2533333333" y="1276.56" type="line"/>
			<point x="766.0133333333" y="1312.0266666667" type="line"/>
			<point x="774.2533333333" y="1340" type="line"/>
			<point x="355.4666666667" y="1340" type="line"/>
			<point x="347.2266666667" y="1312.0266666667" type="line"/>
		</contour>
	</outline>
	<anchor name="UCtop" x="900.28" y="1340"/>
	<anchor name="bottom" x="592.7733333333" y="0"/>
</glyph>
<glyph name="L" format="2">
	<unicode hex="004C"/>
	<advance width="1078.2933333333"/>
	<outline>
		<contour>
			<point x="600.2533333333" y="1276.56" type="line"/>
			<point x="766.0133333333" y="1312.0266666667" type="line"/>
			<point x="774.2533333333" y="1340" type="line"/>
			<point x="355.4666666667" y="1340" type="line"/>
			<point x="347.2266666667" y="1312.0266666667" type="line"/>
			<point x="498.76" y="1277.68" type="line"/>
			<point x="128.0933333333" y="63.44" type="line"/>
			<point x="-37.6666666667" y="27.9733333333" type="line"/>
			<point x="-45.9066666667" y="0" type="line"/>
			<point x="210.8533333333" y="0" type="line"/>
		</contour>
		<contour>
			<point x="733.0133333333" y="36.04" type="line"/>
			<point x="807.6266666667" y="59.1733333333" type="line"/>
			<point x="172.24" y="59.1733333333" type="line"/>
			<point x="152.64" y="0" type="line"/>
			<point x="751.5066666667" y="0" type="line"/>
			<point x="824.9466666667" y="-50.8533333333" type="line"/>
			<point x="835.56" y="-50.8533333333" type="line"/>
			<point x="1023.9066666667" y="341.8266666667" type="line"/>
			<point x="998.9333333333" y="356.56" type="line"/>
		</contour>
	</outline>
	<anchor name="UCtop" x="557.9733333333" y="1340"/>
	<anchor name="right" x="863.8133333333" y="1340"/>
	<anchor name="bottom" x="460.3866666667" y="0"/>
	<anchor name="mid" x="907.4266666667" y="702"/>
</glyph>
<glyph name="M" format="2">
	<unicode hex="004D"/>
	<advance width="1778.5866666667"/>
	<outline>
		<contour>
			<point x="599.9866666667" y="1262.6666666667" type="line"/>
			<point x="578.8533333333" y="1242.88" type="line"/>
			<point x="702.2" y="-19.6266666667" type="line"/>
			<point x="733.1733333333" y="-19.6266666667" type="line"/>
			<point x="1689.3866666667" y="1313.1333333333" type="line"/>
			<point x="1694.4" y="1340" type="line"/>
			<point x="1639.5866666667" y="1340" type="line"/>
			<point x="743.24" y="86.8133333333" type="line"/>
			<point x="789.84" y="91.2" type="line"/>
			<point x="669.7333333333" y="1340" type="line"/>
			<point x="400.9866666667" y="1340" type="line"/>
			<point x="392.12" y="1312.0266666667" type="line"/>
			<point x="544.64" y="1267.56" type="line"/>
			<point x="98.6133333333" y="64.6933333333" type="line"/>
			<point x="-67.7733333333" y="27.9733333333" type="line"/>
			<point x="-76.64" y="0" type="line"/>
			<point x="301.08" y="0" type="line"/>
			<point x="309.9466666667" y="27.9733333333" type="line"/>
			<point x="158.4133333333" y="63.5733333333" type="line"/>
		</contour>
		<contour>
			<point x="1656.84" y="1340" type="line"/>
			<point x="1354.84" y="64.6933333333" type="line"/>
			<point x="1188.4533333333" y="27.9733333333" type="line"/>
			<point x="1180.2133333333" y="0" type="line"/>
			<point x="1598.4933333333" y="0" type="line"/>
			<point x="1606.7333333333" y="27.9733333333" type="line"/>
			<point x="1455.8266666667" y="63.5733333333" type="line"/>
			<point x="1737.6" y="1273.8133333333" type="line"/>
			<point x="1904.8533333333" y="1312.0266666667" type="line"/>
			<point x="1913.72" y="1340" type="line"/>
		</contour>
	</outline>
	<anchor name="UCtop" x="1122.8133333333" y="1340"/>
	<anchor name="bottom" x="734.1066666667" y="0"/>
</glyph>
<glyph name="N" format="2">
  <advance width="1406.64"/>
  <unicode hex="004E"/>
  <guideline x="604.36" y="1340.0" angle="338.23662411552505" identifier="DXeXo3z2m0"/>
  <anchor x="981.1066666666667" y="1340.0" name="UCtop"/>
  <anchor x="627.7866666666666" y="0.0" name="bottom"/>
  <outline>
    <contour>
      <point x="1065.5333333333333" y="129.61333333333334" type="line"/>
      <point x="606.24" y="1340.0" type="line"/>
      <point x="351.0" y="1340.0" type="line"/>
      <point x="342.50666666666666" y="1312.0266666666666" type="line"/>
      <point x="497.37333333333333" y="1265.6933333333334" type="line"/>
      <point x="129.70666666666668" y="63.44" type="line"/>
      <point x="-36.053333333333335" y="27.973333333333333" type="line"/>
      <point x="-44.29333333333334" y="0.0" type="line"/>
      <point x="333.3066666666667" y="0.0" type="line"/>
      <point x="341.5466666666667" y="27.973333333333333" type="line"/>
      <point x="190.01333333333332" y="62.32" type="line"/>
      <point x="561.2" y="1272.3866666666668" type="line"/>
      <point x="529.2133333333334" y="1269.9466666666667" type="line"/>
      <point x="1020.9333333333333" y="-20.0" type="line"/>
      <point x="1054.4133333333334" y="-20.0" type="line"/>
      <point x="1450.9333333333334" y="1276.56" type="line"/>
      <point x="1616.6933333333334" y="1312.0266666666666" type="line"/>
      <point x="1624.9333333333334" y="1340.0" type="line"/>
      <point x="1247.3333333333333" y="1340.0" type="line"/>
      <point x="1239.0933333333332" y="1312.0266666666666" type="line"/>
      <point x="1390.6266666666668" y="1277.68" type="line"/>
      <point x="1034.04" y="115.90666666666667" type="line"/>
    </contour>
  </outline>
</glyph>
<glyph name="O" format="2">
  <advance width="1453"/>
  <unicode hex="004F"/>
  <anchor x="984.56" y="1340.0" name="UCtop"/>
  <anchor x="605.4266666666666" y="0.0" name="bottom"/>
  <anchor x="709.56" y="0.0" name="right"/>
  <anchor x="1234.4933333333333" y="1340.0" name="horn"/>
  <outline>
    <contour>
      <point x="270.73333333333335" y="483.0933333333333" type="curve" smooth="yes"/>
      <point x="270.73333333333335" y="905.8133333333333"/>
      <point x="549.8533333333334" y="1303.8266666666666"/>
      <point x="937.8933333333333" y="1303.8266666666666" type="curve" smooth="yes"/>
      <point x="1199.2" y="1303.8266666666666"/>
      <point x="1330.8266666666666" y="1134.1466666666668"/>
      <point x="1330.8266666666666" y="856.9066666666666" type="curve" smooth="yes"/>
      <point x="1330.8266666666666" y="434.18666666666667"/>
      <point x="1051.7066666666667" y="36.17333333333333"/>
      <point x="663.6666666666666" y="36.17333333333333" type="curve" smooth="yes"/>
      <point x="402.36" y="36.17333333333333"/>
      <point x="270.73333333333335" y="205.85333333333332"/>
    </contour>
    <contour>
      <point x="1439.56" y="841.8133333333334" type="curve" smooth="yes"/>
      <point x="1439.56" y="1149.6"/>
      <point x="1266.8933333333334" y="1360.0"/>
      <point x="940.3866666666667" y="1360.0" type="curve" smooth="yes"/>
      <point x="489.48" y="1360.0"/>
      <point x="162.0" y="949.5733333333334"/>
      <point x="162.0" y="498.18666666666667" type="curve" smooth="yes"/>
      <point x="162.0" y="190.4"/>
      <point x="334.6666666666667" y="-20.0"/>
      <point x="661.1733333333333" y="-20.0" type="curve" smooth="yes"/>
      <point x="1112.08" y="-20.0"/>
      <point x="1439.56" y="390.4266666666667"/>
    </contour>
  </outline>
</glyph>
<glyph name="P" format="2">
	<unicode hex="0050"/>
	<advance width="1098.3733333333"/>
	<outline>
		<contour>
			<point x="618.88" y="653.0666666667" type="curve" smooth="yes"/>
			<point x="334.64" y="653.0666666667" type="line"/>
			<point x="319.8933333333" y="593.8933333333" type="line"/>
			<point x="638.8933333333" y="593.8933333333" type="line" smooth="yes"/>
			<point x="1014.9333333333" y="593.8933333333"/>
			<point x="1209.8666666667" y="801.32"/>
			<point x="1209.8666666667" y="1052.64" type="curve" smooth="yes"/>
			<point x="1209.8666666667" y="1217.0133333333"/>
			<point x="1100.8933333333" y="1340"/>
			<point x="817.6666666667" y="1340" type="curve" smooth="yes"/>
			<point x="549.3866666667" y="1340" type="line"/>
			<point x="524.9333333333" y="1280.8266666667" type="line"/>
			<point x="770.6266666667" y="1280.8266666667" type="line" smooth="yes"/>
			<point x="1013.7466666667" y="1280.8266666667"/>
			<point x="1104.0133333333" y="1193.56"/>
			<point x="1104.0133333333" y="1044.9333333333" type="curve" smooth="yes"/>
			<point x="1104.0133333333" y="817.8"/>
			<point x="951.7733333333" y="653.0666666667"/>
		</contour>
		<contour>
			<point x="229.5866666667" y="62.32" type="line"/>
			<point x="619.36" y="1340" type="line"/>
			<point x="355.4666666667" y="1340" type="line"/>
			<point x="347.2266666667" y="1312.0266666667" type="line"/>
			<point x="498.76" y="1277.68" type="line"/>
			<point x="128.0933333333" y="63.44" type="line"/>
			<point x="-37.6666666667" y="27.9733333333" type="line"/>
			<point x="-45.9066666667" y="0" type="line"/>
			<point x="372.88" y="0" type="line"/>
			<point x="381.12" y="27.9733333333" type="line"/>
		</contour>
	</outline>
	<anchor name="UCtop" x="827.56" y="1340"/>
	<anchor name="bottom" x="157.3066666667" y="0"/>
</glyph>
<glyph name="Q" format="2">
	<unicode hex="0051"/>
	<advance width="1451.56"/>
	<outline>
		<contour>
			<point x="788.84" y="-249" type="line" smooth="yes"/>
			<point x="960.04" y="-371.2666666667"/>
			<point x="1021.68" y="-393"/>
			<point x="1112.4666666667" y="-393" type="curve" smooth="yes"/>
			<point x="1179.0133333333" y="-393"/>
			<point x="1236.1333333333" y="-382.1333333333"/>
			<point x="1301.8266666667" y="-361.28" type="curve"/>
			<point x="1309.9466666667" y="-335.4266666667" type="line"/>
			<point x="1192.12" y="-350.04"/>
			<point x="1116.76" y="-348.1733333333"/>
			<point x="935.1466666667" y="-230.8266666667" type="curve" smooth="yes"/>
			<point x="541.5466666667" y="22.32" type="line"/>
			<point x="560.84" y="-7.2533333333" type="line"/>
			<point x="1071.5466666667" y="-73.5466666667"/>
			<point x="1439.56" y="365.7466666667"/>
			<point x="1439.56" y="841.8133333333" type="curve" smooth="yes"/>
			<point x="1439.56" y="1149.6"/>
			<point x="1266.8933333333" y="1360"/>
			<point x="940.3866666667" y="1360" type="curve" smooth="yes"/>
			<point x="489.48" y="1360"/>
			<point x="162" y="949.5733333333"/>
			<point x="162" y="498.1866666667" type="curve" smooth="yes"/>
			<point x="162" y="305.4666666667"/>
			<point x="227.8666666667" y="156.32"/>
			<point x="356.76" y="62.96" type="curve" smooth="yes"/>
		</contour>
		<contour>
			<point x="270.7333333333" y="483.0933333333" type="curve" smooth="yes"/>
			<point x="270.7333333333" y="905.8133333333"/>
			<point x="549.8533333333" y="1303.8266666667"/>
			<point x="937.8933333333" y="1303.8266666667" type="curve" smooth="yes"/>
			<point x="1199.2" y="1303.8266666667"/>
			<point x="1330.8266666667" y="1134.1466666667"/>
			<point x="1330.8266666667" y="856.9066666667" type="curve" smooth="yes"/>
			<point x="1330.8266666667" y="434.1866666667"/>
			<point x="1051.7066666667" y="36.1733333333"/>
			<point x="663.6666666667" y="36.1733333333" type="curve" smooth="yes"/>
			<point x="402.36" y="36.1733333333"/>
			<point x="270.7333333333" y="205.8533333333"/>
		</contour>
	</outline>
	<anchor name="UCtop" x="984.56" y="1340"/>
	<anchor name="bottom" x="533.72" y="-64.2133333333"/>
</glyph>
<glyph name="R" format="2">
	<unicode hex="0052"/>
	<advance width="1173.12"/>
	<outline>
		<contour>
			<point x="644.8933333333" y="712.6" type="curve" smooth="yes"/>
			<point x="338.3333333333" y="712.6" type="line"/>
			<point x="325.4933333333" y="653.4266666667" type="line"/>
			<point x="629.7066666667" y="653.4266666667" type="line" smooth="yes"/>
			<point x="720.2266666667" y="653.4266666667"/>
			<point x="748.9466666667" y="632.68"/>
			<point x="786.7333333333" y="472.5466666667" type="curve" smooth="yes"/>
			<point x="859.48" y="157.9866666667" type="line" smooth="yes"/>
			<point x="896.36" y="0.6133333333"/>
			<point x="919.72" y="-11.7466666667"/>
			<point x="1096.64" y="0" type="curve"/>
			<point x="1107.2533333333" y="35.08" type="line"/>
			<point x="1012.4666666667" y="34.7066666667"/>
			<point x="987.6133333333" y="48.4533333333"/>
			<point x="953.8533333333" y="190.1066666667" type="curve" smooth="yes"/>
			<point x="885.96" y="473.28" type="line" smooth="yes"/>
			<point x="851.7066666667" y="616.16"/>
			<point x="825.8533333333" y="673.1466666667"/>
			<point x="703.4933333333" y="679.1466666667" type="curve"/>
			<point x="703.4933333333" y="673.52" type="line"/>
			<point x="963.6666666667" y="694.0266666667"/>
			<point x="1137.08" y="850.4933333333"/>
			<point x="1137.08" y="1072.0133333333" type="curve" smooth="yes"/>
			<point x="1137.08" y="1239.7333333333"/>
			<point x="1037.6133333333" y="1340"/>
			<point x="772.0266666667" y="1340" type="curve" smooth="yes"/>
			<point x="511.7866666667" y="1340" type="line"/>
			<point x="506.1066666667" y="1280.8266666667" type="line"/>
			<point x="756.24" y="1280.8266666667" type="line" smooth="yes"/>
			<point x="944.3066666667" y="1280.8266666667"/>
			<point x="1028.4533333333" y="1203.4266666667"/>
			<point x="1028.4533333333" y="1064.64" type="curve" smooth="yes"/>
			<point x="1028.4533333333" y="859.5066666667"/>
			<point x="875.56" y="712.6"/>
		</contour>
		<contour>
			<point x="229.5866666667" y="62.32" type="line"/>
			<point x="619.36" y="1340" type="line"/>
			<point x="355.4666666667" y="1340" type="line"/>
			<point x="347.2266666667" y="1312.0266666667" type="line"/>
			<point x="498.76" y="1277.68" type="line"/>
			<point x="128.0933333333" y="63.44" type="line"/>
			<point x="-37.6666666667" y="27.9733333333" type="line"/>
			<point x="-45.9066666667" y="0" type="line"/>
			<point x="372.88" y="0" type="line"/>
			<point x="381.12" y="27.9733333333" type="line"/>
		</contour>
	</outline>
	<anchor name="UCtop" x="783.2" y="1340"/>
	<anchor name="bottom" x="587.9333333333" y="0"/>
</glyph>
<glyph name="S" format="2">
	<unicode hex="0053"/>
	<advance width="993.24"/>
	<outline>
		<contour>
			<point x="984.4133333333" y="1183.4933333333" type="curve"/>
			<point x="917.76" y="1274.2533333333" type="line"/>
			<point x="968.3466666667" y="954.1733333333" type="line"/>
			<point x="999.0666666667" y="954.1733333333" type="line"/>
			<point x="1056.8666666667" y="1390.48" type="line"/>
			<point x="1044.88" y="1390.48" type="line"/>
			<point x="938.1066666667" y="1307.48" type="line"/>
			<point x="995.8533333333" y="1304.8533333333" type="line"/>
			<point x="913.1466666667" y="1343.1066666667"/>
			<point x="835" y="1360"/>
			<point x="731.0933333333" y="1360" type="curve" smooth="yes"/>
			<point x="457" y="1360"/>
			<point x="303.8" y="1194.24"/>
			<point x="303.8" y="999.4266666667" type="curve" smooth="yes"/>
			<point x="303.8" y="835.4133333333"/>
			<point x="400.0933333333" y="764.7866666667"/>
			<point x="519.3333333333" y="694.7866666667" type="curve" smooth="yes"/>
			<point x="638.5733333333" y="625.16"/>
			<point x="789.6" y="567.24"/>
			<point x="789.6" y="374.5466666667" type="curve" smooth="yes"/>
			<point x="789.6" y="170.24"/>
			<point x="638.68" y="34.3066666667"/>
			<point x="378.52" y="34.3066666667" type="curve" smooth="yes"/>
			<point x="300.7333333333" y="34.3066666667"/>
			<point x="228.5466666667" y="44.0666666667"/>
			<point x="157.4" y="86.8666666667" type="curve"/>
			<point x="223.96" y="32.0666666667" type="line"/>
			<point x="108.44" y="369.08" type="line"/>
			<point x="76.84" y="369.08" type="line"/>
			<point x="92.3466666667" y="33.72" type="line"/>
			<point x="184.44" y="-6.88"/>
			<point x="255.4133333333" y="-20"/>
			<point x="375.5066666667" y="-20" type="curve" smooth="yes"/>
			<point x="679.9866666667" y="-20"/>
			<point x="880.2266666667" y="150"/>
			<point x="880.2266666667" y="408.16" type="curve" smooth="yes"/>
			<point x="880.2266666667" y="604.16"/>
			<point x="750.6666666667" y="681.64"/>
			<point x="628.3066666667" y="753.1466666667" type="curve" smooth="yes"/>
			<point x="505.5733333333" y="825.0266666667"/>
			<point x="391.4266666667" y="882.56"/>
			<point x="391.4266666667" y="1034.7733333333" type="curve" smooth="yes"/>
			<point x="391.4266666667" y="1190.3733333333"/>
			<point x="498.3066666667" y="1309.9466666667"/>
			<point x="705.2533333333" y="1309.9466666667" type="curve" smooth="yes"/>
			<point x="808.96" y="1309.9466666667"/>
			<point x="889.2666666667" y="1278.44"/>
		</contour>
	</outline>
	<anchor name="UCtop" x="714.84" y="1340"/>
	<anchor name="bottom" x="429.5733333333" y="0"/>
</glyph>
<glyph name="T" format="2">
	<unicode hex="0054"/>
	<advance width="1202.1866666667"/>
	<outline>
		<contour>
			<point x="1335.96" y="1278.5866666667" type="line"/>
			<point x="1278.2666666667" y="1291.9466666667" type="line"/>
			<point x="1296.4666666667" y="982.3866666667" type="line"/>
			<point x="1326.5733333333" y="982.3866666667" type="line"/>
			<point x="1411.5333333333" y="1405.4933333333" type="line"/>
			<point x="1398.92" y="1405.4933333333" type="line"/>
			<point x="1278.64" y="1327.76" type="line"/>
			<point x="1332.9333333333" y="1340" type="line"/>
			<point x="419" y="1340" type="line"/>
			<point x="468.7066666667" y="1327.76" type="line"/>
			<point x="391.76" y="1405.4933333333" type="line"/>
			<point x="379.1466666667" y="1405.4933333333" type="line"/>
			<point x="221.6266666667" y="991.1066666667" type="line"/>
			<point x="248.6" y="977.12" type="line"/>
			<point x="462.7066666667" y="1292.6933333333" type="line"/>
			<point x="376.7733333333" y="1278.5866666667" type="line"/>
		</contour>
		<contour>
			<point x="816.0533333333" y="1306.5733333333" type="line"/>
			<point x="436.5066666667" y="63.44" type="line"/>
			<point x="270.7466666667" y="27.9733333333" type="line"/>
			<point x="262.5066666667" y="0" type="line"/>
			<point x="681.2933333333" y="0" type="line"/>
			<point x="689.5333333333" y="27.9733333333" type="line"/>
			<point x="538" y="62.32" type="line"/>
			<point x="917.92" y="1306.5733333333" type="line"/>
		</contour>
	</outline>
	<anchor name="UCtop" x="862.92" y="1340"/>
	<anchor name="bottom" x="472.72" y="0"/>
</glyph>
<glyph name="U" format="2">
	<unicode hex="0055"/>
	<advance width="1400.64"/>
	<outline>
		<contour>
			<point x="351.3866666667" y="537.8133333333" type="curve" smooth="yes"/>
			<point x="577.3866666667" y="1276.56" type="line"/>
			<point x="743.1466666667" y="1312.0266666667" type="line"/>
			<point x="751.3866666667" y="1340" type="line"/>
			<point x="332.6" y="1340" type="line"/>
			<point x="324.36" y="1312.0266666667" type="line"/>
			<point x="475.8933333333" y="1277.68" type="line"/>
			<point x="253.7733333333" y="549.9466666667" type="line" smooth="yes"/>
			<point x="132.6266666667" y="154.6266666667"/>
			<point x="285.84" y="-20"/>
			<point x="608.8" y="-20" type="curve" smooth="yes"/>
			<point x="895.6666666667" y="-20"/>
			<point x="1098.3866666667" y="116.3733333333"/>
			<point x="1204.0133333333" y="462.7466666667" type="curve" smooth="yes"/>
			<point x="1452.16" y="1276.56" type="line"/>
			<point x="1617.92" y="1312.0266666667" type="line"/>
			<point x="1626.16" y="1340" type="line"/>
			<point x="1248.56" y="1340" type="line"/>
			<point x="1240.32" y="1312.0266666667" type="line"/>
			<point x="1391.8533333333" y="1277.68" type="line"/>
			<point x="1149.08" y="485.8666666667" type="line" smooth="yes"/>
			<point x="1053.32" y="172.5866666667"/>
			<point x="875.2133333333" y="56.9066666667"/>
			<point x="629" y="56.9066666667" type="curve" smooth="yes"/>
			<point x="346.5066666667" y="56.9066666667"/>
			<point x="252.6" y="214.6933333333"/>
		</contour>
	</outline>
	<anchor name="UCtop" x="987.5866666667" y="1340"/>
	<anchor name="right" x="712.16" y="0"/>
	<anchor name="bottom" x="591.12" y="0"/>
	<anchor name="horn" x="1494.4133333333" y="1340"/>
</glyph>
<glyph name="V" format="2">
	<unicode hex="0056"/>
	<advance width="1271.2266666667"/>
	<outline>
		<contour>
			<point x="394.32" y="1275.68" type="line"/>
			<point x="491.5066666667" y="-20" type="line"/>
			<point x="520.84" y="-20" type="line"/>
			<point x="1368.96" y="1276.4266666667" type="line"/>
			<point x="1535.4666666667" y="1312.0266666667" type="line"/>
			<point x="1543.96" y="1340" type="line"/>
			<point x="1152.88" y="1340" type="line"/>
			<point x="1144.3866666667" y="1312.0266666667" type="line"/>
			<point x="1296.4266666667" y="1276.4266666667" type="line"/>
			<point x="534.8266666667" y="101.1333333333" type="line"/>
			<point x="574.64" y="101.1333333333" type="line"/>
			<point x="493.68" y="1276.4266666667" type="line"/>
			<point x="666.28" y="1312.0266666667" type="line"/>
			<point x="674.7733333333" y="1340" type="line"/>
			<point x="256.6266666667" y="1340" type="line"/>
			<point x="248.1333333333" y="1312.0266666667" type="line"/>
		</contour>
	</outline>
	<anchor name="UCtop" x="898.4666666667" y="1340"/>
	<anchor name="bottom" x="544.5333333333" y="0"/>
</glyph>
<glyph name="W" format="2">
	<unicode hex="0057"/>
	<advance width="1762.8133333333"/>
	<outline>
		<contour>
			<point x="1786.7466666667" y="1275.3066666667" type="line"/>
			<point x="1160.1066666667" y="102.2533333333" type="line"/>
			<point x="1224.4" y="122.3333333333" type="line"/>
			<point x="1193.5333333333" y="1360" type="line"/>
			<point x="1162.8266666667" y="1360" type="line"/>
			<point x="378.4133333333" y="131" type="line"/>
			<point x="425.0266666667" y="137.2666666667" type="line"/>
			<point x="504.2933333333" y="1275.3066666667" type="line"/>
			<point x="680.28" y="1312.4" type="line"/>
			<point x="688.1466666667" y="1340" type="line"/>
			<point x="269.2533333333" y="1340" type="line"/>
			<point x="261.3866666667" y="1312.4" type="line"/>
			<point x="404.44" y="1274.56" type="line"/>
			<point x="317.56" y="-20" type="line"/>
			<point x="345.2666666667" y="-20" type="line"/>
			<point x="1137.3066666667" y="1213.96" type="line"/>
			<point x="1100.0266666667" y="1205" type="line"/>
			<point x="1128.2666666667" y="-20" type="line"/>
			<point x="1157.8533333333" y="-20" type="line"/>
			<point x="1858.4133333333" y="1275.3066666667" type="line"/>
			<point x="2024.9466666667" y="1312.4" type="line"/>
			<point x="2032.8133333333" y="1340" type="line"/>
			<point x="1643.8533333333" y="1340" type="line"/>
			<point x="1635.36" y="1312.4" type="line"/>
		</contour>
	</outline>
	<anchor name="UCtop" x="1153.6933333333" y="1340"/>
	<anchor name="bottom" x="750.96" y="0"/>
</glyph>
<glyph name="X" format="2">
	<unicode hex="0058"/>
	<advance width="1298.72"/>
	<outline>
		<contour>
			<point x="733.7466666667" y="666.6666666667" type="line"/>
			<point x="763.5866666667" y="684.0133333333" type="line"/>
			<point x="1356.4933333333" y="1275.0666666667" type="line"/>
			<point x="1519.3733333333" y="1312.0266666667" type="line"/>
			<point x="1528.24" y="1340" type="line"/>
			<point x="1137.2933333333" y="1340" type="line"/>
			<point x="1129.0533333333" y="1312.0266666667" type="line"/>
			<point x="1279.32" y="1276.56" type="line"/>
			<point x="736.7333333333" y="730.84" type="line"/>
			<point x="705.4" y="711.3733333333" type="line"/>
			<point x="47.4933333333" y="64.9333333333" type="line"/>
			<point x="-115.3866666667" y="27.9733333333" type="line"/>
			<point x="-123.6266666667" y="0" type="line"/>
			<point x="266.32" y="0" type="line"/>
			<point x="275.1866666667" y="27.9733333333" type="line"/>
			<point x="125.6666666667" y="63.44" type="line"/>
		</contour>
		<contour>
			<point x="931.8266666667" y="63.44" type="line"/>
			<point x="761.44" y="27.9733333333" type="line"/>
			<point x="752.5733333333" y="0" type="line"/>
			<point x="1175.84" y="0" type="line"/>
			<point x="1184.7066666667" y="27.9733333333" type="line"/>
			<point x="1036.68" y="64.1866666667" type="line"/>
			<point x="779.3066666667" y="725.4666666667" type="line"/>
			<point x="772.0666666667" y="743.32" type="line"/>
			<point x="565.6533333333" y="1277.3066666667" type="line"/>
			<point x="737.5333333333" y="1312.0266666667" type="line"/>
			<point x="745.7733333333" y="1340" type="line"/>
			<point x="322.5066666667" y="1340" type="line"/>
			<point x="313.64" y="1312.0266666667" type="line"/>
			<point x="460.4266666667" y="1276.56" type="line"/>
			<point x="694.2933333333" y="677.2933333333" type="line"/>
			<point x="701.4133333333" y="659.4266666667" type="line"/>
		</contour>
	</outline>
	<anchor name="UCtop" x="928.88" y="1340"/>
	<anchor name="bottom" x="519.88" y="0"/>
</glyph>
<glyph name="Y" format="2">
	<unicode hex="0059"/>
	<advance width="1260.36"/>
	<outline>
		<contour>
			<point x="1266.7866666667" y="1279.04" type="line"/>
			<point x="695.5866666667" y="611.5866666667" type="line"/>
			<point x="732.1866666667" y="611.4666666667" type="line"/>
			<point x="510.92" y="1277.1733333333" type="line"/>
			<point x="682.0533333333" y="1312.0266666667" type="line"/>
			<point x="690.2933333333" y="1340" type="line"/>
			<point x="266.5066666667" y="1340" type="line"/>
			<point x="258.2666666667" y="1312.0266666667" type="line"/>
			<point x="402.9333333333" y="1276.4266666667" type="line"/>
			<point x="637.3066666667" y="583.5066666667" type="line"/>
			<point x="478.5333333333" y="63.44" type="line"/>
			<point x="312.7733333333" y="27.9733333333" type="line"/>
			<point x="304.5333333333" y="0" type="line"/>
			<point x="723.32" y="0" type="line"/>
			<point x="731.56" y="27.9733333333" type="line"/>
			<point x="580.0266666667" y="62.32" type="line"/>
			<point x="739.92" y="586.12" type="line"/>
			<point x="1338.8266666667" y="1277.92" type="line"/>
			<point x="1505.48" y="1312.0266666667" type="line"/>
			<point x="1514.3466666667" y="1340" type="line"/>
			<point x="1124.64" y="1340" type="line"/>
			<point x="1115.7733333333" y="1312.0266666667" type="line"/>
		</contour>
	</outline>
	<anchor name="UCtop" x="891.76" y="1340"/>
	<anchor name="bottom" x="526.4933333333" y="0"/>
</glyph>
<glyph name="Z" format="2">
	<unicode hex="005A"/>
	<advance width="1175.0666666667"/>
	<outline>
		<contour>
			<point x="1350.6933333333" y="1340" type="line"/>
			<point x="524.7866666667" y="1340" type="line"/>
			<point x="446.4666666667" y="1394.6133333333" type="line"/>
			<point x="432.7333333333" y="1394.6133333333" type="line"/>
			<point x="247.52" y="985.4" type="line"/>
			<point x="270.8666666667" y="972.6666666667" type="line"/>
			<point x="526.04" y="1280.8266666667" type="line"/>
			<point x="1225.3466666667" y="1280.8266666667" type="line"/>
			<point x="1198.16" y="1299.8266666667" type="line"/>
			<point x="-14.36" y="16.8666666667" type="line"/>
			<point x="-19.7333333333" y="0" type="line"/>
			<point x="807.9733333333" y="0" type="line"/>
			<point x="892.6933333333" y="-42.1066666667" type="line"/>
			<point x="903.9333333333" y="-42.1066666667" type="line"/>
			<point x="1076.2933333333" y="333.0933333333" type="line"/>
			<point x="1047.9466666667" y="342.9733333333" type="line"/>
			<point x="810.2133333333" y="59.1733333333" type="line"/>
			<point x="118.16" y="59.1733333333" type="line"/>
			<point x="128.4266666667" y="38.92" type="line"/>
			<point x="1345.9466666667" y="1323.1333333333" type="line"/>
		</contour>
	</outline>
	<anchor name="UCtop" x="870.7466666667" y="1340"/>
	<anchor name="bottom" x="459.2133333333" y="0"/>
</glyph>
<glyph name="bracketleft" format="2">
	<unicode hex="005B"/>
	<advance width="550.08"/>
	<outline>
		<contour>
			<point x="-14.9866666667" y="-256.12" type="line"/>
			<point x="303.68" y="-256.12" type="line"/>
			<point x="319.6666666667" y="-204.92" type="line"/>
			<point x="90.2666666667" y="-204.92" type="line"/>
			<point x="564.92" y="1347.8" type="line"/>
			<point x="794.32" y="1347.8" type="line"/>
			<point x="810.0533333333" y="1399" type="line"/>
			<point x="490.3866666667" y="1399" type="line"/>
		</contour>
	</outline>
</glyph>
<glyph name="backslash" format="2">
	<unicode hex="005C"/>
	<advance width="720.08"/>
	<outline>
		<contour>
			<point x="532.9466666667" y="0" type="line"/>
			<point x="404.0666666667" y="1340" type="line"/>
			<point x="336.76" y="1340" type="line"/>
			<point x="466.0133333333" y="0" type="line"/>
		</contour>
	</outline>
</glyph>
<glyph name="bracketright" format="2">
	<unicode hex="005D"/>
	<advance width="550.5733333333"/>
	<outline>
		<contour>
			<point x="655.0666666667" y="1400" type="line"/>
			<point x="336.4" y="1400" type="line"/>
			<point x="320.4133333333" y="1348.8" type="line"/>
			<point x="549.8133333333" y="1348.8" type="line"/>
			<point x="75.16" y="-203.92" type="line"/>
			<point x="-154.24" y="-203.92" type="line"/>
			<point x="-169.9733333333" y="-255.12" type="line"/>
			<point x="149.6933333333" y="-255.12" type="line"/>
		</contour>
	</outline>
</glyph>
<glyph name="asciicircum" format="2">
  <advance width="1000.0"/>
  <unicode hex="005E"/>
  <outline>
    <contour>
      <point x="765.1466666666666" y="1285.48" type="line"/>
      <point x="850.56" y="592.0" type="line"/>
      <point x="911.2533333333333" y="592.0" type="line"/>
      <point x="809.2133333333334" y="1340.0" type="line"/>
      <point x="755.2933333333333" y="1340.0" type="line"/>
      <point x="199.25333333333333" y="592.0" type="line"/>
      <point x="270.93333333333334" y="592.0" type="line"/>
      <point x="780.04" y="1285.48" type="line"/>
    </contour>
  </outline>
</glyph>
<glyph name="a" format="2">
  <advance width="892"/>
  <unicode hex="0061"/>
  <anchor x="582.36" y="852.0" name="top"/>
  <anchor x="697.3066666666666" y="0.0" name="right"/>
  <anchor x="328.62666666666667" y="0.0" name="bottom"/>
  <outline>
    <contour>
      <point x="495.52" y="53.77333333333333" type="line" smooth="yes"/>
      <point x="477.50666666666666" y="1.6133333333333333"/>
      <point x="488.58666666666664" y="-20.0"/>
      <point x="549.3466666666667" y="-20.0" type="curve" smooth="yes"/>
      <point x="626.44" y="-20.0"/>
      <point x="727.32" y="29.986666666666665"/>
      <point x="867.56" y="182.46666666666667" type="curve"/>
      <point x="846.4533333333334" y="206.32" type="line"/>
      <point x="715.84" y="85.21333333333334"/>
      <point x="623.6133333333333" y="61.026666666666664"/>
      <point x="558.8666666666667" y="69.52" type="curve"/>
      <point x="579.6266666666667" y="41.54666666666667" type="line"/>
      <point x="840.6533333333333" y="852.0" type="line"/>
      <point x="794.3199999999999" y="852.0" type="line"/>
      <point x="734.1066666666667" y="800.6133333333333" type="line"/>
      <point x="652.2" y="531.4933333333333" type="line" smooth="yes"/>
      <point x="579.32" y="289.56"/>
      <point x="363.8" y="66.02666666666667"/>
      <point x="235.69333333333333" y="66.02666666666667" type="curve" smooth="yes"/>
      <point x="162.88" y="66.02666666666667"/>
      <point x="128.13333333333333" y="107.44"/>
      <point x="128.13333333333333" y="190.50666666666666" type="curve" smooth="yes"/>
      <point x="128.13333333333333" y="397.12"/>
      <point x="351.9866666666667" y="810.5733333333334"/>
      <point x="600.1333333333333" y="810.5733333333334" type="curve" smooth="yes"/>
      <point x="670.2933333333333" y="810.5733333333334"/>
      <point x="705.4133333333333" y="770.8"/>
      <point x="723.9333333333333" y="711.2266666666667" type="curve"/>
      <point x="763.3066666666666" y="751.44" type="line"/>
      <point x="726.9466666666667" y="816.0933333333334"/>
      <point x="683.2" y="856.2533333333333"/>
      <point x="593.6666666666666" y="856.2533333333333" type="curve" smooth="yes"/>
      <point x="298.5466666666667" y="856.2533333333333"/>
      <point x="24.626666666666665" y="444.16"/>
      <point x="24.626666666666665" y="169.97333333333333" type="curve" smooth="yes"/>
      <point x="24.626666666666665" y="47.14666666666667"/>
      <point x="79.84" y="-18.88"/>
      <point x="194.48" y="-18.88" type="curve" smooth="yes"/>
      <point x="313.7733333333333" y="-18.88"/>
      <point x="471.8933333333333" y="134.54666666666668"/>
      <point x="623.64" y="383.92" type="curve"/>
      <point x="605.7866666666666" y="383.92" type="line"/>
    </contour>
  </outline>
</glyph>
<glyph name="b" format="2">
	<unicode hex="0062"/>
	<advance width="871.3333333333"/>
	<outline>
		<contour>
			<point x="180.88" y="287.5466666667" type="curve" smooth="yes"/>
			<point x="205.5333333333" y="371.64" type="line" smooth="yes"/>
			<point x="259.16" y="555.5066666667"/>
			<point x="455.3466666667" y="782.48"/>
			<point x="602.6666666667" y="782.48" type="curve" smooth="yes"/>
			<point x="685.6933333333" y="782.48"/>
			<point x="725.4533333333" y="724.8266666667"/>
			<point x="725.4533333333" y="617.5333333333" type="curve" smooth="yes"/>
			<point x="725.4533333333" y="347.96"/>
			<point x="484.12" y="25.32"/>
			<point x="285.32" y="25.32" type="curve" smooth="yes"/>
			<point x="202.5333333333" y="25.32"/>
			<point x="161.52" y="76.6"/>
			<point x="161.52" y="166.4933333333" type="curve" smooth="yes"/>
			<point x="161.52" y="201.7333333333"/>
			<point x="167.64" y="242.96"/>
		</contour>
		<contour>
			<point x="396.1733333333" y="1306.48" type="curve"/>
			<point x="94.1066666667" y="301.76" type="line" smooth="yes"/>
			<point x="82.6133333333" y="263.9066666667"/>
			<point x="76.8666666667" y="226.5466666667"/>
			<point x="76.8666666667" y="190.9333333333" type="curve" smooth="yes"/>
			<point x="76.8666666667" y="65.8533333333"/>
			<point x="148.8266666667" y="-20"/>
			<point x="286.8133333333" y="-20" type="curve" smooth="yes"/>
			<point x="531.4" y="-20"/>
			<point x="832.96" y="307.36"/>
			<point x="832.96" y="655.3866666667" type="curve" smooth="yes"/>
			<point x="832.96" y="783.76"/>
			<point x="773.72" y="872"/>
			<point x="647.9733333333" y="872" type="curve" smooth="yes"/>
			<point x="521.0533333333" y="872"/>
			<point x="378.4" y="756.96"/>
			<point x="228.5066666667" y="503.52" type="curve"/>
			<point x="240.0133333333" y="490.08" type="line"/>
			<point x="517.6666666667" y="1419" type="line"/>
			<point x="498.4266666667" y="1419" type="line"/>
			<point x="259.6266666667" y="1375.2666666667" type="line"/>
			<point x="254.5066666667" y="1357.7866666667" type="line"/>
			<point x="312.5066666667" y="1341.1733333333"/>
			<point x="358.1733333333" y="1324.8133333333"/>
		</contour>
	</outline>
	<anchor name="UCtop" x="696.96" y="1340"/>
	<anchor name="bottom" x="247" y="0"/>
</glyph>
<glyph name="c" format="2">
	<unicode hex="0063"/>
	<advance width="677.56"/>
	<outline>
		<contour>
			<point x="482.44" y="818.44" type="curve" smooth="yes"/>
			<point x="525.32" y="818.44"/>
			<point x="555.56" y="791.8266666667"/>
			<point x="579.5466666667" y="764.84" type="curve" smooth="yes"/>
			<point x="603.5333333333" y="737.8533333333"/>
			<point x="620.0133333333" y="710.4933333333"/>
			<point x="635" y="710.8666666667" type="curve" smooth="yes"/>
			<point x="671.3466666667" y="711.24"/>
			<point x="694.0666666667" y="733.1066666667"/>
			<point x="694.0666666667" y="768.1866666667" type="curve" smooth="yes"/>
			<point x="694.0666666667" y="826.04"/>
			<point x="640.4533333333" y="872"/>
			<point x="535.8666666667" y="872" type="curve" smooth="yes"/>
			<point x="327.2533333333" y="872"/>
			<point x="57.6266666667" y="626.3466666667"/>
			<point x="57.6266666667" y="224.96" type="curve" smooth="yes"/>
			<point x="57.6266666667" y="57.7333333333"/>
			<point x="137.12" y="-20"/>
			<point x="261.1866666667" y="-20" type="curve" smooth="yes"/>
			<point x="390.1733333333" y="-20"/>
			<point x="484.4266666667" y="48.6266666667"/>
			<point x="593.8133333333" y="276.6266666667" type="curve"/>
			<point x="555.48" y="276.6266666667" type="line"/>
			<point x="462.3066666667" y="111.9333333333"/>
			<point x="376.9066666667" y="62.2933333333"/>
			<point x="290.52" y="62.2933333333" type="curve" smooth="yes"/>
			<point x="199.88" y="62.2933333333"/>
			<point x="156.2533333333" y="118.9333333333"/>
			<point x="156.2533333333" y="263.8266666667" type="curve" smooth="yes"/>
			<point x="156.2533333333" y="563.3866666667"/>
			<point x="331.68" y="818.44"/>
		</contour>
	</outline>
	<anchor name="top" x="472.1733333333" y="852"/>
	<anchor name="right" x="455.6666666667" y="0"/>
	<anchor name="bottom" x="295.3466666667" y="0"/>
</glyph>
<glyph name="d" format="2">
	<unicode hex="0064"/>
	<advance width="901.92"/>
	<outline>
		<contour>
			<point x="728.04" y="714.96" type="curve"/>
			<point x="767.4133333333" y="755.5466666667" type="line"/>
			<point x="731.0533333333" y="820.2"/>
			<point x="687.3066666667" y="860.7333333333"/>
			<point x="597.7733333333" y="860.7333333333" type="curve" smooth="yes"/>
			<point x="300.7866666667" y="860.7333333333"/>
			<point x="25" y="446.4"/>
			<point x="25" y="171.0933333333" type="curve" smooth="yes"/>
			<point x="25" y="47.52"/>
			<point x="80.2133333333" y="-18.88"/>
			<point x="194.8533333333" y="-18.88" type="curve" smooth="yes"/>
			<point x="316.7733333333" y="-18.88"/>
			<point x="480.2666666667" y="138.8133333333"/>
			<point x="632.76" y="392.6933333333" type="curve"/>
			<point x="616.16" y="392.6933333333" type="line"/>
			<point x="509.0266666667" y="53.7733333333" type="line" smooth="yes"/>
			<point x="492.2666666667" y="1.6133333333"/>
			<point x="502.0933333333" y="-20"/>
			<point x="562.8533333333" y="-20" type="curve" smooth="yes"/>
			<point x="639.9466666667" y="-20"/>
			<point x="740.8266666667" y="29.9866666667"/>
			<point x="881.0666666667" y="182.4666666667" type="curve"/>
			<point x="859.96" y="206.32" type="line"/>
			<point x="729.3466666667" y="85.2133333333"/>
			<point x="637.12" y="61.0266666667"/>
			<point x="572.3733333333" y="69.52" type="curve"/>
			<point x="593.1333333333" y="41.5466666667" type="line"/>
			<point x="1013.2666666667" y="1419" type="line"/>
			<point x="994.0266666667" y="1419" type="line"/>
			<point x="754.48" y="1375.64" type="line"/>
			<point x="748.9866666667" y="1358.16" type="line"/>
			<point x="805.9866666667" y="1341.8039735099"/>
			<point x="853.16" y="1324.925209713"/>
			<point x="889.16" y="1306.8533333333" type="curve"/>
			<point x="656.3066666667" y="531.4933333333" type="line" smooth="yes"/>
			<point x="585.4133333333" y="294.04"/>
			<point x="367.5333333333" y="66.0266666667"/>
			<point x="236.0666666667" y="66.0266666667" type="curve" smooth="yes"/>
			<point x="163.2533333333" y="66.0266666667"/>
			<point x="128.5066666667" y="108.1866666667"/>
			<point x="128.5066666667" y="191.6266666667" type="curve" smooth="yes"/>
			<point x="128.5066666667" y="398.9866666667"/>
			<point x="353.8533333333" y="814.68"/>
			<point x="604.24" y="814.68" type="curve" smooth="yes"/>
			<point x="674.4" y="814.68"/>
			<point x="709.52" y="774.5333333333"/>
		</contour>
	</outline>
	<anchor name="UCtop" x="765" y="1388.5333333333"/>
	<anchor name="right" x="1019.5866666667" y="1399"/>
	<anchor name="bottom" x="330.52" y="0"/>
	<anchor name="center" x="826.3866666667" y="1075.76"/>
</glyph>
<glyph name="e" format="2">
	<unicode hex="0065"/>
	<advance width="714.4266666667"/>
	<outline>
		<contour>
			<point x="509.5333333333" y="821.2933333333" type="curve" smooth="yes"/>
			<point x="588.08" y="821.2933333333"/>
			<point x="614.8133333333" y="775.1466666667"/>
			<point x="614.8133333333" y="716.3866666667" type="curve" smooth="yes"/>
			<point x="614.8133333333" y="630.1466666667"/>
			<point x="569.4" y="565.8266666667"/>
			<point x="151.8933333333" y="435.3466666667" type="curve"/>
			<point x="148.8933333333" y="389.6666666667" type="line"/>
			<point x="334.72" y="448.1866666667"/>
			<point x="509.7733333333" y="509.5733333333"/>
			<point x="652.24" y="572.0666666667" type="curve"/>
			<point x="688.1066666667" y="611.5866666667"/>
			<point x="708.2133333333" y="666.44"/>
			<point x="708.2133333333" y="720.3066666667" type="curve" smooth="yes"/>
			<point x="708.2133333333" y="800.5333333333"/>
			<point x="657.9866666667" y="872"/>
			<point x="538.04" y="872" type="curve" smooth="yes"/>
			<point x="312.2133333333" y="872"/>
			<point x="54.4933333333" y="596.2666666667"/>
			<point x="54.4933333333" y="224.96" type="curve" smooth="yes"/>
			<point x="54.4933333333" y="53.3333333333"/>
			<point x="147.1066666667" y="-20"/>
			<point x="270.16" y="-20" type="curve" smooth="yes"/>
			<point x="398.48" y="-20"/>
			<point x="495.76" y="37.9733333333"/>
			<point x="611.68" y="276.6266666667" type="curve"/>
			<point x="571.9733333333" y="276.6266666667" type="line"/>
			<point x="473.4" y="100.6666666667"/>
			<point x="385.48" y="62.2933333333"/>
			<point x="303" y="62.2933333333" type="curve" smooth="yes"/>
			<point x="215.6266666667" y="62.2933333333"/>
			<point x="153.7466666667" y="110.16"/>
			<point x="153.7466666667" y="263.8266666667" type="curve" smooth="yes"/>
			<point x="153.7466666667" y="544.9333333333"/>
			<point x="329.2" y="821.2933333333"/>
		</contour>
	</outline>
	<anchor name="top" x="488.1466666667" y="852"/>
	<anchor name="right" x="497.28" y="0"/>
	<anchor name="bottom" x="274.9333333333" y="0"/>
</glyph>
<glyph name="f" format="2">
	<unicode hex="0066"/>
	<advance width="552.3066666667"/>
	<outline>
		<contour>
			<point x="110.76" y="793.9333333333" type="line"/>
			<point x="650.96" y="793.9333333333" type="line"/>
			<point x="662.5733333333" y="852" type="line"/>
			<point x="122" y="852" type="line"/>
		</contour>
		<contour>
			<point x="264.4666666667" y="119.0533333333" type="curve" smooth="yes"/>
			<point x="446.52" y="995.6933333333" type="line" smooth="yes"/>
			<point x="500.8" y="1256.3066666667"/>
			<point x="612.36" y="1362.8133333333"/>
			<point x="757.48" y="1362.8133333333" type="curve" smooth="yes"/>
			<point x="805.4666666667" y="1362.8133333333"/>
			<point x="835.8266666667" y="1349.4533333333"/>
			<point x="869.5866666667" y="1319.84" type="curve" smooth="yes"/>
			<point x="903.3466666667" y="1290.2266666667"/>
			<point x="925.2133333333" y="1252.88"/>
			<point x="945.8" y="1252.88" type="curve" smooth="yes"/>
			<point x="984" y="1252.88"/>
			<point x="1013.6133333333" y="1279.6"/>
			<point x="1013.6133333333" y="1313.32" type="curve" smooth="yes"/>
			<point x="1013.6133333333" y="1368.8933333333"/>
			<point x="951.28" y="1419"/>
			<point x="824.08" y="1419" type="curve" smooth="yes"/>
			<point x="589.7866666667" y="1419"/>
			<point x="408.04" y="1265.72"/>
			<point x="333.8933333333" y="905.7866666667" type="curve" smooth="yes"/>
			<point x="152.4666666667" y="27.1466666667" type="line" smooth="yes"/>
			<point x="70.4666666667" y="-370.0533333333"/>
			<point x="-23.6933333333" y="-467.7066666667"/>
			<point x="-141.3333333333" y="-467.7066666667" type="curve" smooth="yes"/>
			<point x="-176.5866666667" y="-467.7066666667"/>
			<point x="-209.08" y="-455.84"/>
			<point x="-239.96" y="-423.9733333333" type="curve" smooth="yes"/>
			<point x="-270.84" y="-392.1066666667"/>
			<point x="-287.5733333333" y="-367.9866666667"/>
			<point x="-304.1733333333" y="-367.9866666667" type="curve" smooth="yes"/>
			<point x="-337.8933333333" y="-367.9866666667"/>
			<point x="-367.5066666667" y="-396.9466666667"/>
			<point x="-367.5066666667" y="-429.92" type="curve" smooth="yes"/>
			<point x="-367.5066666667" y="-482.88"/>
			<point x="-312.64" y="-530"/>
			<point x="-202.28" y="-530" type="curve" smooth="yes"/>
			<point x="2.7866666667" y="-530"/>
			<point x="162.48" y="-374.0666666667"/>
		</contour>
	</outline>
	<anchor name="UCtop" x="743.0133333333" y="1340"/>
	<anchor name="bottom" x="-53.3333333333" y="-510"/>
</glyph>
<glyph name="g" format="2">
	<unicode hex="0067"/>
	<advance width="736.6"/>
	<outline>
		<contour>
			<point x="793.56" y="753.2" type="curve" smooth="yes"/>
			<point x="831.6666666667" y="753.2"/>
			<point x="863.3866666667" y="786.1866666667"/>
			<point x="863.3866666667" y="827.1333333333" type="curve" smooth="yes"/>
			<point x="863.3866666667" y="853.4933333333"/>
			<point x="846.64" y="866.36"/>
			<point x="822.04" y="866.36" type="curve" smooth="yes"/>
			<point x="758.84" y="866.36"/>
			<point x="693.12" y="832.4933333333"/>
			<point x="508.7866666667" y="858.12" type="curve"/>
			<point x="540.56" y="822.4" type="line"/>
			<point x="721.08" y="821.1466666667"/>
			<point x="743.36" y="753.2"/>
		</contour>
		<contour>
			<point x="298.04" y="281.9466666667" type="curve"/>
			<point x="229.0133333333" y="281.9466666667"/>
			<point x="194.3866666667" y="328.4666666667"/>
			<point x="194.3866666667" y="435.88" type="curve" smooth="yes"/>
			<point x="194.3866666667" y="634.2"/>
			<point x="322.28" y="831.3066666667"/>
			<point x="459.5866666667" y="831.3066666667" type="curve"/>
			<point x="528.6133333333" y="831.3066666667"/>
			<point x="563.24" y="784.7866666667"/>
			<point x="563.24" y="677.3733333333" type="curve" smooth="yes"/>
			<point x="563.24" y="479.0533333333"/>
			<point x="435.3466666667" y="281.9466666667"/>
		</contour>
		<contour>
			<point x="464.0666666667" y="872" type="curve"/>
			<point x="255.1866666667" y="872"/>
			<point x="102.6266666667" y="656.8"/>
			<point x="102.6266666667" y="449.0666666667" type="curve" smooth="yes"/>
			<point x="102.6266666667" y="324.48"/>
			<point x="167.84" y="241.2533333333"/>
			<point x="293.56" y="241.2533333333" type="curve"/>
			<point x="502.44" y="241.2533333333"/>
			<point x="655" y="456.4533333333"/>
			<point x="655" y="664.1866666667" type="curve" smooth="yes"/>
			<point x="655" y="788.7733333333"/>
			<point x="589.7866666667" y="872"/>
		</contour>
		<contour>
			<point x="223.04" y="-530" type="curve" smooth="yes"/>
			<point x="464.92" y="-530"/>
			<point x="629.2" y="-408.7333333333"/>
			<point x="629.2" y="-250.7333333333" type="curve" smooth="yes"/>
			<point x="629.2" y="-151.6666666667"/>
			<point x="563.3333333333" y="-81.44"/>
			<point x="358.4266666667" y="-7.84" type="curve" smooth="yes"/>
			<point x="205.5733333333" y="47.16"/>
			<point x="156.7733333333" y="88.8"/>
			<point x="156.7733333333" y="141.5733333333" type="curve" smooth="yes"/>
			<point x="156.7733333333" y="183.5733333333"/>
			<point x="193.88" y="228.3333333333"/>
			<point x="287.28" y="252.6133333333" type="curve"/>
			<point x="260.2" y="267.9733333333" type="line"/>
			<point x="142.0933333333" y="232.8533333333"/>
			<point x="78.12" y="169.9866666667"/>
			<point x="78.12" y="89.24" type="curve" smooth="yes"/>
			<point x="78.12" y="29.6266666667"/>
			<point x="114.1333333333" y="-25.7066666667"/>
			<point x="282.96" y="-83.2533333333" type="curve" smooth="yes"/>
			<point x="480.04" y="-148.64"/>
			<point x="544.1733333333" y="-200.9066666667"/>
			<point x="544.1733333333" y="-284.5866666667" type="curve" smooth="yes"/>
			<point x="544.1733333333" y="-386.88"/>
			<point x="434.1066666667" y="-487.68"/>
			<point x="224.04" y="-487.68" type="curve" smooth="yes"/>
			<point x="52.6933333333" y="-487.68"/>
			<point x="-49.0666666667" y="-416.9333333333"/>
			<point x="-49.0666666667" y="-302.3066666667" type="curve" smooth="yes"/>
			<point x="-49.0666666667" y="-183.16"/>
			<point x="74.04" y="-85.8533333333"/>
			<point x="312.7733333333" y="-76.9733333333" type="curve"/>
			<point x="312.7733333333" y="-58.6133333333" type="line"/>
			<point x="245.9466666667" y="-56.7333333333" type="line"/>
			<point x="-27.6266666667" y="-85.8533333333"/>
			<point x="-144.2266666667" y="-183.5333333333"/>
			<point x="-144.2266666667" y="-314.2933333333" type="curve" smooth="yes"/>
			<point x="-144.2266666667" y="-454.8933333333"/>
			<point x="4.76" y="-530"/>
		</contour>
	</outline>
	<anchor name="top" x="448.0666666667" y="852"/>
	<anchor name="bottom" x="233.5333333333" y="-517.4666666667"/>
</glyph>
<glyph name="h" format="2">
  <advance width="904"/>
  <unicode hex="0068"/>
  <anchor x="695.12" y="1362.0266666666666" name="UCtop"/>
  <anchor x="329.88" y="0.0" name="bottom"/>
  <anchor x="425.52" y="1075.76" name="center"/>
  <outline>
    <contour>
      <point x="184.04" y="245.53333333333333" type="line"/>
      <point x="272.17333333333335" y="535.1866666666667"/>
      <point x="486.82666666666665" y="790.48"/>
      <point x="646.5333333333333" y="790.48" type="curve" smooth="yes"/>
      <point x="700.0266666666666" y="790.48"/>
      <point x="724.92" y="769.1066666666667"/>
      <point x="724.92" y="723.5733333333334" type="curve" smooth="yes"/>
      <point x="724.92" y="697.44"/>
      <point x="716.2933333333333" y="662.92"/>
      <point x="700.28" y="621.76" type="curve" smooth="yes"/>
      <point x="483.64" y="64.22666666666666" type="line" smooth="yes"/>
      <point x="458.4" y="-0.11999999999999988"/>
      <point x="468.8933333333333" y="-20.0"/>
      <point x="537.0933333333334" y="-20.0" type="curve" smooth="yes"/>
      <point x="614.1866666666666" y="-20.0"/>
      <point x="716.9333333333333" y="28.493333333333332"/>
      <point x="856.0533333333333" y="182.84" type="curve"/>
      <point x="834.2" y="206.32" type="line"/>
      <point x="706.2" y="87.45333333333333"/>
      <point x="616.96" y="64.75999999999999"/>
      <point x="552.5866666666667" y="69.14666666666666" type="curve"/>
      <point x="566.2533333333333" y="41.54666666666667" type="line"/>
      <point x="782.4266666666666" y="597.9066666666666" type="line" smooth="yes"/>
      <point x="805.4266666666666" y="656.0266666666666"/>
      <point x="818.8" y="708.0266666666666"/>
      <point x="818.8" y="749.7733333333333" type="curve" smooth="yes"/>
      <point x="818.8" y="823.8933333333333"/>
      <point x="780.2933333333333" y="870.88"/>
      <point x="679.0666666666667" y="870.88" type="curve" smooth="yes"/>
      <point x="534.36" y="870.88"/>
      <point x="376.72" y="729.88"/>
      <point x="218.34666666666666" y="418.81333333333333" type="curve"/>
      <point x="232.6" y="418.06666666666666" type="line"/>
      <point x="532.8933333333333" y="1419.0" type="line"/>
      <point x="513.6533333333333" y="1419.0" type="line"/>
      <point x="274.1066666666667" y="1375.64" type="line"/>
      <point x="268.61333333333334" y="1358.16" type="line"/>
      <point x="325.61333333333334" y="1341.8039735099337"/>
      <point x="372.7866666666667" y="1324.9252097130243"/>
      <point x="408.7866666666667" y="1306.8533333333332" type="curve"/>
      <point x="19.266666666666666" y="0.0" type="line"/>
      <point x="109.65333333333334" y="0.0" type="line"/>
    </contour>
  </outline>
</glyph>
<glyph name="i" format="2">
	<unicode hex="0069"/>
	<advance width="511.8133333333"/>
	<outline>
		<contour>
			<point x="88.1866666667" y="50.04" type="line" smooth="yes"/>
			<point x="70.6032992975" y="-0.5292659377"/>
			<point x="80.4348717949" y="-20"/>
			<point x="145.6133333333" y="-20" type="curve" smooth="yes"/>
			<point x="222.7066666667" y="-20"/>
			<point x="324.7066666667" y="28.12"/>
			<point x="463.8266666667" y="182.4666666667" type="curve"/>
			<point x="442.72" y="206.32" type="line"/>
			<point x="312.1066666667" y="85.2133333333"/>
			<point x="219.5066666667" y="62.1466666667"/>
			<point x="155.1333333333" y="69.52" type="curve"/>
			<point x="177.7733333333" y="40.92" type="line"/>
			<point x="440.28" y="801.96" type="line" smooth="yes"/>
			<point x="457.4900340358" y="851.7825992711"/>
			<point x="446.5384615385" y="872"/>
			<point x="389.9466666667" y="872" type="curve" smooth="yes"/>
			<point x="315.24" y="872"/>
			<point x="207.72" y="823.6266666667"/>
			<point x="64.7066666667" y="642.6666666667" type="curve"/>
			<point x="87.1866666667" y="620.56" type="line"/>
			<point x="217.9466666667" y="755.3066666667"/>
			<point x="310.9333333333" y="785.4933333333"/>
			<point x="377.8133333333" y="781.6133333333" type="curve"/>
			<point x="350.6933333333" y="803.6133333333" type="line"/>
		</contour>
		<contour>
			<point x="412.16" y="1325.6933333333" type="curve" smooth="yes"/>
			<point x="412.16" y="1274.2266666667"/>
			<point x="449.3866666667" y="1235.2533333333"/>
			<point x="502.9733333333" y="1235.2533333333" type="curve" smooth="yes"/>
			<point x="558.44" y="1235.2533333333"/>
			<point x="593.7866666667" y="1274.2266666667"/>
			<point x="593.7866666667" y="1325.6933333333" type="curve" smooth="yes"/>
			<point x="593.7866666667" y="1375.9066666667"/>
			<point x="558.44" y="1414.2533333333"/>
			<point x="502.9733333333" y="1414.2533333333" type="curve" smooth="yes"/>
			<point x="449.3866666667" y="1414.2533333333"/>
			<point x="412.16" y="1375.9066666667"/>
		</contour>
	</outline>
	<anchor name="top" x="501.2533333333" y="1362.0266666667"/>
	<anchor name="bottom" x="147.7866666667" y="0"/>
	<anchor name="right" x="264.1866666667" y="0"/>
</glyph>
<glyph name="j" format="2">
	<unicode hex="006A"/>
	<advance width="460.9466666667"/>
	<outline>
		<contour>
			<point x="401.56" y="1325.6933333333" type="curve" smooth="yes"/>
			<point x="401.56" y="1274.2266666667"/>
			<point x="438.7866666667" y="1235.2533333333"/>
			<point x="492.3733333333" y="1235.2533333333" type="curve" smooth="yes"/>
			<point x="547.84" y="1235.2533333333"/>
			<point x="583.1866666667" y="1274.2266666667"/>
			<point x="583.1866666667" y="1325.6933333333" type="curve" smooth="yes"/>
			<point x="583.1866666667" y="1375.9066666667"/>
			<point x="547.84" y="1414.2533333333"/>
			<point x="492.3733333333" y="1414.2533333333" type="curve" smooth="yes"/>
			<point x="438.7866666667" y="1414.2533333333"/>
			<point x="401.56" y="1375.9066666667"/>
		</contour>
		<contour>
			<point x="190.68" y="11.8666666667" type="curve" smooth="yes"/>
			<point x="429.68" y="801.96" type="line" smooth="yes"/>
			<point x="444.6933333333" y="852.6266666667"/>
			<point x="435.36" y="872"/>
			<point x="379.3466666667" y="872" type="curve" smooth="yes"/>
			<point x="299.7866666667" y="872"/>
			<point x="191.52" y="815.7866666667"/>
			<point x="54.1066666667" y="642.6666666667" type="curve"/>
			<point x="76.5866666667" y="620.56" type="line"/>
			<point x="197.9466666667" y="745.9066666667"/>
			<point x="289.68" y="782.9866666667"/>
			<point x="354.68" y="782.24" type="curve"/>
			<point x="340.0933333333" y="803.6133333333" type="line"/>
			<point x="82.68" y="-41.1066666667" type="line" smooth="yes"/>
			<point x="-15.4666666667" y="-363.2933333333"/>
			<point x="-122.64" y="-454.96"/>
			<point x="-231.4266666667" y="-454.96" type="curve" smooth="yes"/>
			<point x="-263.5466666667" y="-454.96"/>
			<point x="-291.7866666667" y="-442.3466666667"/>
			<point x="-318.4" y="-421.2533333333" type="curve" smooth="yes"/>
			<point x="-345.0133333333" y="-400.16"/>
			<point x="-359.0133333333" y="-387.28"/>
			<point x="-369.76" y="-387.28" type="curve" smooth="yes"/>
			<point x="-397.3466666667" y="-387.28"/>
			<point x="-424.6933333333" y="-413.12"/>
			<point x="-424.6933333333" y="-452.3333333333" type="curve" smooth="yes"/>
			<point x="-424.6933333333" y="-493.5333333333"/>
			<point x="-388.0933333333" y="-530"/>
			<point x="-312.3733333333" y="-530" type="curve" smooth="yes"/>
			<point x="-128.52" y="-530"/>
			<point x="77.9066666667" y="-360.32"/>
		</contour>
	</outline>
	<anchor name="top" x="482.5333333333" y="1362.0266666667"/>
	<anchor name="bottom" x="-153.64" y="-510"/>
</glyph>
<glyph name="k" format="2">
	<unicode hex="006B"/>
	<advance width="844.2266666667"/>
	<outline>
		<contour>
			<point x="532.2666666667" y="1419" type="line"/>
			<point x="513.0266666667" y="1419" type="line"/>
			<point x="274.1066666667" y="1376.0133333333" type="line"/>
			<point x="268.6133333333" y="1358.5333333333" type="line"/>
			<point x="325.6133333333" y="1342.1773068433"/>
			<point x="372.7866666667" y="1325.2985430464"/>
			<point x="408.7866666667" y="1307.2266666667" type="curve"/>
			<point x="19.2666666667" y="0" type="line"/>
			<point x="109.6533333333" y="0" type="line"/>
		</contour>
		<contour>
			<point x="248.9066666667" y="481.0133333333" type="line"/>
			<point x="406.88" y="51.56"/>
			<point x="455.2933333333" y="-17.4933333333"/>
			<point x="527.52" y="-17.4933333333" type="curve" smooth="yes"/>
			<point x="591.48" y="-17.4933333333"/>
			<point x="660.7066666667" y="25.96"/>
			<point x="796.1066666667" y="188.9466666667" type="curve"/>
			<point x="771" y="212.9333333333" type="line"/>
			<point x="669.92" y="100.8666666667"/>
			<point x="605.3333333333" y="57.5333333333"/>
			<point x="562.7066666667" y="57.5333333333" type="curve" smooth="yes"/>
			<point x="517.96" y="57.5333333333"/>
			<point x="465.52" y="132.64"/>
			<point x="318.3066666667" y="532.3466666667" type="curve"/>
			<point x="305.0933333333" y="490.1333333333" type="line"/>
			<point x="444.8933333333" y="654.84"/>
			<point x="626.8133333333" y="786.1333333333"/>
			<point x="703.8533333333" y="786.1333333333" type="curve" smooth="yes"/>
			<point x="724.9866666667" y="786.1333333333"/>
			<point x="741.12" y="774.5066666667"/>
			<point x="757.8666666667" y="750.0266666667" type="curve" smooth="yes"/>
			<point x="774.6133333333" y="725.5466666667"/>
			<point x="785.8666666667" y="709.4133333333"/>
			<point x="803.24" y="709.4133333333" type="curve" smooth="yes"/>
			<point x="848.9333333333" y="709.4133333333"/>
			<point x="886.76" y="743.12"/>
			<point x="886.76" y="794.9466666667" type="curve" smooth="yes"/>
			<point x="886.76" y="836.5333333333"/>
			<point x="855.5333333333" y="871.3733333333"/>
			<point x="789.6533333333" y="871.3733333333" type="curve" smooth="yes"/>
			<point x="673.5333333333" y="871.3733333333"/>
			<point x="527.8" y="790.84"/>
			<point x="252.0266666667" y="491.3733333333" type="curve"/>
		</contour>
	</outline>
	<anchor name="UCtop" x="694.7733333333" y="1388.5333333333"/>
	<anchor name="bottom" x="329.1733333333" y="0"/>
</glyph>
<glyph name="l" format="2">
  <advance width="462"/>
  <unicode hex="006C"/>
  <anchor x="446.74666666666667" y="1388.5333333333333" name="UCtop"/>
  <anchor x="107.33333333333334" y="0.0" name="bottom"/>
  <anchor x="550.9733333333334" y="1399.0" name="right"/>
  <anchor x="481.72" y="546.0" name="mid"/>
  <outline>
    <contour>
      <point x="420.92" y="1306.8533333333332" type="curve"/>
      <point x="46.78666666666667" y="50.04" type="line" smooth="yes"/>
      <point x="31.653333333333336" y="-1.4933333333333332"/>
      <point x="44.48422764227642" y="-20.0"/>
      <point x="105.46666666666667" y="-20.0" type="curve" smooth="yes"/>
      <point x="182.56" y="-20.0"/>
      <point x="283.93333333333334" y="28.12"/>
      <point x="420.5466666666667" y="182.46666666666667" type="curve"/>
      <point x="398.81333333333333" y="206.32" type="line"/>
      <point x="270.70666666666665" y="85.21333333333334"/>
      <point x="178.73333333333332" y="62.14666666666666"/>
      <point x="113.73333333333332" y="69.52" type="curve"/>
      <point x="135.13333333333333" y="44.65333333333333" type="line"/>
      <point x="545.0266666666666" y="1419.0" type="line"/>
      <point x="525.7866666666666" y="1419.0" type="line"/>
      <point x="286.24" y="1375.64" type="line"/>
      <point x="280.74666666666667" y="1358.16" type="line"/>
      <point x="337.74666666666667" y="1341.8039735099337"/>
      <point x="384.92" y="1324.9252097130243"/>
    </contour>
  </outline>
</glyph>
<glyph name="m" format="2">
  <advance width="1382"/>
  <unicode hex="006D"/>
  <anchor x="834.7866666666666" y="852.0" name="top"/>
  <anchor x="581.0533333333333" y="0.0" name="bottom"/>
  <outline>
    <contour>
      <point x="1044.16" y="41.54666666666667" type="line"/>
      <point x="1263.8533333333332" y="610.32" type="line" smooth="yes"/>
      <point x="1286.2133333333334" y="668.0266666666666"/>
      <point x="1297.08" y="716.2533333333333"/>
      <point x="1297.08" y="755.24" type="curve" smooth="yes"/>
      <point x="1297.08" y="828.3733333333333"/>
      <point x="1257.8266666666666" y="872.3733333333333"/>
      <point x="1170.6266666666666" y="872.3733333333333" type="curve" smooth="yes"/>
      <point x="1047.8533333333332" y="872.3733333333333"/>
      <point x="911.1866666666667" y="767.9466666666667"/>
      <point x="740.6266666666667" y="436.73333333333335" type="curve"/>
      <point x="754.2666666666667" y="436.73333333333335" type="line"/>
      <point x="810.6266666666667" y="600.4133333333333" type="line" smooth="yes"/>
      <point x="831.4933333333333" y="663.6266666666667"/>
      <point x="844.36" y="715.6133333333333"/>
      <point x="844.36" y="757.1066666666667" type="curve" smooth="yes"/>
      <point x="844.36" y="827.7466666666667"/>
      <point x="806.8666666666667" y="872.0"/>
      <point x="714.0266666666666" y="872.0" type="curve" smooth="yes"/>
      <point x="593.2666666666667" y="872.0"/>
      <point x="470.36" y="769.44"/>
      <point x="289.72" y="419.18666666666667" type="curve"/>
      <point x="304.24" y="419.18666666666667" type="line"/>
      <point x="438.8" y="854.5066666666667" type="line"/>
      <point x="415.96" y="862.7466666666667"/>
      <point x="379.58666666666664" y="869.12"/>
      <point x="345.3466666666667" y="869.12" type="curve" smooth="yes"/>
      <point x="240.10666666666665" y="869.12"/>
      <point x="145.77333333333334" y="814.2666666666667"/>
      <point x="56.626666666666665" y="617.68" type="curve"/>
      <point x="83.85333333333334" y="605.1866666666667" type="line"/>
      <point x="154.85333333333332" y="729.8"/>
      <point x="224.86666666666667" y="786.7333333333333"/>
      <point x="301.25333333333333" y="786.7333333333333" type="curve" smooth="yes"/>
      <point x="316.9066666666667" y="786.7333333333333"/>
      <point x="325.6666666666667" y="785.48"/>
      <point x="331.92" y="784.2266666666667" type="curve"/>
      <point x="94.64" y="0.0" type="line"/>
      <point x="185.77333333333334" y="0.0" type="line"/>
      <point x="260.5333333333333" y="245.53333333333333" type="line" smooth="yes"/>
      <point x="350.04" y="539.68"/>
      <point x="538.9466666666667" y="791.36"/>
      <point x="677.2266666666667" y="791.36" type="curve" smooth="yes"/>
      <point x="724.72" y="791.36"/>
      <point x="750.6133333333333" y="769.7333333333333"/>
      <point x="750.6133333333333" y="719.44" type="curve" smooth="yes"/>
      <point x="750.6133333333333" y="693.8"/>
      <point x="744.24" y="661.28"/>
      <point x="730.8533333333334" y="621.3733333333333" type="curve" smooth="yes"/>
      <point x="526.8533333333334" y="0.0" type="line"/>
      <point x="618.7333333333333" y="0.0" type="line"/>
      <point x="702.1066666666667" y="258.2266666666667" type="line"/>
      <point x="793.9733333333334" y="530.7333333333333"/>
      <point x="987.0133333333333" y="791.36"/>
      <point x="1128.5733333333333" y="791.36" type="curve" smooth="yes"/>
      <point x="1177.1866666666667" y="791.36"/>
      <point x="1201.2" y="767.2266666666667"/>
      <point x="1201.2" y="721.32" type="curve" smooth="yes"/>
      <point x="1201.2" y="695.3066666666666"/>
      <point x="1193.9466666666667" y="662.5333333333333"/>
      <point x="1178.56" y="623.2533333333333" type="curve" smooth="yes"/>
      <point x="961.5466666666666" y="64.22666666666666" type="line" smooth="yes"/>
      <point x="936.3066666666666" y="-0.7466666666666666"/>
      <point x="943.04" y="-20.0"/>
      <point x="1015.0" y="-20.0" type="curve" smooth="yes"/>
      <point x="1092.0933333333332" y="-20.0"/>
      <point x="1194.84" y="28.493333333333332"/>
      <point x="1333.96" y="182.84" type="curve"/>
      <point x="1312.1066666666666" y="206.32" type="line"/>
      <point x="1184.1066666666666" y="87.45333333333333"/>
      <point x="1094.8666666666666" y="64.75999999999999"/>
      <point x="1030.4933333333333" y="69.14666666666666" type="curve"/>
    </contour>
  </outline>
</glyph>
<glyph name="n" format="2">
	<unicode hex="006E"/>
	<advance width="980.6666666667"/>
	<outline>
		<contour>
			<point x="83.8533333333" y="605.1866666667" type="line"/>
			<point x="154.8533333333" y="729.8"/>
			<point x="224.8666666667" y="786.7333333333"/>
			<point x="301.2533333333" y="786.7333333333" type="curve" smooth="yes"/>
			<point x="316.9066666667" y="786.7333333333"/>
			<point x="325.6666666667" y="785.48"/>
			<point x="331.92" y="784.2266666667" type="curve"/>
			<point x="94.64" y="0" type="line"/>
			<point x="185.7733333333" y="0" type="line"/>
			<point x="260.5333333333" y="245.5333333333" type="line"/>
			<point x="348.6666666667" y="535.1866666667"/>
			<point x="563.32" y="790.48"/>
			<point x="723.0266666667" y="790.48" type="curve" smooth="yes"/>
			<point x="776.52" y="790.48"/>
			<point x="801.4133333333" y="769.1066666667"/>
			<point x="801.4133333333" y="723.5733333333" type="curve" smooth="yes"/>
			<point x="801.4133333333" y="697.44"/>
			<point x="792.7866666667" y="662.92"/>
			<point x="776.7733333333" y="621.76" type="curve" smooth="yes"/>
			<point x="560.1333333333" y="64.2266666667" type="line" smooth="yes"/>
			<point x="534.8933333333" y="-0.12"/>
			<point x="545.3866666667" y="-20"/>
			<point x="613.5866666667" y="-20" type="curve" smooth="yes"/>
			<point x="690.68" y="-20"/>
			<point x="793.4266666667" y="28.4933333333"/>
			<point x="932.5466666667" y="182.84" type="curve"/>
			<point x="910.6933333333" y="206.32" type="line"/>
			<point x="782.6933333333" y="87.4533333333"/>
			<point x="693.4533333333" y="64.76"/>
			<point x="629.08" y="69.1466666667" type="curve"/>
			<point x="642.7466666667" y="41.5466666667" type="line"/>
			<point x="858.92" y="597.9066666667" type="line" smooth="yes"/>
			<point x="881.92" y="656.0266666667"/>
			<point x="895.2933333333" y="708.0266666667"/>
			<point x="895.2933333333" y="749.7733333333" type="curve" smooth="yes"/>
			<point x="895.2933333333" y="823.8933333333"/>
			<point x="856.7866666667" y="870.88"/>
			<point x="755.56" y="870.88" type="curve" smooth="yes"/>
			<point x="608.9866666667" y="870.88"/>
			<point x="449.48" y="725.7733333333"/>
			<point x="289.6133333333" y="408.7333333333" type="curve"/>
			<point x="301.2533333333" y="408.7333333333" type="line"/>
			<point x="438.8" y="854.5066666667" type="line"/>
			<point x="414.7066666667" y="862.7466666667"/>
			<point x="379.5866666667" y="869.12"/>
			<point x="345.3466666667" y="869.12" type="curve" smooth="yes"/>
			<point x="240.1066666667" y="869.12"/>
			<point x="145.7733333333" y="814.2666666667"/>
			<point x="56.6266666667" y="617.68" type="curve"/>
		</contour>
	</outline>
	<anchor name="top" x="610.1733333333" y="852"/>
	<anchor name="bottom" x="400.8533333333" y="0"/>
</glyph>
<glyph name="o" format="2">
  <advance width="818"/>
  <unicode hex="006F"/>
  <anchor x="518.5866666666667" y="852.0" name="top"/>
  <anchor x="278.58666666666664" y="0.0" name="bottom"/>
  <anchor x="612.6" y="852.0" name="horn"/>
  <anchor x="320.74666666666667" y="0.0" name="right"/>
  <outline>
    <contour>
      <point x="523.24" y="872.0" type="curve" smooth="yes"/>
      <point x="259.61333333333334" y="872.0"/>
      <point x="62.626666666666665" y="566.7066666666667"/>
      <point x="62.626666666666665" y="255.07999999999998" type="curve" smooth="yes"/>
      <point x="62.626666666666665" y="78.85333333333334"/>
      <point x="146.58666666666667" y="-20.0"/>
      <point x="294.93333333333334" y="-20.0" type="curve" smooth="yes"/>
      <point x="558.56" y="-20.0"/>
      <point x="755.5466666666666" y="285.29333333333335"/>
      <point x="755.5466666666666" y="596.92" type="curve" smooth="yes"/>
      <point x="755.5466666666666" y="773.1466666666666"/>
      <point x="671.5866666666667" y="872.0"/>
    </contour>
    <contour>
      <point x="293.8" y="25.066666666666666" type="curve" smooth="yes"/>
      <point x="202.02666666666667" y="25.066666666666666"/>
      <point x="157.25333333333333" y="87.82666666666667"/>
      <point x="157.25333333333333" y="234.50666666666666" type="curve" smooth="yes"/>
      <point x="157.25333333333333" y="496.76"/>
      <point x="321.78666666666663" y="826.9333333333333"/>
      <point x="524.3733333333333" y="826.9333333333333" type="curve" smooth="yes"/>
      <point x="616.1466666666666" y="826.9333333333333"/>
      <point x="660.92" y="764.1733333333333"/>
      <point x="660.92" y="617.4933333333333" type="curve" smooth="yes"/>
      <point x="660.92" y="355.24"/>
      <point x="496.38666666666666" y="25.066666666666666"/>
    </contour>
  </outline>
</glyph>
<glyph name="p" format="2">
	<unicode hex="0070"/>
	<advance width="954.1066666667"/>
	<outline>
		<contour>
			<point x="272.6533333333" y="233.36" type="curve" smooth="yes"/>
			<point x="299.5466666667" y="338.68" type="line" smooth="yes"/>
			<point x="354.5733333333" y="553.9066666667"/>
			<point x="517.48" y="785.36"/>
			<point x="673.68" y="785.36" type="curve" smooth="yes"/>
			<point x="758.5733333333" y="785.36"/>
			<point x="799.72" y="724.2"/>
			<point x="799.72" y="601.0133333333" type="curve" smooth="yes"/>
			<point x="799.72" y="308.2"/>
			<point x="576.0266666667" y="23.6933333333"/>
			<point x="402.84" y="23.6933333333" type="curve" smooth="yes"/>
			<point x="310.84" y="23.6933333333"/>
			<point x="262.8" y="89.84"/>
			<point x="262.8" y="165.1066666667" type="curve" smooth="yes"/>
			<point x="262.8" y="179.9733333333"/>
			<point x="264.1733333333" y="201.0666666667"/>
		</contour>
		<contour>
			<point x="181.3866666667" y="92.4266666667" type="line"/>
			<point x="206.4666666667" y="23.2933333333"/>
			<point x="291.5466666667" y="-20"/>
			<point x="393.2266666667" y="-20" type="curve" smooth="yes"/>
			<point x="657.4133333333" y="-20"/>
			<point x="906.7333333333" y="301.4666666667"/>
			<point x="906.7333333333" y="646.76" type="curve" smooth="yes"/>
			<point x="906.7333333333" y="779.92"/>
			<point x="843.3466666667" y="872"/>
			<point x="713.88" y="872" type="curve" smooth="yes"/>
			<point x="601.8666666667" y="872"/>
			<point x="450.1866666667" y="766.4933333333"/>
			<point x="319.4133333333" y="486.88" type="curve"/>
			<point x="330.1733333333" y="465.0266666667" type="line"/>
			<point x="434.2" y="855.2533333333" type="line"/>
			<point x="410.48" y="863.12"/>
			<point x="375.36" y="869.8666666667"/>
			<point x="341.8666666667" y="869.8666666667" type="curve" smooth="yes"/>
			<point x="238.12" y="869.8666666667"/>
			<point x="145.6533333333" y="814.64"/>
			<point x="56.5066666667" y="617.68" type="curve"/>
			<point x="83.7333333333" y="605.1866666667" type="line"/>
			<point x="154.36" y="729.8"/>
			<point x="224.3733333333" y="786.7333333333"/>
			<point x="301.1333333333" y="786.7333333333" type="curve" smooth="yes"/>
			<point x="315.6666666667" y="786.7333333333"/>
			<point x="323.3066666667" y="785.48"/>
			<point x="328.44" y="784.2266666667" type="curve"/>
			<point x="-1.3333333333" y="-447.1866666667" type="line"/>
			<point x="-149.08" y="-481.7733333333" type="line"/>
			<point x="-158.6933333333" y="-510" type="line"/>
			<point x="255.08" y="-510" type="line"/>
			<point x="264.6933333333" y="-481.7733333333" type="line"/>
			<point x="90.3066666667" y="-447.1866666667" type="line"/>
			<point x="234.8266666667" y="92.4266666667" type="line"/>
		</contour>
	</outline>
	<anchor name="top" x="597.88" y="852"/>
	<anchor name="bottom" x="31.1066666667" y="-510"/>
</glyph>
<glyph name="q" format="2">
	<unicode hex="0071"/>
	<advance width="844.56"/>
	<outline>
		<contour>
			<point x="358.44" y="-446.8133333333" type="line"/>
			<point x="173.2133333333" y="-481.7733333333" type="line"/>
			<point x="164.72" y="-510" type="line"/>
			<point x="578.36" y="-510" type="line"/>
			<point x="586.8533333333" y="-481.7733333333" type="line"/>
			<point x="448.8266666667" y="-447.1866666667" type="line"/>
			<point x="840.6533333333" y="852" type="line"/>
			<point x="749.1466666667" y="852" type="line"/>
			<point x="726.28" y="776.8933333333" type="line"/>
			<point x="652.2" y="531.4933333333" type="line" smooth="yes"/>
			<point x="579.32" y="289.56"/>
			<point x="363.8" y="66.0266666667"/>
			<point x="235.6933333333" y="66.0266666667" type="curve" smooth="yes"/>
			<point x="162.88" y="66.0266666667"/>
			<point x="128.1333333333" y="107.44"/>
			<point x="128.1333333333" y="190.5066666667" type="curve" smooth="yes"/>
			<point x="128.1333333333" y="397.12"/>
			<point x="355.12" y="816.84"/>
			<point x="603.2666666667" y="816.84" type="curve" smooth="yes"/>
			<point x="673.4266666667" y="816.84"/>
			<point x="708.5466666667" y="777.0666666667"/>
			<point x="727.0666666667" y="717.4933333333" type="curve"/>
			<point x="759.5466666667" y="752.6933333333" type="line"/>
			<point x="722.56" y="821.1066666667"/>
			<point x="686.3333333333" y="862.52"/>
			<point x="596.8" y="862.52" type="curve" smooth="yes"/>
			<point x="301.68" y="862.52"/>
			<point x="24.6266666667" y="444.16"/>
			<point x="24.6266666667" y="169.9733333333" type="curve" smooth="yes"/>
			<point x="24.6266666667" y="47.1466666667"/>
			<point x="79.84" y="-18.88"/>
			<point x="194.48" y="-18.88" type="curve" smooth="yes"/>
			<point x="315.6533333333" y="-18.88"/>
			<point x="476.9066666667" y="139.56"/>
			<point x="628.6533333333" y="392.6933333333" type="curve"/>
			<point x="612.0533333333" y="392.6933333333" type="line"/>
		</contour>
	</outline>
	<anchor name="top" x="556.56" y="852"/>
	<anchor name="bottom" x="385.7733333333" y="-510"/>
</glyph>
<glyph name="r" format="2">
	<unicode hex="0072"/>
	<advance width="697.2533333333"/>
	<outline>
		<contour>
			<point x="331.92" y="784.2266666667" type="curve"/>
			<point x="94.64" y="0" type="line"/>
			<point x="185.7733333333" y="0" type="line"/>
			<point x="275.92" y="296.5733333333" type="line" smooth="yes"/>
			<point x="352.7866666667" y="548.92"/>
			<point x="526.7333333333" y="776.2266666667"/>
			<point x="619.76" y="776.2266666667" type="curve" smooth="yes"/>
			<point x="640.76" y="776.2266666667"/>
			<point x="658.8933333333" y="762.2266666667"/>
			<point x="674.0133333333" y="745" type="curve" smooth="yes"/>
			<point x="689.1333333333" y="727.7733333333"/>
			<point x="701.3866666667" y="718.52"/>
			<point x="711.76" y="718.52" type="curve" smooth="yes"/>
			<point x="751.8266666667" y="718.52"/>
			<point x="789.7866666667" y="749.7333333333"/>
			<point x="789.7866666667" y="796.56" type="curve" smooth="yes"/>
			<point x="789.7866666667" y="840.4"/>
			<point x="763.3066666667" y="871.3733333333"/>
			<point x="702.9733333333" y="871.3733333333" type="curve" smooth="yes"/>
			<point x="574.2" y="871.3733333333"/>
			<point x="430.6133333333" y="721.7733333333"/>
			<point x="310.7466666667" y="468.12" type="curve"/>
			<point x="319.5066666667" y="468.12" type="line"/>
			<point x="438.8" y="854.5066666667" type="line"/>
			<point x="415.96" y="862.7466666667"/>
			<point x="379.5866666667" y="869.12"/>
			<point x="345.3466666667" y="869.12" type="curve" smooth="yes"/>
			<point x="240.1066666667" y="869.12"/>
			<point x="145.7733333333" y="814.2666666667"/>
			<point x="56.6266666667" y="617.68" type="curve"/>
			<point x="83.8533333333" y="605.1866666667" type="line"/>
			<point x="154.8533333333" y="729.8"/>
			<point x="224.8666666667" y="786.7333333333"/>
			<point x="301.2533333333" y="786.7333333333" type="curve" smooth="yes"/>
			<point x="316.9066666667" y="786.7333333333"/>
			<point x="325.6666666667" y="785.48"/>
		</contour>
	</outline>
	<anchor name="top" x="477.8533333333" y="852"/>
	<anchor name="bottom" x="141.8266666667" y="0"/>
</glyph>
<glyph name="s" format="2">
	<unicode hex="0073"/>
	<advance width="604.52"/>
	<outline>
		<contour>
			<point x="68.5733333333" y="153.7466666667" type="curve" smooth="yes"/>
			<point x="34.4933333333" y="153.7466666667"/>
			<point x="7.64" y="126.1466666667"/>
			<point x="7.64" y="92.0533333333" type="curve" smooth="yes"/>
			<point x="7.64" y="37.3466666667"/>
			<point x="67.12" y="-20"/>
			<point x="186.5466666667" y="-20" type="curve" smooth="yes"/>
			<point x="354.6666666667" y="-20"/>
			<point x="471.0133333333" y="96.8933333333"/>
			<point x="471.0133333333" y="232.12" type="curve" smooth="yes"/>
			<point x="471.0133333333" y="304.1333333333"/>
			<point x="438.64" y="379"/>
			<point x="356.0266666667" y="480.24" type="curve" smooth="yes"/>
			<point x="273.4133333333" y="581.48"/>
			<point x="247.5466666667" y="633.2133333333"/>
			<point x="247.5466666667" y="682.8533333333" type="curve" smooth="yes"/>
			<point x="247.5466666667" y="775.6666666667"/>
			<point x="305.9733333333" y="823.1866666667"/>
			<point x="387.3866666667" y="823.1866666667" type="curve" smooth="yes"/>
			<point x="427.4" y="823.1866666667"/>
			<point x="462.0133333333" y="801.32"/>
			<point x="490.4933333333" y="762.8533333333" type="curve" smooth="yes"/>
			<point x="518.9733333333" y="724.3866666667"/>
			<point x="531.84" y="701.2266666667"/>
			<point x="545.4666666667" y="701.2266666667" type="curve" smooth="yes"/>
			<point x="581.8133333333" y="701.2266666667"/>
			<point x="604.16" y="726.8266666667"/>
			<point x="604.16" y="759.6666666667" type="curve" smooth="yes"/>
			<point x="604.16" y="815.5066666667"/>
			<point x="544.6533333333" y="872"/>
			<point x="429.2" y="872" type="curve" smooth="yes"/>
			<point x="280.4" y="872"/>
			<point x="174.7466666667" y="778.2933333333"/>
			<point x="174.7466666667" y="637.9066666667" type="curve" smooth="yes"/>
			<point x="174.7466666667" y="577.5466666667"/>
			<point x="198.6133333333" y="514.9333333333"/>
			<point x="285.8533333333" y="409.68" type="curve" smooth="yes"/>
			<point x="373.0933333333" y="304.4266666667"/>
			<point x="396.72" y="244.7866666667"/>
			<point x="396.72" y="184.9066666667" type="curve" smooth="yes"/>
			<point x="396.72" y="93.76"/>
			<point x="324.56" y="29.08"/>
			<point x="231.4" y="29.08" type="curve" smooth="yes"/>
			<point x="191.2666666667" y="29.08"/>
			<point x="158.4" y="46.8266666667"/>
			<point x="128.8" y="88.0266666667" type="curve" smooth="yes"/>
			<point x="99.2" y="129.2266666667"/>
			<point x="86.5733333333" y="153.7466666667"/>
		</contour>
	</outline>
	<anchor name="top" x="396.7866666667" y="852"/>
	<anchor name="bottom" x="214.3866666667" y="0"/>
</glyph>
<glyph name="t" format="2">
  <advance width="564"/>
  <unicode hex="0074"/>
  <anchor x="247.81333333333333" y="0.0" name="bottom"/>
  <anchor x="512.48" y="1331.7866666666666" name="right"/>
  <outline>
    <contour>
      <point x="136.90666666666667" y="793.9333333333333" type="line"/>
      <point x="583.7866666666666" y="793.9333333333333" type="line"/>
      <point x="595.4" y="852.0" type="line"/>
      <point x="151.77333333333334" y="852.0" type="line"/>
    </contour>
    <contour>
      <point x="226.90666666666667" y="222.90666666666667" type="curve" smooth="yes"/>
      <point x="453.64" y="1026.0" type="line"/>
      <point x="362.50666666666666" y="1026.0" type="line"/>
      <point x="136.24" y="215.94666666666666" type="line" smooth="yes"/>
      <point x="119.86666666666666" y="157.82666666666665"/>
      <point x="112.24" y="112.70666666666666"/>
      <point x="112.24" y="78.58666666666667" type="curve" smooth="yes"/>
      <point x="112.24" y="7.866666666666666"/>
      <point x="143.97333333333333" y="-19.253333333333334"/>
      <point x="197.84" y="-19.253333333333334" type="curve" smooth="yes"/>
      <point x="277.6666666666667" y="-19.253333333333334"/>
      <point x="391.78666666666663" y="75.92"/>
      <point x="507.78666666666663" y="262.06666666666666" type="curve"/>
      <point x="477.18666666666667" y="281.8" type="line"/>
      <point x="389.6933333333333" y="150.51999999999998"/>
      <point x="287.56" y="65.25333333333333"/>
      <point x="235.90666666666667" y="65.25333333333333" type="curve" smooth="yes"/>
      <point x="215.64" y="65.25333333333333"/>
      <point x="204.50666666666666" y="76.50666666666666"/>
      <point x="204.50666666666666" y="107.28" type="curve" smooth="yes"/>
      <point x="204.50666666666666" y="131.42666666666668"/>
      <point x="211.64" y="168.46666666666667"/>
    </contour>
  </outline>
</glyph>
<glyph name="v" format="2">
	<unicode hex="0076"/>
	<advance width="860.56"/>
	<outline>
		<contour>
			<point x="819.04" y="722.2266666667" type="curve" smooth="yes"/>
			<point x="819.04" y="828.8933333333"/>
			<point x="790.6933333333" y="872"/>
			<point x="734.36" y="872" type="curve" smooth="yes"/>
			<point x="695.1466666667" y="872"/>
			<point x="656.0666666667" y="845.8933333333"/>
			<point x="656.0666666667" y="797.5733333333" type="curve" smooth="yes"/>
			<point x="656.0666666667" y="768.5733333333"/>
			<point x="745.4" y="721.1333333333"/>
			<point x="745.4" y="616.0933333333" type="curve" smooth="yes"/>
			<point x="745.4" y="410.0666666667"/>
			<point x="532.36" y="56.5466666667"/>
			<point x="313.5333333333" y="56.5466666667" type="curve" smooth="yes"/>
			<point x="253.0133333333" y="56.5466666667"/>
			<point x="218.5066666667" y="84.0533333333"/>
			<point x="218.5066666667" y="142.0666666667" type="curve" smooth="yes"/>
			<point x="218.5066666667" y="164.2"/>
			<point x="224.1333333333" y="191.5866666667"/>
			<point x="235.0133333333" y="224.2266666667" type="curve" smooth="yes"/>
			<point x="451.0266666667" y="854.5066666667" type="line"/>
			<point x="428.44" y="862.7466666667"/>
			<point x="389.44" y="869.12"/>
			<point x="355.7066666667" y="869.12" type="curve" smooth="yes"/>
			<point x="248.9733333333" y="869.12"/>
			<point x="153.1466666667" y="814.2666666667"/>
			<point x="62.88" y="617.68" type="curve"/>
			<point x="90.1066666667" y="605.1866666667" type="line"/>
			<point x="161.1066666667" y="729.8"/>
			<point x="231.12" y="786.7333333333"/>
			<point x="307.5066666667" y="786.7333333333" type="curve" smooth="yes"/>
			<point x="323.16" y="786.7333333333"/>
			<point x="331.92" y="785.48"/>
			<point x="338.1733333333" y="784.2266666667" type="curve"/>
			<point x="146.4" y="227.16" type="line" smooth="yes"/>
			<point x="133.2666666667" y="189.3866666667"/>
			<point x="127.0133333333" y="155.12"/>
			<point x="127.0133333333" y="126.36" type="curve" smooth="yes"/>
			<point x="127.0133333333" y="31.48"/>
			<point x="192.1333333333" y="-17.4933333333"/>
			<point x="289.36" y="-17.4933333333" type="curve" smooth="yes"/>
			<point x="536.7333333333" y="-17.4933333333"/>
			<point x="819.04" y="387.8266666667"/>
		</contour>
	</outline>
	<anchor name="top" x="547.9733333333" y="852"/>
	<anchor name="bottom" x="310.96" y="0"/>
</glyph>
<glyph name="w" format="2">
	<unicode hex="0077"/>
	<advance width="1172.92"/>
	<outline>
		<contour>
			<point x="709.3333333333" y="852" type="line"/>
			<point x="599.3466666667" y="461.5333333333" type="line" smooth="yes"/>
			<point x="534.9466666667" y="231.1866666667"/>
			<point x="402.7733333333" y="56.5466666667"/>
			<point x="288.7466666667" y="56.5466666667" type="curve" smooth="yes"/>
			<point x="243.2533333333" y="56.5466666667"/>
			<point x="216.5066666667" y="82.4266666667"/>
			<point x="216.5066666667" y="134.1866666667" type="curve" smooth="yes"/>
			<point x="216.5066666667" y="157.2"/>
			<point x="221.76" y="186.0933333333"/>
			<point x="233.52" y="220.4933333333" type="curve" smooth="yes"/>
			<point x="450.6533333333" y="854.5066666667" type="line"/>
			<point x="428.0666666667" y="862.7466666667"/>
			<point x="389.0666666667" y="869.12"/>
			<point x="355.3333333333" y="869.12" type="curve" smooth="yes"/>
			<point x="248.6" y="869.12"/>
			<point x="152.7733333333" y="814.2666666667"/>
			<point x="62.5066666667" y="617.68" type="curve"/>
			<point x="89.7333333333" y="605.1866666667" type="line"/>
			<point x="160.7333333333" y="729.8"/>
			<point x="230.7466666667" y="786.7333333333"/>
			<point x="307.1333333333" y="786.7333333333" type="curve" smooth="yes"/>
			<point x="322.7866666667" y="786.7333333333"/>
			<point x="331.5466666667" y="785.48"/>
			<point x="337.8" y="784.2266666667" type="curve"/>
			<point x="149.76" y="237.6133333333" type="line" smooth="yes"/>
			<point x="133.2533333333" y="189.3466666667"/>
			<point x="125.6266666667" y="148.2133333333"/>
			<point x="125.6266666667" y="114.5866666667" type="curve" smooth="yes"/>
			<point x="125.6266666667" y="24.2266666667"/>
			<point x="177.9866666667" y="-17.4933333333"/>
			<point x="249.6933333333" y="-17.4933333333" type="curve" smooth="yes"/>
			<point x="354.9466666667" y="-17.4933333333"/>
			<point x="495.0933333333" y="79.28"/>
			<point x="594.6133333333" y="352.0266666667" type="curve"/>
			<point x="576.4933333333" y="352.0266666667" type="line"/>
			<point x="542.9466666667" y="235" type="line" smooth="yes"/>
			<point x="529.32" y="187"/>
			<point x="522.6933333333" y="146"/>
			<point x="522.6933333333" y="113" type="curve" smooth="yes"/>
			<point x="522.6933333333" y="20.76"/>
			<point x="571.8133333333" y="-17.4933333333"/>
			<point x="660.3066666667" y="-17.4933333333" type="curve" smooth="yes"/>
			<point x="884.6666666667" y="-17.4933333333"/>
			<point x="1117.2533333333" y="379.0533333333"/>
			<point x="1117.2533333333" y="716.5866666667" type="curve" smooth="yes"/>
			<point x="1117.2533333333" y="825.1333333333"/>
			<point x="1088.9066666667" y="872"/>
			<point x="1032.5733333333" y="872" type="curve" smooth="yes"/>
			<point x="993.36" y="872"/>
			<point x="954.28" y="845.2666666667"/>
			<point x="954.28" y="796.9466666667" type="curve" smooth="yes"/>
			<point x="954.28" y="767.32"/>
			<point x="1043.6133333333" y="719.2533333333"/>
			<point x="1043.6133333333" y="612.3333333333" type="curve" smooth="yes"/>
			<point x="1043.6133333333" y="399.4133333333"/>
			<point x="878.16" y="56.5466666667"/>
			<point x="683.7333333333" y="56.5466666667" type="curve" smooth="yes"/>
			<point x="628.84" y="56.5466666667"/>
			<point x="602.84" y="78.9333333333"/>
			<point x="602.84" y="130.0666666667" type="curve" smooth="yes"/>
			<point x="602.84" y="154.08"/>
			<point x="608.0933333333" y="183.9733333333"/>
			<point x="618.6" y="220.4933333333" type="curve" smooth="yes"/>
			<point x="797.3466666667" y="852" type="line"/>
		</contour>
	</outline>
	<anchor name="top" x="728.68" y="852"/>
	<anchor name="bottom" x="521.2133333333" y="0"/>
</glyph>
<glyph name="x" format="2">
  <advance width="880.4133333333333"/>
  <unicode hex="0078"/>
  <anchor x="551.7866666666666" y="852.0" name="top"/>
  <anchor x="335.6" y="0.0" name="bottom"/>
  <outline>
    <contour>
      <point x="458.4" y="420.6533333333333" type="line"/>
      <point x="575.9066666666666" y="572.7466666666667" type="line" smooth="yes"/>
      <point x="708.6666666666666" y="741.5066666666667"/>
      <point x="746.64" y="764.36"/>
      <point x="784.1333333333333" y="764.36" type="curve" smooth="yes"/>
      <point x="802.0133333333333" y="764.36"/>
      <point x="814.64" y="758.24"/>
      <point x="829.76" y="742.64" type="curve" smooth="yes"/>
      <point x="844.88" y="727.04"/>
      <point x="852.0" y="722.5466666666666"/>
      <point x="861.7333333333333" y="722.5466666666666" type="curve" smooth="yes"/>
      <point x="897.1866666666666" y="722.5466666666666"/>
      <point x="931.2666666666667" y="755.3866666666667"/>
      <point x="931.2666666666667" y="797.8266666666667" type="curve" smooth="yes"/>
      <point x="931.2666666666667" y="840.04"/>
      <point x="904.5466666666666" y="872.0"/>
      <point x="848.5866666666667" y="872.0" type="curve" smooth="yes"/>
      <point x="777.8666666666667" y="872.0"/>
      <point x="727.7733333333333" y="840.1466666666666"/>
      <point x="601.28" y="675.7733333333333" type="curve" smooth="yes"/>
      <point x="454.6933333333333" y="480.49333333333334" type="line"/>
      <point x="418.1066666666667" y="456.38666666666666" type="line"/>
      <point x="288.0933333333333" y="272.9866666666667" type="line" smooth="yes"/>
      <point x="180.53333333333333" y="121.4"/>
      <point x="126.89333333333333" y="87.64"/>
      <point x="81.12" y="87.64" type="curve" smooth="yes"/>
      <point x="63.86666666666666" y="87.64"/>
      <point x="51.86666666666666" y="93.75999999999999"/>
      <point x="39.37333333333333" y="106.36" type="curve" smooth="yes"/>
      <point x="26.879999999999995" y="118.96"/>
      <point x="17.133333333333333" y="128.82666666666665"/>
      <point x="4.773333333333333" y="128.82666666666665" type="curve" smooth="yes"/>
      <point x="-30.053333333333335" y="128.82666666666665"/>
      <point x="-64.76" y="97.24"/>
      <point x="-64.76" y="53.54666666666667" type="curve" smooth="yes"/>
      <point x="-64.76" y="13.213333333333333"/>
      <point x="-37.78666666666667" y="-18.746666666666666"/>
      <point x="17.293333333333333" y="-18.746666666666666" type="curve" smooth="yes"/>
      <point x="94.16" y="-18.746666666666666"/>
      <point x="158.54666666666665" y="18.88"/>
      <point x="260.84" y="163.69333333333333" type="curve" smooth="yes"/>
      <point x="424.32" y="395.29333333333335" type="line"/>
    </contour>
    <contour>
      <point x="829.8" y="309.6933333333333" type="curve"/>
      <point x="795.4533333333334" y="309.6933333333333" type="line"/>
      <point x="696.3466666666667" y="118.45333333333333"/>
      <point x="628.4" y="66.4"/>
      <point x="571.2533333333333" y="66.4" type="curve" smooth="yes"/>
      <point x="557.3866666666667" y="66.4"/>
      <point x="554.0133333333333" y="71.65333333333334"/>
      <point x="547.1466666666666" y="106.49333333333334" type="curve" smooth="yes"/>
      <point x="412.4" y="806.7733333333333" type="line" smooth="yes"/>
      <point x="402.90666666666664" y="856.2533333333333"/>
      <point x="386.92" y="872.0"/>
      <point x="353.6933333333333" y="872.0" type="curve" smooth="yes"/>
      <point x="260.85333333333335" y="872.0"/>
      <point x="169.46666666666667" y="794.8666666666667"/>
      <point x="103.21333333333334" y="554.8" type="curve"/>
      <point x="137.56" y="554.8" type="line"/>
      <point x="206.22666666666666" y="737.9866666666667"/>
      <point x="263.85333333333335" y="788.36"/>
      <point x="317.8666666666667" y="788.36" type="curve" smooth="yes"/>
      <point x="327.73333333333335" y="788.36"/>
      <point x="330.9866666666667" y="784.6133333333333"/>
      <point x="336.1066666666667" y="758.0" type="curve" smooth="yes"/>
      <point x="474.3466666666667" y="44.85333333333333" type="line" smooth="yes"/>
      <point x="484.2133333333333" y="-5.0"/>
      <point x="500.06666666666666" y="-20.0"/>
      <point x="535.2933333333333" y="-20.0" type="curve" smooth="yes"/>
      <point x="629.3866666666667" y="-20.0"/>
      <point x="725.3466666666667" y="59.68"/>
    </contour>
  </outline>
</glyph>
<glyph name="y" format="2">
	<unicode hex="0079"/>
	<advance width="873.8133333333"/>
	<outline>
		<contour>
			<point x="89.4533333333" y="528.04" type="line"/>
			<point x="146.76" y="721.3466666667"/>
			<point x="205.5466666667" y="777.4933333333"/>
			<point x="262.8266666667" y="777.4933333333" type="curve" smooth="yes"/>
			<point x="284.4533333333" y="777.4933333333"/>
			<point x="291.08" y="767.2533333333"/>
			<point x="316.2133333333" y="630.2533333333" type="curve" smooth="yes"/>
			<point x="341.3466666667" y="493.2533333333"/>
			<point x="369.7333333333" y="234.32"/>
			<point x="401.1866666667" y="-168.3733333333" type="curve"/>
			<point x="486.8266666667" y="-74.6266666667" type="line"/>
			<point x="455.8933333333" y="327.8"/>
			<point x="425.0133333333" y="596.3866666667"/>
			<point x="395.7466666667" y="725.4533333333" type="curve" smooth="yes"/>
			<point x="366.48" y="854.52"/>
			<point x="346.7466666667" y="872"/>
			<point x="304.2533333333" y="872" type="curve" smooth="yes"/>
			<point x="200.68" y="872"/>
			<point x="111.0266666667" y="789.7466666667"/>
			<point x="55.3466666667" y="528.04" type="curve"/>
		</contour>
		<contour>
			<point x="425.2533333333" y="-95.9466666667" type="line"/>
			<point x="278.8133333333" y="-324.88"/>
			<point x="126.8" y="-443.08"/>
			<point x="33.12" y="-443.08" type="curve" smooth="yes"/>
			<point x="-0.0133333333" y="-443.08"/>
			<point x="-30.0133333333" y="-427.0666666667"/>
			<point x="-56.7333333333" y="-402.8533333333" type="curve" smooth="yes"/>
			<point x="-83.4533333333" y="-378.64"/>
			<point x="-95.5866666667" y="-367.88"/>
			<point x="-105.7066666667" y="-367.88" type="curve" smooth="yes"/>
			<point x="-136.04" y="-367.88"/>
			<point x="-163.52" y="-396.2266666667"/>
			<point x="-163.52" y="-440.2" type="curve" smooth="yes"/>
			<point x="-163.52" y="-491.7733333333"/>
			<point x="-125.4" y="-530"/>
			<point x="-43.6933333333" y="-530" type="curve" smooth="yes"/>
			<point x="120.92" y="-530"/>
			<point x="308.5066666667" y="-385.56"/>
			<point x="522.16" y="-33.72" type="curve" smooth="yes"/>
			<point x="735.8133333333" y="318.12"/>
			<point x="848.7733333333" y="642.8533333333"/>
			<point x="848.7733333333" y="825.6266666667" type="curve" smooth="yes"/>
			<point x="848.7733333333" y="854.8666666667"/>
			<point x="838.92" y="863.2266666667"/>
			<point x="811.44" y="863.2266666667" type="curve" smooth="yes"/>
			<point x="790.72" y="863.2266666667"/>
			<point x="767.12" y="860.48"/>
			<point x="741.4133333333" y="852.7466666667" type="curve"/>
			<point x="746.5466666667" y="547.7733333333"/>
			<point x="658.2133333333" y="255.8933333333"/>
			<point x="455.7466666667" y="-54.9333333333" type="curve"/>
		</contour>
	</outline>
	<anchor name="top" x="517.5066666667" y="852"/>
	<anchor name="bottom" x="614.6266666667" y="-180.44"/>
</glyph>
<glyph name="z" format="2">
	<unicode hex="007A"/>
	<advance width="764.9466666667"/>
	<outline>
		<contour>
			<point x="-2.7066666667" y="10.2266666667" type="line"/>
			<point x="35.8666666667" y="-20" type="line"/>
			<point x="787.52" y="847.2533333333" type="line"/>
			<point x="750.56" y="879.4666666667" type="line"/>
		</contour>
		<contour>
			<point x="125.72" y="595.1733333333" type="line"/>
			<point x="243.52" y="783.5066666667"/>
			<point x="281.5466666667" y="789.4933333333"/>
			<point x="377.32" y="763.52" type="curve" smooth="yes"/>
			<point x="625.6133333333" y="695.5066666667" type="line"/>
			<point x="701.0666666667" y="774.52" type="line"/>
			<point x="402.9733333333" y="853.3866666667" type="line" smooth="yes"/>
			<point x="274.7466666667" y="886.2533333333"/>
			<point x="220.92" y="857"/>
			<point x="97.1333333333" y="608.16" type="curve"/>
		</contour>
		<contour>
			<point x="374.4133333333" y="-2.3733333333" type="line" smooth="yes"/>
			<point x="485.9466666667" y="-49.5066666667"/>
			<point x="546.5866666667" y="-18.72"/>
			<point x="695.4133333333" y="218.0133333333" type="curve"/>
			<point x="669.0666666667" y="234.7333333333" type="line"/>
			<point x="540.8" y="59.7866666667"/>
			<point x="482.3466666667" y="50.4133333333"/>
			<point x="389.1333333333" y="94.76" type="curve" smooth="yes"/>
			<point x="185.6" y="189.6266666667" type="line"/>
			<point x="109.68" y="109.1066666667" type="line"/>
		</contour>
	</outline>
	<anchor name="top" x="468.36" y="852"/>
	<anchor name="bottom" x="325" y="0"/>
</glyph>
<glyph name="braceleft" format="2">
	<unicode hex="007B"/>
	<advance width="569.52"/>
	<outline>
		<contour>
			<point x="77.28" y="545.28" type="line"/>
			<point x="168.16" y="541.6533333333" type="line" smooth="yes"/>
			<point x="232.52" y="539.0266666667"/>
			<point x="261.3733333333" y="511.7733333333"/>
			<point x="261.3733333333" y="463.04" type="curve" smooth="yes"/>
			<point x="261.3733333333" y="335.72"/>
			<point x="88.8" y="65.36"/>
			<point x="88.8" y="-74.32" type="curve" smooth="yes"/>
			<point x="88.8" y="-167.16"/>
			<point x="139.1333333333" y="-247.64"/>
			<point x="247.1066666667" y="-264" type="curve" smooth="yes"/>
			<point x="301.64" y="-272" type="line"/>
			<point x="314.4933333333" y="-236.6533333333" type="line"/>
			<point x="274.5866666667" y="-229.9066666667" type="line" smooth="yes"/>
			<point x="204.08" y="-217.1733333333"/>
			<point x="174.9466666667" y="-172.8133333333"/>
			<point x="174.9466666667" y="-107.9333333333" type="curve" smooth="yes"/>
			<point x="174.9466666667" y="29.3866666667"/>
			<point x="331.4" y="298.9866666667"/>
			<point x="331.4" y="434.9466666667" type="curve" smooth="yes"/>
			<point x="331.4" y="501.9333333333"/>
			<point x="298.6666666667" y="557.5333333333"/>
			<point x="214.56" y="576.88" type="curve"/>
			<point x="207.3066666667" y="555.6266666667" type="line"/>
			<point x="345.0666666667" y="578.2133333333"/>
			<point x="411.7733333333" y="666.5466666667"/>
			<point x="445.1733333333" y="780.24" type="curve" smooth="yes"/>
			<point x="483.0533333333" y="912.6"/>
			<point x="487.3066666667" y="1044.2666666667"/>
			<point x="521.32" y="1162.92" type="curve" smooth="yes"/>
			<point x="554.5866666667" y="1279.3333333333"/>
			<point x="615.8666666667" y="1347.5466666667"/>
			<point x="734.4533333333" y="1359.8" type="curve" smooth="yes"/>
			<point x="807.4" y="1367.1733333333" type="line"/>
			<point x="811.88" y="1410" type="line"/>
			<point x="728.4533333333" y="1402" type="line" smooth="yes"/>
			<point x="552.4933333333" y="1384.24"/>
			<point x="451.1733333333" y="1268.1466666667"/>
			<point x="413.4266666667" y="1136.56" type="curve" smooth="yes"/>
			<point x="378.6666666667" y="1015.4266666667"/>
			<point x="389.0266666667" y="886.3466666667"/>
			<point x="351.04" y="748.04" type="curve" smooth="yes"/>
			<point x="320.52" y="639.6"/>
			<point x="273.4" y="599.3466666667"/>
			<point x="175.88" y="595.72" type="curve" smooth="yes"/>
			<point x="91.3866666667" y="592.0933333333" type="line"/>
		</contour>
	</outline>
</glyph>
<glyph name="bar" format="2">
  <advance width="459"/>
  <unicode hex="007C"/>
  <outline>
    <contour>
      <point x="-87.61333333333333" y="-530.0" type="line"/>
      <point x="-15.573333333333334" y="-530.0" type="line"/>
      <point x="572.4266666666666" y="1470.0" type="line"/>
      <point x="500.38666666666666" y="1470.0" type="line"/>
    </contour>
  </outline>
</glyph>
<glyph name="braceright" format="2">
	<unicode hex="007D"/>
	<advance width="567.8933333333"/>
	<outline>
		<contour>
			<point x="579.4933333333" y="592.72" type="line"/>
			<point x="488.6133333333" y="596.3466666667" type="line" smooth="yes"/>
			<point x="424.2533333333" y="598.9733333333"/>
			<point x="395.4" y="626.2266666667"/>
			<point x="395.4" y="674.96" type="curve" smooth="yes"/>
			<point x="395.4" y="802.28"/>
			<point x="567.9733333333" y="1072.64"/>
			<point x="567.9733333333" y="1212.32" type="curve" smooth="yes"/>
			<point x="567.9733333333" y="1305.16"/>
			<point x="517.64" y="1385.64"/>
			<point x="409.6666666667" y="1402" type="curve" smooth="yes"/>
			<point x="355.1333333333" y="1410" type="line"/>
			<point x="342.28" y="1374.6533333333" type="line"/>
			<point x="382.1866666667" y="1367.9066666667" type="line" smooth="yes"/>
			<point x="452.6933333333" y="1355.1733333333"/>
			<point x="481.8266666667" y="1310.8133333333"/>
			<point x="481.8266666667" y="1245.9333333333" type="curve" smooth="yes"/>
			<point x="481.8266666667" y="1108.6133333333"/>
			<point x="325.3733333333" y="839.0133333333"/>
			<point x="325.3733333333" y="703.0533333333" type="curve" smooth="yes"/>
			<point x="325.3733333333" y="636.0666666667"/>
			<point x="358.1066666667" y="580.4666666667"/>
			<point x="442.2133333333" y="561.12" type="curve"/>
			<point x="449.4666666667" y="582.3733333333" type="line"/>
			<point x="311.7066666667" y="559.7866666667"/>
			<point x="245" y="471.4533333333"/>
			<point x="211.6" y="357.76" type="curve" smooth="yes"/>
			<point x="173.72" y="225.4"/>
			<point x="169.4666666667" y="93.7333333333"/>
			<point x="135.4533333333" y="-24.92" type="curve" smooth="yes"/>
			<point x="102.1866666667" y="-141.3333333333"/>
			<point x="40.9066666667" y="-209.5466666667"/>
			<point x="-77.68" y="-221.8" type="curve" smooth="yes"/>
			<point x="-150.6266666667" y="-229.1733333333" type="line"/>
			<point x="-155.1066666667" y="-272" type="line"/>
			<point x="-71.68" y="-264" type="line" smooth="yes"/>
			<point x="104.28" y="-246.24"/>
			<point x="205.6" y="-130.1466666667"/>
			<point x="243.3466666667" y="1.44" type="curve" smooth="yes"/>
			<point x="278.1066666667" y="122.5733333333"/>
			<point x="267.7466666667" y="251.6533333333"/>
			<point x="305.7333333333" y="389.96" type="curve" smooth="yes"/>
			<point x="336.2533333333" y="498.4"/>
			<point x="383.3733333333" y="538.6533333333"/>
			<point x="480.8933333333" y="542.28" type="curve" smooth="yes"/>
			<point x="565.3866666667" y="545.9066666667" type="line"/>
		</contour>
	</outline>
</glyph>
<glyph name="asciitilde" format="2">
	<unicode hex="007E"/>
	<advance width="1000"/>
	<outline>
		<contour>
			<point x="893" y="537" type="curve"/>
			<point x="833.8266666667" y="537" type="line"/>
			<point x="794.0533333333" y="433.2"/>
			<point x="741.4" y="386.56"/>
			<point x="661.7466666667" y="386.56" type="curve" smooth="yes"/>
			<point x="521.5733333333" y="386.56"/>
			<point x="508.0266666667" y="543.3733333333"/>
			<point x="355.9866666667" y="543.3733333333" type="curve" smooth="yes"/>
			<point x="250.9733333333" y="543.3733333333"/>
			<point x="166.88" y="487.0933333333"/>
			<point x="113" y="335" type="curve"/>
			<point x="172.1733333333" y="335" type="line"/>
			<point x="211.9466666667" y="438.8"/>
			<point x="264.6" y="485.44"/>
			<point x="344.2533333333" y="485.44" type="curve" smooth="yes"/>
			<point x="484.4266666667" y="485.44"/>
			<point x="497.9733333333" y="328.6266666667"/>
			<point x="650.0133333333" y="328.6266666667" type="curve" smooth="yes"/>
			<point x="755.0266666667" y="328.6266666667"/>
			<point x="839.12" y="384.9066666667"/>
		</contour>
	</outline>
</glyph>
<glyph name="exclamdown" format="2">
	<unicode hex="00A1"/>
	<advance width="413.2266666667"/>
	<outline>
		<contour>
			<point x="-125.2666666667" y="-470.6266666667" type="line" smooth="yes"/>
			<point x="-133.3866666667" y="-496.24"/>
			<point x="-114.6533333333" y="-503.7466666667"/>
			<point x="-74.5733333333" y="-503.7466666667" type="curve" smooth="yes"/>
			<point x="-35.8666666667" y="-503.7466666667"/>
			<point x="-20.1333333333" y="-496.6133333333"/>
			<point x="-12.76" y="-471.7466666667" type="curve" smooth="yes"/>
			<point x="8.5466666667" y="-396.8666666667" type="line" smooth="yes"/>
			<point x="29.3733333333" y="-327.04"/>
			<point x="140.9066666667" y="118.8"/>
			<point x="234.28" y="451.3733333333" type="curve"/>
			<point x="192.9466666667" y="451.3733333333" type="line"/>
			<point x="83.2266666667" y="118.8"/>
			<point x="-79.9066666667" y="-328.92"/>
			<point x="-101.3466666667" y="-396.8666666667" type="curve" smooth="yes"/>
		</contour>
		<contour>
			<point x="293.8133333333" y="672.88" type="curve" smooth="yes"/>
			<point x="357.8933333333" y="672.88"/>
			<point x="404.6133333333" y="724.3466666667"/>
			<point x="404.6133333333" y="785.8133333333" type="curve" smooth="yes"/>
			<point x="404.6133333333" y="829.28"/>
			<point x="374.1466666667" y="862"/>
			<point x="326.44" y="862" type="curve" smooth="yes"/>
			<point x="262.36" y="862"/>
			<point x="215.64" y="810.5333333333"/>
			<point x="215.64" y="749.0666666667" type="curve" smooth="yes"/>
			<point x="215.64" y="705.6"/>
			<point x="246.1066666667" y="672.88"/>
		</contour>
	</outline>
</glyph>
<glyph name="currency" format="2">
	<unicode hex="00A4"/>
	<advance width="844.04"/>
	<outline>
		<contour>
			<point x="205.28" y="703.1333333333" type="line"/>
			<point x="274.0133333333" y="602.04" type="line"/>
			<point x="321.72" y="636.3733333333" type="line"/>
			<point x="252.7333333333" y="737.3466666667" type="line"/>
		</contour>
		<contour>
			<point x="731.4933333333" y="718.4666666667" type="line"/>
			<point x="613.9733333333" y="622.9733333333" type="line"/>
			<point x="646.0533333333" y="578.1333333333" type="line"/>
			<point x="766.7066666667" y="673" type="line"/>
		</contour>
		<contour>
			<point x="643.76" y="168.8666666667" type="line"/>
			<point x="575.0266666667" y="269.96" type="line"/>
			<point x="527.32" y="235.6266666667" type="line"/>
			<point x="596.3066666667" y="134.6533333333" type="line"/>
		</contour>
		<contour>
			<point x="82.3333333333" y="199" type="line"/>
			<point x="117.5466666667" y="153.5333333333" type="line"/>
			<point x="235.0666666667" y="249.0266666667" type="line"/>
			<point x="202.9866666667" y="293.8666666667" type="line"/>
		</contour>
		<contour>
			<point x="470.0133333333" y="703" type="curve" smooth="yes"/>
			<point x="281.6533333333" y="703"/>
			<point x="151.7733333333" y="550.6266666667"/>
			<point x="151.7733333333" y="386" type="curve" smooth="yes"/>
			<point x="151.7733333333" y="258.12"/>
			<point x="241.52" y="169"/>
			<point x="379.0266666667" y="169" type="curve" smooth="yes"/>
			<point x="567.3866666667" y="169"/>
			<point x="697.2666666667" y="321.3733333333"/>
			<point x="697.2666666667" y="486" type="curve" smooth="yes"/>
			<point x="697.2666666667" y="613.88"/>
			<point x="607.52" y="703"/>
		</contour>
		<contour>
			<point x="386.7733333333" y="223.1866666667" type="curve" smooth="yes"/>
			<point x="278.8666666667" y="223.1866666667"/>
			<point x="211.96" y="290.08"/>
			<point x="211.96" y="392.6133333333" type="curve" smooth="yes"/>
			<point x="211.96" y="529.4"/>
			<point x="314.24" y="648.8133333333"/>
			<point x="462.2666666667" y="648.8133333333" type="curve" smooth="yes"/>
			<point x="570.1733333333" y="648.8133333333"/>
			<point x="637.08" y="581.92"/>
			<point x="637.08" y="479.3866666667" type="curve" smooth="yes"/>
			<point x="637.08" y="342.6"/>
			<point x="534.8" y="223.1866666667"/>
		</contour>
	</outline>
</glyph>
<glyph name="brokenbar" format="2">
	<unicode hex="00A6"/>
	<advance width="458.56"/>
	<outline>
		<contour>
			<point x="335.4266666667" y="660" type="line"/>
			<point x="573.4266666667" y="1470" type="line"/>
			<point x="501.3866666667" y="1470" type="line"/>
			<point x="263.3866666667" y="660" type="line"/>
		</contour>
		<contour>
			<point x="-86.6133333333" y="-530" type="line"/>
			<point x="-14.5733333333" y="-530" type="line"/>
			<point x="223.4266666667" y="280" type="line"/>
			<point x="151.3866666667" y="280" type="line"/>
		</contour>
	</outline>
</glyph>
<glyph name="section" format="2">
	<unicode hex="00A7"/>
	<advance width="948.7066666667"/>
	<outline>
		<contour>
			<point x="540.48" y="821.5333333333" type="curve"/>
			<point x="514.36" y="858.0933333333" type="line"/>
			<point x="241.3466666667" y="804.0533333333"/>
			<point x="122.5066666667" y="681.0933333333"/>
			<point x="122.5066666667" y="516.8666666667" type="curve" smooth="yes"/>
			<point x="122.5066666667" y="212.0933333333"/>
			<point x="553.5466666667" y="261.1066666667"/>
			<point x="553.5466666667" y="3.5333333333" type="curve" smooth="yes"/>
			<point x="553.5466666667" y="-135.8133333333"/>
			<point x="447.9733333333" y="-228.44"/>
			<point x="288.5066666667" y="-228.44" type="curve" smooth="yes"/>
			<point x="111.6" y="-228.44"/>
			<point x="109.8933333333" y="-84.6266666667"/>
			<point x="30.5733333333" y="-84.6266666667" type="curve" smooth="yes"/>
			<point x="-2.1466666667" y="-84.6266666667"/>
			<point x="-29.12" y="-110.1066666667"/>
			<point x="-29.12" y="-148.56" type="curve" smooth="yes"/>
			<point x="-29.12" y="-215.7466666667"/>
			<point x="63.0533333333" y="-275"/>
			<point x="250.6933333333" y="-275" type="curve" smooth="yes"/>
			<point x="488.8" y="-275"/>
			<point x="640.0666666667" y="-141.8933333333"/>
			<point x="640.0666666667" y="42.2266666667" type="curve" smooth="yes"/>
			<point x="640.0666666667" y="344"/>
			<point x="204.9066666667" y="296.3866666667"/>
			<point x="204.9066666667" y="550.32" type="curve" smooth="yes"/>
			<point x="204.9066666667" y="675.72"/>
			<point x="303.56" y="786.2266666667"/>
		</contour>
		<contour>
			<point x="813.9333333333" y="548.12" type="curve" smooth="yes"/>
			<point x="813.9333333333" y="415.2533333333"/>
			<point x="707.8133333333" y="307.36"/>
			<point x="480.2266666667" y="272.8" type="curve"/>
			<point x="506.3466666667" y="235.8666666667" type="line"/>
			<point x="775.2533333333" y="284.3066666667"/>
			<point x="898.9466666667" y="405.4"/>
			<point x="898.9466666667" y="574.48" type="curve" smooth="yes"/>
			<point x="898.9466666667" y="874.4"/>
			<point x="464.92" y="826.5066666667"/>
			<point x="464.92" y="1083.7066666667" type="curve" smooth="yes"/>
			<point x="464.92" y="1221.9333333333"/>
			<point x="570.12" y="1312.32"/>
			<point x="738.5466666667" y="1312.32" type="curve" smooth="yes"/>
			<point x="902.0133333333" y="1312.32"/>
			<point x="902.2266666667" y="1167.76"/>
			<point x="984.9066666667" y="1167.76" type="curve" smooth="yes"/>
			<point x="1018.7466666667" y="1167.76"/>
			<point x="1047.5866666667" y="1194.7333333333"/>
			<point x="1047.5866666667" y="1230.5733333333" type="curve" smooth="yes"/>
			<point x="1047.5866666667" y="1289.92"/>
			<point x="969.9733333333" y="1360"/>
			<point x="771.5066666667" y="1360" type="curve" smooth="yes"/>
			<point x="524.0666666667" y="1360"/>
			<point x="380.64" y="1228.0133333333"/>
			<point x="380.64" y="1050.24" type="curve" smooth="yes"/>
			<point x="380.64" y="750.3333333333"/>
			<point x="813.9333333333" y="797.5733333333"/>
		</contour>
	</outline>
</glyph>
<glyph name="copyright" format="2">
	<unicode hex="00A9"/>
	<advance width="1655.5066666667"/>
	<outline>
		<contour>
			<point x="884.48" y="337.9733333333" type="curve" smooth="yes"/>
			<point x="708.96" y="337.9733333333"/>
			<point x="614.5333333333" y="453.28"/>
			<point x="639.6" y="656.0266666667" type="curve" smooth="yes"/>
			<point x="662.7866666667" y="862.8"/>
			<point x="799.8666666667" y="1009.4"/>
			<point x="1017.04" y="1009.4" type="curve" smooth="yes"/>
			<point x="1086.2933333333" y="1009.4"/>
			<point x="1149.8933333333" y="996.5333333333"/>
			<point x="1204.0533333333" y="959.1333333333" type="curve"/>
			<point x="1166.5733333333" y="1007.7866666667" type="line"/>
			<point x="1205.16" y="818.9333333333" type="line"/>
			<point x="1229.8933333333" y="818.9333333333" type="line"/>
			<point x="1269.7466666667" y="1086.1066666667" type="line"/>
			<point x="1258.4933333333" y="1086.1066666667" type="line"/>
			<point x="1186.5733333333" y="1039.12" type="line"/>
			<point x="1222.6666666667" y="1039.1066666667" type="line"/>
			<point x="1166.8933333333" y="1057.6266666667"/>
			<point x="1101.6933333333" y="1065"/>
			<point x="1038.9333333333" y="1065" type="curve" smooth="yes"/>
			<point x="765.9066666667" y="1065"/>
			<point x="561.5066666667" y="893.24"/>
			<point x="533.9333333333" y="654.5066666667" type="curve" smooth="yes"/>
			<point x="503.2266666667" y="418.7733333333"/>
			<point x="636.6" y="286.3733333333"/>
			<point x="870.2266666667" y="286.3733333333" type="curve" smooth="yes"/>
			<point x="946.8533333333" y="286.3733333333"/>
			<point x="1024.1866666667" y="299.88"/>
			<point x="1092.2933333333" y="324.5066666667" type="curve"/>
			<point x="1172.6133333333" y="508.9066666667" type="line"/>
			<point x="1138.88" y="508.9066666667" type="line"/>
			<point x="1001.3333333333" y="329.84" type="line"/>
			<point x="1065.1866666667" y="378.9866666667" type="line"/>
			<point x="1000.2" y="348.24"/>
			<point x="943.36" y="337.9733333333"/>
		</contour>
		<contour>
			<point x="826.12" y="38.4266666667" type="curve" smooth="yes"/>
			<point x="469.52" y="38.4266666667"/>
			<point x="267.3066666667" y="269.3733333333"/>
			<point x="267.3066666667" y="579.1333333333" type="curve" smooth="yes"/>
			<point x="267.3066666667" y="957.8133333333"/>
			<point x="550.44" y="1301.5733333333"/>
			<point x="978.0133333333" y="1301.5733333333" type="curve" smooth="yes"/>
			<point x="1334.6133333333" y="1301.5733333333"/>
			<point x="1536.8266666667" y="1070.6266666667"/>
			<point x="1536.8266666667" y="760.8666666667" type="curve" smooth="yes"/>
			<point x="1536.8266666667" y="382.1866666667"/>
			<point x="1253.6933333333" y="38.4266666667"/>
		</contour>
		<contour>
			<point x="978.5066666667" y="1360" type="curve" smooth="yes"/>
			<point x="507.7333333333" y="1360"/>
			<point x="197.64" y="988.1466666667"/>
			<point x="197.64" y="575.6533333333" type="curve" smooth="yes"/>
			<point x="197.64" y="229.9333333333"/>
			<point x="425.44" y="-20"/>
			<point x="825.2533333333" y="-20" type="curve" smooth="yes"/>
			<point x="1296.4" y="-20"/>
			<point x="1606.4933333333" y="351.8533333333"/>
			<point x="1606.4933333333" y="764.3466666667" type="curve" smooth="yes"/>
			<point x="1606.4933333333" y="1110.0666666667"/>
			<point x="1378.6933333333" y="1360"/>
		</contour>
	</outline>
</glyph>
<glyph name="ordfeminine" format="2">
	<unicode hex="00AA"/>
	<advance width="869.7466666667"/>
	<outline>
		<contour>
			<point x="170.8933333333" y="477.16" type="line"/>
			<point x="730.84" y="477.16" type="line"/>
			<point x="750.32" y="541.0933333333" type="line"/>
			<point x="190.7466666667" y="541.0933333333" type="line"/>
		</contour>
		<contour>
			<point x="622.5466666667" y="736.76" type="line" smooth="yes"/>
			<point x="607.04" y="693"/>
			<point x="620.0133333333" y="675.64"/>
			<point x="670.0133333333" y="675.64" type="curve" smooth="yes"/>
			<point x="728.520483871" y="675.64"/>
			<point x="803.64" y="699.0266666667"/>
			<point x="915.12" y="807.7466666667" type="curve"/>
			<point x="897.76" y="831.8533333333" type="line"/>
			<point x="806.9866666667" y="758.8266666667"/>
			<point x="741.9733333333" y="736.56"/>
			<point x="675.68" y="746.44" type="curve"/>
			<point x="703.0666666667" y="722.08" type="line"/>
			<point x="916.6266666667" y="1340" type="line"/>
			<point x="871.4133333333" y="1340" type="line"/>
			<point x="814.9466666667" y="1301.7733333333" type="line"/>
			<point x="742.8666666667" y="1089.7066666667" type="line" smooth="yes"/>
			<point x="679.3466666667" y="906.44"/>
			<point x="516.6666666667" y="750.2"/>
			<point x="430.6133333333" y="750.2" type="curve" smooth="yes"/>
			<point x="378.5733333333" y="750.2"/>
			<point x="354.68" y="783.7333333333"/>
			<point x="354.68" y="841.2666666667" type="curve" smooth="yes"/>
			<point x="354.68" y="994.84"/>
			<point x="514.0266666667" y="1306.5866666667"/>
			<point x="695.8" y="1306.5866666667" type="curve" smooth="yes"/>
			<point x="749.08" y="1306.5866666667"/>
			<point x="777.6" y="1273.8266666667"/>
			<point x="790.3466666667" y="1215.6533333333" type="curve"/>
			<point x="829.1066666667" y="1257.6133333333" type="line"/>
			<point x="802.2133333333" y="1313.28"/>
			<point x="765.2" y="1350.52"/>
			<point x="691.44" y="1350.52" type="curve" smooth="yes"/>
			<point x="465.5333333333" y="1350.52"/>
			<point x="258.1466666667" y="1029.5333333333"/>
			<point x="258.1466666667" y="820.8666666667" type="curve" smooth="yes"/>
			<point x="258.1466666667" y="726.9066666667"/>
			<point x="303.7333333333" y="676.3866666667"/>
			<point x="392.6266666667" y="676.3866666667" type="curve" smooth="yes"/>
			<point x="487.92" y="676.3866666667"/>
			<point x="614.0266666667" y="796.9066666667"/>
			<point x="731.56" y="990.1866666667" type="curve"/>
			<point x="705.32" y="973.2666666667" type="line"/>
		</contour>
	</outline>
</glyph>
<glyph name="guillemotleft" format="2">
	<unicode hex="00AB"/>
	<advance width="866.1466666667"/>
	<outline>
		<contour>
			<point x="181.1066666667" y="473.04" type="line"/>
			<point x="146.16" y="360.84" type="line"/>
			<point x="563.1333333333" y="785.7333333333" type="line"/>
			<point x="537.7866666667" y="817.5733333333" type="line"/>
			<point x="76.0133333333" y="450.2533333333" type="line"/>
			<point x="66.2666666667" y="418.0133333333" type="line"/>
			<point x="305.4533333333" y="50.6933333333" type="line"/>
			<point x="341.2933333333" y="67.9333333333" type="line"/>
		</contour>
		<contour>
			<point x="513.48" y="473.04" type="line"/>
			<point x="478.5333333333" y="360.84" type="line"/>
			<point x="895.5066666667" y="785.7333333333" type="line"/>
			<point x="870.16" y="817.5733333333" type="line"/>
			<point x="408.3866666667" y="450.2533333333" type="line"/>
			<point x="398.64" y="418.0133333333" type="line"/>
			<point x="637.8266666667" y="50.6933333333" type="line"/>
			<point x="673.6666666667" y="67.9333333333" type="line"/>
		</contour>
	</outline>
</glyph>
<glyph name="logicalnot" format="2">
	<unicode hex="00AC"/>
	<advance width="1000"/>
	<outline>
		<contour>
			<point x="205.5066666667" y="648" type="line"/>
			<point x="187.0266666667" y="589.0666666667" type="line"/>
			<point x="840.3466666667" y="589.0666666667" type="line"/>
			<point x="728.2" y="224" type="line"/>
			<point x="789.5066666667" y="224" type="line"/>
			<point x="919.5066666667" y="648" type="line"/>
		</contour>
	</outline>
</glyph>
<glyph name="registered" format="2">
	<unicode hex="00AE"/>
	<advance width="1109.2666666667"/>
	<outline>
		<contour>
			<point x="890.7733333333" y="742.1066666667" type="line"/>
			<point x="856.5066666667" y="742.1066666667"/>
			<point x="850.3866666667" y="746.2266666667"/>
			<point x="843.5066666667" y="788.3466666667" type="curve" smooth="yes"/>
			<point x="829.24" y="875.52" type="line" smooth="yes"/>
			<point x="820.7333333333" y="929.64"/>
			<point x="803.5066666667" y="946.0133333333"/>
			<point x="748" y="946.76" type="curve"/>
			<point x="751.64" y="941.2666666667" type="line"/>
			<point x="855.2266666667" y="949.3866666667"/>
			<point x="914.12" y="998.6533333333"/>
			<point x="914.12" y="1070.88" type="curve" smooth="yes"/>
			<point x="914.12" y="1126.76"/>
			<point x="876.24" y="1166"/>
			<point x="774.36" y="1166" type="curve" smooth="yes"/>
			<point x="660.8133333333" y="1166" type="line"/>
			<point x="652.0666666667" y="1127.7733333333" type="line"/>
			<point x="753.76" y="1127.7733333333" type="line" smooth="yes"/>
			<point x="816.7866666667" y="1127.7733333333"/>
			<point x="838.92" y="1104.0133333333"/>
			<point x="838.92" y="1065" type="curve" smooth="yes"/>
			<point x="838.92" y="1003.2533333333"/>
			<point x="799.2933333333" y="964"/>
			<point x="720.7466666667" y="964" type="curve" smooth="yes"/>
			<point x="607.8" y="964" type="line"/>
			<point x="592.44" y="923.7733333333" type="line"/>
			<point x="713.6666666667" y="923.7733333333" type="line" smooth="yes"/>
			<point x="746.4133333333" y="923.7733333333"/>
			<point x="757.2933333333" y="916.28"/>
			<point x="764.8" y="865.9066666667" type="curve" smooth="yes"/>
			<point x="777.44" y="779.2533333333" type="line" smooth="yes"/>
			<point x="786.2906094123" y="717.1381826068"/>
			<point x="796.6755555556" y="712.3155555556"/>
			<point x="882.9066666667" y="716.3733333333" type="curve"/>
		</contour>
		<contour>
			<point x="714.7466666667" y="1166" type="line"/>
			<point x="582.7733333333" y="1166" type="line"/>
			<point x="576.6533333333" y="1145.0133333333" type="line"/>
			<point x="634.4266666667" y="1129.52" type="line"/>
			<point x="520.04" y="754.8533333333" type="line"/>
			<point x="452.2666666667" y="738.7333333333" type="line"/>
			<point x="445.7733333333" y="717" type="line"/>
			<point x="639.1466666667" y="717" type="line"/>
			<point x="645.64" y="738.7333333333" type="line"/>
			<point x="589.24" y="754.8533333333" type="line"/>
		</contour>
		<contour>
			<point x="663.3866666667" y="556.08" type="curve" smooth="yes"/>
			<point x="451.0133333333" y="556.08"/>
			<point x="326.3333333333" y="681.7066666667"/>
			<point x="326.3333333333" y="877.1066666667" type="curve" smooth="yes"/>
			<point x="326.3333333333" y="1108.7866666667"/>
			<point x="487.9866666667" y="1309.2933333333"/>
			<point x="746.5066666667" y="1309.2933333333" type="curve" smooth="yes"/>
			<point x="958.88" y="1309.2933333333"/>
			<point x="1083.56" y="1184.2933333333"/>
			<point x="1083.56" y="988.8933333333" type="curve" smooth="yes"/>
			<point x="1083.56" y="757.2133333333"/>
			<point x="921.9066666667" y="556.7066666667"/>
		</contour>
		<contour>
			<point x="751.6266666667" y="1360" type="curve" smooth="yes"/>
			<point x="451.8933333333" y="1360"/>
			<point x="268.5066666667" y="1126.7733333333"/>
			<point x="268.5066666667" y="870.9866666667" type="curve" smooth="yes"/>
			<point x="268.5066666667" y="649.9733333333"/>
			<point x="411.4133333333" y="506"/>
			<point x="658.2666666667" y="506" type="curve" smooth="yes"/>
			<point x="958" y="506"/>
			<point x="1141.3866666667" y="739.2266666667"/>
			<point x="1141.3866666667" y="995.0133333333" type="curve" smooth="yes"/>
			<point x="1141.3866666667" y="1216.0266666667"/>
			<point x="998.48" y="1360"/>
		</contour>
	</outline>
</glyph>
<glyph name="degree" format="2">
  <advance width="770.3733333333333"/>
  <unicode hex="00B0"/>
  <outline>
    <contour>
      <point x="606.3733333333333" y="1350.0" type="curve" smooth="yes"/>
      <point x="401.12" y="1350.0"/>
      <point x="263.50666666666666" y="1183.3466666666666"/>
      <point x="263.50666666666666" y="1001.88" type="curve" smooth="yes"/>
      <point x="263.50666666666666" y="854.7466666666667"/>
      <point x="368.37333333333333" y="750.0"/>
      <point x="531.6266666666667" y="750.0" type="curve" smooth="yes"/>
      <point x="736.88" y="750.0"/>
      <point x="874.4933333333333" y="916.6533333333333"/>
      <point x="874.4933333333333" y="1098.12" type="curve" smooth="yes"/>
      <point x="874.4933333333333" y="1245.2533333333333"/>
      <point x="769.6266666666667" y="1350.0"/>
    </contour>
    <contour>
      <point x="538.4933333333333" y="804.5733333333334" type="curve" smooth="yes"/>
      <point x="402.2133333333333" y="804.5733333333334"/>
      <point x="325.82666666666665" y="881.08"/>
      <point x="325.82666666666665" y="1011.7466666666667" type="curve" smooth="yes"/>
      <point x="325.82666666666665" y="1151.0133333333333"/>
      <point x="426.61333333333334" y="1295.4266666666667"/>
      <point x="599.5066666666667" y="1295.4266666666667" type="curve" smooth="yes"/>
      <point x="735.7866666666666" y="1295.4266666666667"/>
      <point x="812.1733333333333" y="1218.92"/>
      <point x="812.1733333333333" y="1088.2533333333333" type="curve" smooth="yes"/>
      <point x="812.1733333333333" y="948.9866666666667"/>
      <point x="711.3866666666667" y="804.5733333333334"/>
    </contour>
  </outline>
</glyph>
<glyph name="plusminus" format="2">
	<unicode hex="00B1"/>
	<advance width="1000"/>
	<outline>
		<contour>
			<point x="598.7866666667" y="852" type="line"/>
			<point x="380.7866666667" y="138" type="line"/>
			<point x="442.4666666667" y="138" type="line"/>
			<point x="660.4666666667" y="852" type="line"/>
		</contour>
		<contour>
			<point x="172.24" y="521.96" type="line"/>
			<point x="153.76" y="463.0266666667" type="line"/>
			<point x="867.76" y="463.0266666667" type="line"/>
			<point x="886.24" y="521.96" type="line"/>
		</contour>
		<contour>
			<point x="30.48" y="58.9333333333" type="line"/>
			<point x="12.6266666667" y="0" type="line"/>
			<point x="726.6266666667" y="0" type="line"/>
			<point x="744.48" y="58.9333333333" type="line"/>
		</contour>
	</outline>
</glyph>
<glyph name="uni00B2" format="2">
	<unicode hex="00B2"/>
	<advance width="647.0666666667"/>
	<outline>
		<contour>
			<point x="533.5866666667" y="638.9066666667" type="line"/>
			<point x="608.6533333333" y="674" type="line"/>
			<point x="248.36" y="674" type="line"/>
			<point x="230.3333333333" y="633.1466666667" type="line"/>
			<point x="475.6266666667" y="839.5466666667" type="line" smooth="yes"/>
			<point x="694.2" y="1022.3866666667"/>
			<point x="733.08" y="1093.0133333333"/>
			<point x="733.08" y="1190.0133333333" type="curve" smooth="yes"/>
			<point x="733.08" y="1288.2533333333"/>
			<point x="658.8533333333" y="1354"/>
			<point x="549.1066666667" y="1354" type="curve" smooth="yes"/>
			<point x="409.48" y="1354"/>
			<point x="318.76" y="1267.7466666667"/>
			<point x="274.16" y="1101.2533333333" type="curve"/>
			<point x="303.64" y="1094.76" type="line"/>
			<point x="346.1466666667" y="1226.7066666667"/>
			<point x="411.1466666667" y="1275.9866666667"/>
			<point x="510.3066666667" y="1275.9866666667" type="curve" smooth="yes"/>
			<point x="590.4533333333" y="1275.9866666667"/>
			<point x="635.96" y="1228.8533333333"/>
			<point x="635.96" y="1152.3333333333" type="curve" smooth="yes"/>
			<point x="635.96" y="1072.8133333333"/>
			<point x="593.6933333333" y="998.3066666667"/>
			<point x="428.9066666667" y="852.0266666667" type="curve" smooth="yes"/>
			<point x="148.6" y="603.36" type="line"/>
			<point x="145.48" y="592" type="line"/>
			<point x="544" y="592" type="line"/>
			<point x="584.8266666667" y="576.8933333333" type="line"/>
			<point x="596.32" y="576.8933333333" type="line"/>
			<point x="707.16" y="805.6533333333" type="line"/>
			<point x="685.92" y="805.6533333333" type="line"/>
		</contour>
	</outline>
</glyph>
<glyph name="uni00B3" format="2">
	<unicode hex="00B3"/>
	<advance width="609"/>
	<outline>
		<contour>
			<point x="366.0266666667" y="948.3866666667" type="line"/>
			<point x="413.2933333333" y="962.1466666667" type="line" smooth="yes"/>
			<point x="523.6266666667" y="994.2733333333"/>
			<point x="584.96" y="947.1466666667"/>
			<point x="584.96" y="857.24" type="curve" smooth="yes"/>
			<point x="584.96" y="728.6"/>
			<point x="486.08" y="621.96"/>
			<point x="342.08" y="621.96" type="curve" smooth="yes"/>
			<point x="261.2266666667" y="621.96"/>
			<point x="236.8133333333" y="692.44"/>
			<point x="187.3466666667" y="692.44" type="curve" smooth="yes"/>
			<point x="157" y="692.44"/>
			<point x="141.88" y="671.5866666667"/>
			<point x="141.88" y="648.0933333333" type="curve" smooth="yes"/>
			<point x="141.88" y="613.7333333333"/>
			<point x="177.88" y="578"/>
			<point x="298.88" y="578" type="curve" smooth="yes"/>
			<point x="524.76" y="578"/>
			<point x="674.7466666667" y="710.5066666667"/>
			<point x="674.7466666667" y="873.2533333333" type="curve" smooth="yes"/>
			<point x="674.7466666667" y="971.52"/>
			<point x="610.9733333333" y="1028.0266666667"/>
			<point x="504.4666666667" y="1018.6266666667" type="curve"/>
			<point x="500.8666666667" y="1009.4933333333" type="line"/>
			<point x="651.0266666667" y="1066.7866666667"/>
			<point x="699.9866666667" y="1141.7733333333"/>
			<point x="699.9866666667" y="1219.3866666667" type="curve" smooth="yes"/>
			<point x="699.9866666667" y="1297.8666666667"/>
			<point x="643.1333333333" y="1354"/>
			<point x="543.2533333333" y="1354" type="curve" smooth="yes"/>
			<point x="422.6533333333" y="1354"/>
			<point x="338.76" y="1281.28"/>
			<point x="299.2666666667" y="1147.4" type="curve"/>
			<point x="327.6266666667" y="1138.6533333333" type="line"/>
			<point x="366.8933333333" y="1244.9466666667"/>
			<point x="424.28" y="1287.3333333333"/>
			<point x="504.92" y="1287.3333333333" type="curve" smooth="yes"/>
			<point x="574.1866666667" y="1287.3333333333"/>
			<point x="612.32" y="1247.32"/>
			<point x="612.32" y="1186.4266666667" type="curve" smooth="yes"/>
			<point x="612.32" y="1109.5333333333"/>
			<point x="562.4266666667" y="1045.52"/>
			<point x="361.3866666667" y="980.7333333333" type="curve"/>
		</contour>
	</outline>
</glyph>
<glyph name="uni00B5" format="2">
	<unicode hex="00B5"/>
	<advance width="1006.1333333333"/>
	<outline>
		<contour>
			<point x="706.36" y="606.4666666667" type="line"/>
			<point x="615.36" y="307.2133333333"/>
			<point x="426.88" y="59.3866666667"/>
			<point x="287.3066666667" y="59.3866666667" type="curve" smooth="yes"/>
			<point x="236.16" y="59.3866666667"/>
			<point x="209.76" y="80.1466666667"/>
			<point x="207.88" y="123.68" type="curve" smooth="yes"/>
			<point x="207.2533333333" y="144.56"/>
			<point x="211.3733333333" y="170.0666666667"/>
			<point x="221.3733333333" y="200.5733333333" type="curve" smooth="yes"/>
			<point x="435.0666666667" y="852" type="line"/>
			<point x="344.68" y="852" type="line"/>
			<point x="-108.4133333333" y="-520" type="line"/>
			<point x="-98.4133333333" y="-520" type="line"/>
			<point x="6.72" y="-510.2666666667" type="line"/>
			<point x="152.2133333333" y="184.4266666667" type="line"/>
			<point x="139.9866666667" y="162.8266666667" type="line"/>
			<point x="113.0133333333" y="40.36"/>
			<point x="166.2666666667" y="-20"/>
			<point x="255.0266666667" y="-20" type="curve" smooth="yes"/>
			<point x="379.0533333333" y="-20"/>
			<point x="488.4266666667" y="77.2133333333"/>
			<point x="677.6533333333" y="442.8933333333" type="curve"/>
			<point x="665.64" y="442.8933333333" type="line"/>
			<point x="544.1066666667" y="50.04" type="line" smooth="yes"/>
			<point x="528.0933333333" y="-2"/>
			<point x="538.1866666667" y="-20"/>
			<point x="604.6666666667" y="-20" type="curve" smooth="yes"/>
			<point x="681.76" y="-20"/>
			<point x="783.76" y="28.12"/>
			<point x="922.88" y="182.4666666667" type="curve"/>
			<point x="901.7733333333" y="206.32" type="line"/>
			<point x="771.16" y="85.2133333333"/>
			<point x="678.56" y="62.1466666667"/>
			<point x="614.1866666667" y="69.52" type="curve"/>
			<point x="628.2266666667" y="44.9066666667" type="line"/>
			<point x="872.2533333333" y="852" type="line"/>
			<point x="781.12" y="852" type="line"/>
		</contour>
	</outline>
</glyph>
<glyph name="paragraph" format="2">
  <advance width="1126.8533333333332"/>
  <unicode hex="00B6"/>
  <outline>
    <contour>
      <point x="452.25333333333333" y="-255.0" type="line"/>
      <point x="917.52" y="1267.3066666666666" type="line"/>
      <point x="1078.8933333333334" y="1267.3066666666666" type="line"/>
      <point x="1101.6266666666668" y="1340.0" type="line"/>
      <point x="867.0533333333333" y="1340.0" type="line"/>
      <point x="379.68" y="-255.0" type="line"/>
    </contour>
    <contour>
      <point x="669.4666666666667" y="-255.0" type="line"/>
      <point x="1136.1066666666666" y="1271.92" type="line"/>
      <point x="1311.76" y="1307.76" type="line"/>
      <point x="1321.5066666666667" y="1340.0" type="line"/>
      <point x="1084.2666666666667" y="1340.0" type="line"/>
      <point x="596.8933333333333" y="-255.0" type="line"/>
    </contour>
    <contour>
      <point x="916.6266666666667" y="1340.0" type="line"/>
      <point x="673.1466666666666" y="1340.0" type="line" smooth="yes"/>
      <point x="350.8666666666667" y="1340.0"/>
      <point x="225.24" y="1109.277380906488"/>
      <point x="225.24" y="909.8133333333333" type="curve" smooth="yes"/>
      <point x="225.24" y="765.52"/>
      <point x="304.32" y="677.0"/>
      <point x="499.70666666666665" y="677.0" type="curve" smooth="yes"/>
      <point x="714.2533333333333" y="677.0" type="line"/>
    </contour>
  </outline>
</glyph>
<glyph name="uni00B9" format="2">
	<unicode hex="00B9"/>
	<advance width="476.36"/>
	<outline>
		<contour>
			<point x="295.6666666667" y="642.9733333333" type="line"/>
			<point x="164" y="616.7333333333" type="line"/>
			<point x="156.2533333333" y="592" type="line"/>
			<point x="483.6266666667" y="592" type="line"/>
			<point x="491.7466666667" y="616.7333333333" type="line"/>
			<point x="383.8266666667" y="642.9733333333" type="line"/>
			<point x="598.96" y="1345" type="line"/>
			<point x="569.7733333333" y="1345" type="line"/>
			<point x="273.3733333333" y="1201.6133333333" type="line"/>
			<point x="277.3866666667" y="1173.64" type="line"/>
			<point x="503.9333333333" y="1245.1866666667" type="line"/>
			<point x="488.04" y="1271.4666666667" type="line"/>
		</contour>
	</outline>
</glyph>
<glyph name="ordmasculine" format="2">
	<unicode hex="00BA"/>
	<advance width="822.48"/>
	<outline>
		<contour>
			<point x="153.3866666667" y="477.16" type="line"/>
			<point x="713.3333333333" y="477.16" type="line"/>
			<point x="732.8133333333" y="541.0933333333" type="line"/>
			<point x="173.24" y="541.0933333333" type="line"/>
		</contour>
		<contour>
			<point x="687.4133333333" y="1360" type="curve" smooth="yes"/>
			<point x="465.1466666667" y="1360"/>
			<point x="300.1466666667" y="1127.2133333333"/>
			<point x="300.1466666667" y="888.4666666667" type="curve" smooth="yes"/>
			<point x="300.1466666667" y="754.36"/>
			<point x="367.88" y="679"/>
			<point x="495.2266666667" y="679" type="curve" smooth="yes"/>
			<point x="717.4933333333" y="679"/>
			<point x="882.4933333333" y="911.7866666667"/>
			<point x="882.4933333333" y="1150.5333333333" type="curve" smooth="yes"/>
			<point x="882.4933333333" y="1284.64"/>
			<point x="814.76" y="1360"/>
		</contour>
		<contour>
			<point x="498.2266666667" y="720.6933333333" type="curve" smooth="yes"/>
			<point x="423.44" y="720.6933333333"/>
			<point x="390.4133333333" y="765.96"/>
			<point x="390.4133333333" y="873.76" type="curve" smooth="yes"/>
			<point x="390.4133333333" y="1071.3866666667"/>
			<point x="517.3333333333" y="1318.3066666667"/>
			<point x="684.4133333333" y="1318.3066666667" type="curve" smooth="yes"/>
			<point x="759.2" y="1318.3066666667"/>
			<point x="792.2266666667" y="1273.04"/>
			<point x="792.2266666667" y="1165.24" type="curve" smooth="yes"/>
			<point x="792.2266666667" y="967.6133333333"/>
			<point x="665.3066666667" y="720.6933333333"/>
		</contour>
	</outline>
</glyph>
<glyph name="guillemotright" format="2">
	<unicode hex="00BB"/>
	<advance width="900.8933333333"/>
	<outline>
		<contour>
			<point x="369.8" y="395.2266666667" type="line"/>
			<point x="404.7466666667" y="507.4266666667" type="line"/>
			<point x="-12.2266666667" y="82.5333333333" type="line"/>
			<point x="13.12" y="50.6933333333" type="line"/>
			<point x="474.8933333333" y="418.0133333333" type="line"/>
			<point x="484.64" y="450.2533333333" type="line"/>
			<point x="245.4533333333" y="817.5733333333" type="line"/>
			<point x="209.6133333333" y="800.3333333333" type="line"/>
		</contour>
		<contour>
			<point x="702.1733333333" y="395.2266666667" type="line"/>
			<point x="737.12" y="507.4266666667" type="line"/>
			<point x="320.1466666667" y="82.5333333333" type="line"/>
			<point x="345.4933333333" y="50.6933333333" type="line"/>
			<point x="807.2666666667" y="418.0133333333" type="line"/>
			<point x="817.0133333333" y="450.2533333333" type="line"/>
			<point x="577.8266666667" y="817.5733333333" type="line"/>
			<point x="541.9866666667" y="800.3333333333" type="line"/>
		</contour>
	</outline>
</glyph>
<glyph name="questiondown" format="2">
	<unicode hex="00BF"/>
	<advance width="839.76"/>
	<outline>
		<contour>
			<point x="597.5866666667" y="674.3733333333" type="curve" smooth="yes"/>
			<point x="661.6666666667" y="674.3733333333"/>
			<point x="708.3866666667" y="725.84"/>
			<point x="708.3866666667" y="787.3066666667" type="curve" smooth="yes"/>
			<point x="708.3866666667" y="830.7733333333"/>
			<point x="677.92" y="863.4933333333"/>
			<point x="630.2133333333" y="863.4933333333" type="curve" smooth="yes"/>
			<point x="566.1333333333" y="863.4933333333"/>
			<point x="519.4133333333" y="812.0266666667"/>
			<point x="519.4133333333" y="750.56" type="curve" smooth="yes"/>
			<point x="519.4133333333" y="707.0933333333"/>
			<point x="549.88" y="674.3733333333"/>
		</contour>
		<contour>
			<point x="357.9466666667" y="-511.1333333333" type="curve" smooth="yes"/>
			<point x="505.0133333333" y="-511.1333333333"/>
			<point x="540.48" y="-473.16"/>
			<point x="540.48" y="-426.8266666667" type="curve" smooth="yes"/>
			<point x="540.48" y="-396.8533333333"/>
			<point x="519.7466666667" y="-374.4933333333"/>
			<point x="480.3866666667" y="-374.4933333333" type="curve" smooth="yes"/>
			<point x="418.6666666667" y="-374.4933333333"/>
			<point x="389.5333333333" y="-435.96"/>
			<point x="263.96" y="-435.96" type="curve" smooth="yes"/>
			<point x="143.8133333333" y="-435.96"/>
			<point x="26.8266666667" y="-314.0533333333"/>
			<point x="26.8266666667" y="-149.96" type="curve" smooth="yes"/>
			<point x="26.8266666667" y="38.1466666667"/>
			<point x="137.6666666667" y="144.7066666667"/>
			<point x="478.24" y="117.4266666667" type="curve"/>
			<point x="546.8133333333" y="452.8666666667" type="line"/>
			<point x="515.2133333333" y="452.8666666667" type="line"/>
			<point x="405.2" y="132.4266666667" type="line"/>
			<point x="473.5066666667" y="207.8266666667" type="line"/>
			<point x="83.9866666667" y="235.36"/>
			<point x="-34.3733333333" y="90.36"/>
			<point x="-34.3733333333" y="-124.7333333333" type="curve" smooth="yes"/>
			<point x="-34.3733333333" y="-342.3733333333"/>
			<point x="147.8" y="-511.1333333333"/>
		</contour>
	</outline>
</glyph>
<glyph name="AE" format="2">
	<unicode hex="00C6"/>
	<advance width="1861.2266666667"/>
	<outline>
		<contour>
			<point x="117.6666666667" y="63.5733333333" type="line"/>
			<point x="1203.5866666667" y="1297.2133333333" type="line"/>
			<point x="1192.5866666667" y="1303.84" type="line"/>
			<point x="814.16" y="63.44" type="line"/>
			<point x="648.4" y="27.9733333333" type="line"/>
			<point x="640.16" y="0" type="line"/>
			<point x="896.92" y="0" type="line"/>
			<point x="1305.4266666667" y="1340" type="line"/>
			<point x="982.24" y="1340" type="line"/>
			<point x="974" y="1311.6533333333" type="line"/>
			<point x="1108.16" y="1277.1866666667" type="line"/>
			<point x="38.64" y="63.5733333333" type="line"/>
			<point x="-131.6266666667" y="27.9733333333" type="line"/>
			<point x="-140.12" y="0" type="line"/>
			<point x="256.8266666667" y="0" type="line"/>
			<point x="265.32" y="27.9733333333" type="line"/>
		</contour>
		<contour>
			<point x="1570.3466666667" y="-50.8533333333" type="line"/>
			<point x="1580.96" y="-50.8533333333" type="line"/>
			<point x="1787.48" y="346.2133333333" type="line"/>
			<point x="1762.5066666667" y="360.9466666667" type="line"/>
			<point x="1478.4133333333" y="36.04" type="line"/>
			<point x="1553.0266666667" y="59.1733333333" type="line"/>
			<point x="836.44" y="59.1733333333" type="line"/>
			<point x="816.84" y="0" type="line"/>
			<point x="1496.9066666667" y="0" type="line"/>
		</contour>
		<contour>
			<point x="499.8133333333" y="517.16" type="line"/>
			<point x="997.0933333333" y="517.16" type="line"/>
			<point x="1015.9466666667" y="575.5866666667" type="line"/>
			<point x="519.04" y="575.5866666667" type="line"/>
		</contour>
		<contour>
			<point x="1451.4133333333" y="436.6133333333" type="line"/>
			<point x="1492.96" y="436.6133333333" type="line"/>
			<point x="1565.44" y="701.7466666667" type="line"/>
			<point x="1655.4666666667" y="967.5066666667" type="line"/>
			<point x="1613.92" y="967.5066666667" type="line"/>
			<point x="1503.36" y="737.2266666667" type="line"/>
			<point x="1071.16" y="729.7066666667" type="line"/>
			<point x="1053.3066666667" y="673.7866666667" type="line"/>
			<point x="1483" y="668.1466666667" type="line"/>
		</contour>
		<contour>
			<point x="1876.5466666667" y="986.4533333333" type="line"/>
			<point x="1908.88" y="987.08" type="line"/>
			<point x="1966.6" y="1381.48" type="line"/>
			<point x="1955.36" y="1381.48" type="line"/>
			<point x="1862.56" y="1340" type="line"/>
			<point x="1251.9066666667" y="1340" type="line"/>
			<point x="1232.3066666667" y="1280.8266666667" type="line"/>
			<point x="1880.72" y="1280.8266666667" type="line"/>
			<point x="1837.84" y="1297.32" type="line"/>
		</contour>
	</outline>
	<anchor name="UCtop" x="1250.1466666667" y="1340"/>
	<anchor name="bottom" x="851.1466666667" y="0"/>
</glyph>
<glyph name="Ccedilla" format="2">
	<unicode hex="00C7"/>
	<advance width="1306.3066666667"/>
	<outline>
		<contour>
			<point x="1045.1333333333" y="109.1066666667" type="line"/>
			<point x="941.6266666667" y="53.44"/>
			<point x="821.68" y="35.8"/>
			<point x="711.28" y="35.8" type="curve" smooth="yes"/>
			<point x="446.5466666667" y="35.8"/>
			<point x="273" y="197.56"/>
			<point x="273" y="518.4666666667" type="curve" smooth="yes"/>
			<point x="273" y="948.7733333333"/>
			<point x="559.9066666667" y="1300.0666666667"/>
			<point x="1000.12" y="1300.0666666667" type="curve" smooth="yes"/>
			<point x="1124.8666666667" y="1300.0666666667"/>
			<point x="1222.92" y="1273.68"/>
			<point x="1319.16" y="1196.6533333333" type="curve"/>
			<point x="1260.1333333333" y="1260.08" type="line"/>
			<point x="1312.4933333333" y="948.5333333333" type="line"/>
			<point x="1343.84" y="948.5333333333" type="line"/>
			<point x="1397.88" y="1390.48" type="line"/>
			<point x="1387.1466666667" y="1390.48" type="line"/>
			<point x="1282.88" y="1311.24" type="line"/>
			<point x="1341.88" y="1306.7333333333" type="line"/>
			<point x="1239.7466666667" y="1345.6133333333"/>
			<point x="1150.4" y="1360"/>
			<point x="1038.2533333333" y="1360" type="curve" smooth="yes"/>
			<point x="539.12" y="1360"/>
			<point x="160.3866666667" y="994.9866666667"/>
			<point x="160.3866666667" y="500.7466666667" type="curve" smooth="yes"/>
			<point x="160.3866666667" y="168.0933333333"/>
			<point x="367.3866666667" y="-20"/>
			<point x="714.1733333333" y="-20" type="curve" smooth="yes"/>
			<point x="834.3866666667" y="-20"/>
			<point x="991.6133333333" y="5.6133333333"/>
			<point x="1103.1333333333" y="46.48" type="curve"/>
			<point x="1217.5466666667" y="320.7866666667" type="line"/>
			<point x="1184.3333333333" y="320.7866666667" type="line"/>
			<point x="978.7066666667" y="57.44" type="line"/>
		</contour>
		<contour>
			<point x="501.2666666667" y="-478.4266666667" type="curve" smooth="yes"/>
			<point x="431.2533333333" y="-478.4266666667"/>
			<point x="425.24" y="-416.0533333333"/>
			<point x="379.5066666667" y="-416.0533333333" type="curve" smooth="yes"/>
			<point x="352.6666666667" y="-416.0533333333"/>
			<point x="332.1733333333" y="-437.7866666667"/>
			<point x="332.1733333333" y="-464.7733333333" type="curve" smooth="yes"/>
			<point x="332.1733333333" y="-498.8933333333"/>
			<point x="365.5466666667" y="-530"/>
			<point x="453.0666666667" y="-530" type="curve"/>
			<point x="605.8" y="-530"/>
			<point x="723.1333333333" y="-431.28"/>
			<point x="723.1333333333" y="-303.56" type="curve" smooth="yes"/>
			<point x="723.1333333333" y="-240.5733333333"/>
			<point x="676.6133333333" y="-178.5733333333"/>
			<point x="544.3733333333" y="-144.8" type="curve"/>
			<point x="536.6933333333" y="-190.9333333333" type="line"/>
			<point x="727.2666666667" y="18.6666666667" type="line"/>
			<point x="673.6933333333" y="18.6666666667" type="line"/>
			<point x="466.8133333333" y="-210.3733333333" type="line"/>
			<point x="463.9466666667" y="-219.6" type="line"/>
			<point x="597.6933333333" y="-248.88"/>
			<point x="647.5733333333" y="-292.4"/>
			<point x="647.5733333333" y="-348.7733333333" type="curve" smooth="yes"/>
			<point x="647.5733333333" y="-424.4133333333"/>
			<point x="590.0533333333" y="-478.4266666667"/>
		</contour>
	</outline>
</glyph>
<glyph name="multiply" format="2">
	<unicode hex="00D7"/>
	<advance width="1000"/>
	<outline>
		<contour>
			<point x="117.2666666667" y="175.3466666667" type="line"/>
			<point x="147.7333333333" y="130.8933333333" type="line"/>
			<point x="887.36" y="692.8933333333" type="line"/>
			<point x="856.2666666667" y="737.3466666667" type="line"/>
		</contour>
		<contour>
			<point x="286.52" y="703.1333333333" type="line"/>
			<point x="671.28" y="130.8933333333" type="line"/>
			<point x="718.1066666667" y="165.1066666667" type="line"/>
			<point x="332.72" y="737.3466666667" type="line"/>
		</contour>
	</outline>
</glyph>
<glyph name="Oslash" format="2">
  <advance width="1465"/>
  <unicode hex="00D8"/>
  <anchor x="1006.3333333333334" y="1340.0" name="UCtop"/>
  <anchor x="627.2" y="0.0" name="bottom"/>
  <outline>
    <contour>
      <point x="1641.4" y="1340.0" type="line"/>
      <point x="1536.5066666666667" y="1340.0" type="line"/>
      <point x="1327.3466666666666" y="1161.3466666666666" type="line"/>
      <point x="1296.88" y="1135.0" type="line"/>
      <point x="279.64" y="259.78666666666663" type="line"/>
      <point x="248.17333333333335" y="234.93333333333334" type="line"/>
      <point x="-26.88" y="0.0" type="line"/>
      <point x="78.01333333333332" y="0.0" type="line"/>
      <point x="284.78666666666663" y="176.26666666666668" type="line"/>
      <point x="312.26666666666665" y="201.49333333333334" type="line"/>
      <point x="1327.3866666666668" y="1075.2133333333334" type="line"/>
      <point x="1365.5733333333333" y="1104.5466666666666" type="line"/>
    </contour>
    <contour>
      <point x="276.84" y="483.0933333333333" type="curve" smooth="yes"/>
      <point x="276.84" y="905.8133333333333"/>
      <point x="555.96" y="1303.8266666666666"/>
      <point x="944.0" y="1303.8266666666666" type="curve" smooth="yes"/>
      <point x="1205.3066666666666" y="1303.8266666666666"/>
      <point x="1336.9333333333334" y="1134.1466666666668"/>
      <point x="1336.9333333333334" y="856.9066666666666" type="curve" smooth="yes"/>
      <point x="1336.9333333333334" y="434.18666666666667"/>
      <point x="1057.8133333333333" y="36.17333333333333"/>
      <point x="669.7733333333333" y="36.17333333333333" type="curve" smooth="yes"/>
      <point x="408.46666666666664" y="36.17333333333333"/>
      <point x="276.84" y="205.85333333333332"/>
    </contour>
    <contour>
      <point x="1445.6666666666667" y="841.8133333333334" type="curve" smooth="yes"/>
      <point x="1445.6666666666667" y="1149.6"/>
      <point x="1273.0" y="1360.0"/>
      <point x="946.4933333333333" y="1360.0" type="curve" smooth="yes"/>
      <point x="495.58666666666664" y="1360.0"/>
      <point x="168.10666666666665" y="949.5733333333334"/>
      <point x="168.10666666666665" y="498.18666666666667" type="curve" smooth="yes"/>
      <point x="168.10666666666665" y="190.4"/>
      <point x="340.7733333333333" y="-20.0"/>
      <point x="667.28" y="-20.0" type="curve" smooth="yes"/>
      <point x="1118.1866666666667" y="-20.0"/>
      <point x="1445.6666666666667" y="390.4266666666667"/>
    </contour>
  </outline>
</glyph>
<glyph name="Thorn" format="2">
	<unicode hex="00DE"/>
	<advance width="1118.12"/>
	<outline>
		<contour>
			<point x="534.6266666667" y="378.68" type="curve" smooth="yes"/>
			<point x="250.3866666667" y="378.68" type="line"/>
			<point x="235.64" y="319.5066666667" type="line"/>
			<point x="554.64" y="319.5066666667" type="line" smooth="yes"/>
			<point x="930.68" y="319.5066666667"/>
			<point x="1125.6133333333" y="526.9333333333"/>
			<point x="1125.6133333333" y="778.2533333333" type="curve" smooth="yes"/>
			<point x="1125.6133333333" y="942.6266666667"/>
			<point x="1016.64" y="1065.6133333333"/>
			<point x="733.4133333333" y="1065.6133333333" type="curve" smooth="yes"/>
			<point x="465.1333333333" y="1065.6133333333" type="line"/>
			<point x="440.68" y="1006.44" type="line"/>
			<point x="686.3733333333" y="1006.44" type="line" smooth="yes"/>
			<point x="929.4933333333" y="1006.44"/>
			<point x="1019.76" y="919.1733333333"/>
			<point x="1019.76" y="770.5466666667" type="curve" smooth="yes"/>
			<point x="1019.76" y="543.4133333333"/>
			<point x="867.52" y="378.68"/>
		</contour>
		<contour>
			<point x="498.76" y="1277.68" type="line"/>
			<point x="128.0933333333" y="63.44" type="line"/>
			<point x="-37.6666666667" y="27.9733333333" type="line"/>
			<point x="-45.9066666667" y="0" type="line"/>
			<point x="372.88" y="0" type="line"/>
			<point x="381.12" y="27.9733333333" type="line"/>
			<point x="229.5866666667" y="62.32" type="line"/>
			<point x="600.2533333333" y="1276.56" type="line"/>
			<point x="766.0133333333" y="1312.0266666667" type="line"/>
			<point x="774.2533333333" y="1340" type="line"/>
			<point x="355.4666666667" y="1340" type="line"/>
			<point x="347.2266666667" y="1312.0266666667" type="line"/>
		</contour>
	</outline>
</glyph>
<glyph name="germandbls" format="2">
	<unicode hex="00DF"/>
	<advance width="1047.3066666667"/>
	<outline>
		<contour>
			<point x="110.76" y="793.9333333333" type="line"/>
			<point x="350.96" y="793.9333333333" type="line"/>
			<point x="362.5733333333" y="852" type="line"/>
			<point x="122" y="852" type="line"/>
		</contour>
		<contour>
			<point x="264.4666666667" y="119.0533333333" type="curve" smooth="yes"/>
			<point x="446.52" y="995.6933333333" type="line" smooth="yes"/>
			<point x="502.8" y="1264.0533333333"/>
			<point x="619.6666666667" y="1373.04"/>
			<point x="774.5466666667" y="1373.04" type="curve" smooth="yes"/>
			<point x="896.44" y="1373.04"/>
			<point x="951.9333333333" y="1301.4266666667"/>
			<point x="951.9333333333" y="1209.32" type="curve" smooth="yes"/>
			<point x="951.9333333333" y="1119.0666666667"/>
			<point x="910.8" y="1040.44"/>
			<point x="783.3333333333" y="935.8" type="curve" smooth="yes"/>
			<point x="655.8666666667" y="831.16"/>
			<point x="609.5066666667" y="760.28"/>
			<point x="609.5066666667" y="668.8" type="curve" smooth="yes"/>
			<point x="609.5066666667" y="593.28"/>
			<point x="638.64" y="528.6666666667"/>
			<point x="729.2533333333" y="428.1866666667" type="curve" smooth="yes"/>
			<point x="819.8666666667" y="327.7066666667"/>
			<point x="842.36" y="270.3333333333"/>
			<point x="842.36" y="205.44" type="curve" smooth="yes"/>
			<point x="842.36" y="89.9866666667"/>
			<point x="768.9466666667" y="29.08"/>
			<point x="670.7733333333" y="29.08" type="curve" smooth="yes"/>
			<point x="628.0266666667" y="29.08"/>
			<point x="596.6533333333" y="47.9466666667"/>
			<point x="569.6666666667" y="85.7866666667" type="curve" smooth="yes"/>
			<point x="542.68" y="123.6266666667"/>
			<point x="530.4266666667" y="145.9066666667"/>
			<point x="512.8" y="145.9066666667" type="curve" smooth="yes"/>
			<point x="479.4666666667" y="145.9066666667"/>
			<point x="454.8533333333" y="118.68"/>
			<point x="454.8533333333" y="87.2" type="curve" smooth="yes"/>
			<point x="454.8533333333" y="35.1066666667"/>
			<point x="512.84" y="-20"/>
			<point x="629.28" y="-20" type="curve" smooth="yes"/>
			<point x="794.04" y="-20"/>
			<point x="919.16" y="91.8666666667"/>
			<point x="919.16" y="248.1333333333" type="curve" smooth="yes"/>
			<point x="919.16" y="324.64"/>
			<point x="889.04" y="398.1333333333"/>
			<point x="799.5466666667" y="499.7333333333" type="curve" smooth="yes"/>
			<point x="710.0533333333" y="601.3333333333"/>
			<point x="686.92" y="653.2266666667"/>
			<point x="686.92" y="710.0133333333" type="curve" smooth="yes"/>
			<point x="686.92" y="779.6666666667"/>
			<point x="715.9333333333" y="836.68"/>
			<point x="852.6533333333" y="934.4666666667" type="curve" smooth="yes"/>
			<point x="990" y="1032.2533333333"/>
			<point x="1042.4666666667" y="1105.12"/>
			<point x="1042.4666666667" y="1210.5866666667" type="curve" smooth="yes"/>
			<point x="1042.4666666667" y="1325.92"/>
			<point x="952.64" y="1419"/>
			<point x="798.44" y="1419" type="curve" smooth="yes"/>
			<point x="579.16" y="1419"/>
			<point x="408.04" y="1264.72"/>
			<point x="333.8933333333" y="905.7866666667" type="curve" smooth="yes"/>
			<point x="152.4666666667" y="27.1466666667" type="line" smooth="yes"/>
			<point x="70.4666666667" y="-370.0533333333"/>
			<point x="-23.6933333333" y="-467.7066666667"/>
			<point x="-141.3333333333" y="-467.7066666667" type="curve" smooth="yes"/>
			<point x="-176.5866666667" y="-467.7066666667"/>
			<point x="-209.08" y="-455.84"/>
			<point x="-239.96" y="-423.9733333333" type="curve" smooth="yes"/>
			<point x="-270.84" y="-392.1066666667"/>
			<point x="-287.5733333333" y="-367.9866666667"/>
			<point x="-304.1733333333" y="-367.9866666667" type="curve" smooth="yes"/>
			<point x="-337.8933333333" y="-367.9866666667"/>
			<point x="-367.5066666667" y="-396.9466666667"/>
			<point x="-367.5066666667" y="-429.92" type="curve" smooth="yes"/>
			<point x="-367.5066666667" y="-482.88"/>
			<point x="-312.64" y="-530"/>
			<point x="-202.28" y="-530" type="curve" smooth="yes"/>
			<point x="2.7866666667" y="-530"/>
			<point x="162.48" y="-374.0666666667"/>
		</contour>
	</outline>
</glyph>
